<svg xmlns="http://www.w3.org/2000/svg" width="116" height="40" viewBox="0 0 116 40" fill="none"><g clip-path="url(#clip0_1290_1830)"><path d="M77.3291 31.1456C89.803 31.1456 102.276 31.1445 114.75 31.1564C114.994 31.1564 115.453 30.944 115.46 31.3482C115.467 31.772 115.003 31.5552 114.765 31.5552C89.7741 31.5671 64.7825 31.5671 39.792 31.5552C39.5513 31.5552 39.0935 31.772 39.086 31.3634C39.0785 30.9396 39.5395 31.1575 39.7759 31.1564C52.2937 31.1445 64.8114 31.1456 77.3291 31.1456Z" fill="#011C39"></path><path d="M60.7308 13.9428C60.7308 14.5204 60.7147 15.0981 60.7361 15.6746C60.7511 16.0605 61.2303 16.2675 61.1169 16.7508C61.0485 17.0424 61.0078 17.1898 60.6869 17.1713C60.3126 17.1507 59.9339 17.1865 59.5606 17.1594C59.3446 17.1432 59.0066 17.322 58.9381 16.9838C58.8814 16.7064 58.7616 16.3542 59.0483 16.1125C59.2921 15.9077 59.2718 15.6443 59.2718 15.3788C59.274 14.3958 59.2761 13.4128 59.2708 12.4298C59.2686 12.1285 59.3039 11.8489 59.0119 11.5877C58.7595 11.3612 58.8525 10.9331 58.9456 10.6329C59.0333 10.3479 59.3745 10.543 59.597 10.4931C60.4826 10.2959 60.9586 10.7023 61.2763 11.5227C61.5619 12.2586 61.9844 12.9403 62.4111 13.6306C62.3609 12.9197 62.6893 12.2206 62.194 11.5054C61.8143 10.958 62.1769 10.4942 62.8636 10.4942C63.1289 10.4942 63.3952 10.4801 63.6594 10.4985C63.8712 10.5126 64.2028 10.3793 64.2691 10.5928C64.3696 10.9158 64.4573 11.3634 64.2102 11.6148C63.9418 11.889 63.9642 12.1686 63.9621 12.4667C63.9535 13.8517 63.9396 15.2368 63.9696 16.6219C63.9792 17.0792 63.8209 17.1562 63.4048 17.1865C62.7513 17.2353 62.3619 17.05 62.0945 16.404C61.7405 15.5478 61.2677 14.7426 60.8452 13.9146L60.7318 13.9439L60.7308 13.9428Z" fill="#011C39"></path><path d="M53.7729 27.5095C53.6178 27.5095 53.4595 27.5301 53.3098 27.5051C53.0937 27.4694 52.7557 27.658 52.6926 27.3274C52.6391 27.051 52.5514 26.7335 52.8038 26.4496C53.2606 25.9369 52.976 25.3029 53.0006 24.7253C53.0113 24.4836 52.7161 24.5714 52.5664 24.5844C52.2327 24.6136 51.6786 24.4012 51.6112 24.7166C51.4968 25.2476 51.332 25.912 51.7257 26.3856C52.0123 26.7313 51.9546 27.0641 51.8786 27.3686C51.808 27.6515 51.4561 27.4856 51.2304 27.503C50.901 27.5279 50.5662 27.5301 50.2368 27.503C50.0207 27.4846 49.6816 27.659 49.6196 27.3307C49.5672 27.0565 49.4335 26.6901 49.7372 26.4658C49.9822 26.2848 49.9672 26.054 49.9683 25.8123C49.9704 24.7621 49.9726 23.7119 49.9683 22.6618C49.9672 22.4027 49.9843 22.1719 49.7158 21.9573C49.4377 21.734 49.5597 21.3179 49.6228 21.0122C49.6891 20.6893 50.0282 20.8594 50.2453 20.8421C50.5747 20.815 50.9095 20.8161 51.239 20.8421C51.4625 20.8594 51.808 20.6914 51.8818 20.9884C51.961 21.306 52.0733 21.7048 51.7727 21.9909C51.3566 22.3865 51.5609 22.8774 51.593 23.3088C51.6166 23.6198 51.9973 23.4659 52.2102 23.4637C52.4765 23.4605 52.9012 23.6372 52.9803 23.3359C53.0862 22.9349 53.2124 22.3984 52.8787 22.0657C52.5311 21.7189 52.6295 21.3417 52.7044 21.0198C52.7889 20.6524 53.1921 20.8768 53.452 20.8432C53.713 20.8096 53.9836 20.8161 54.2467 20.8421C54.4928 20.8659 54.88 20.6893 54.9527 20.983C55.0329 21.3049 55.1837 21.7319 54.8083 22.0267C54.6019 22.1892 54.6254 22.4179 54.6254 22.6401C54.6243 23.6903 54.6243 24.7404 54.6254 25.7906C54.6254 25.99 54.5773 26.2425 54.7495 26.3585C55.1698 26.6403 55.0543 27.0706 54.9506 27.3751C54.85 27.671 54.4414 27.4694 54.1729 27.5095C54.0435 27.529 53.9077 27.5127 53.775 27.5127L53.7729 27.5095Z" fill="#011C39"></path><path d="M67.4202 17.167C66.8234 17.167 66.2254 17.1767 65.6297 17.1616C65.4254 17.1562 65.1173 17.2895 65.0371 17.0326C64.9505 16.7552 64.8595 16.3639 65.1077 16.1526C65.4061 15.8979 65.3655 15.6085 65.3676 15.3051C65.374 14.411 65.3794 13.5168 65.3655 12.6238C65.3591 12.2445 65.4222 11.8933 65.0703 11.5335C64.6691 11.1228 65.0371 10.4942 65.6072 10.4931C66.8458 10.4909 68.0844 10.5072 69.322 10.4844C69.7295 10.4768 69.9541 10.5538 69.8814 11.022C69.8547 11.1965 69.8771 11.3785 69.8771 11.5574C69.8771 12.5501 69.599 12.7701 68.646 12.5458C68.5315 12.5187 68.4342 12.4992 68.4107 12.3648C68.2748 11.5801 67.6459 11.7676 67.1999 11.8327C66.6672 11.9096 67.0469 12.4136 66.9635 12.7148C66.9014 12.9392 66.9442 13.1635 67.2854 13.1419C67.5935 13.1223 67.9047 13.1375 68.2139 13.1386C68.8342 13.1408 69.0417 13.4431 68.8663 14.0446C68.815 14.2202 68.7155 14.2365 68.5797 14.2375C68.3807 14.2397 68.1818 14.2386 67.9828 14.2386C66.9474 14.2386 66.9346 14.2386 66.9645 15.2866C66.971 15.4969 66.7613 15.8957 67.2309 15.8816C67.6587 15.8686 68.2759 16.1016 68.3764 15.4254C68.5187 14.4641 69.1915 15.02 69.599 14.9615C70.0782 14.8921 69.8632 15.3755 69.8675 15.6053C69.8942 17.167 69.8835 17.167 68.3497 17.167C68.0406 17.167 67.7304 17.167 67.4213 17.167H67.4202Z" fill="#011C39"></path><path d="M51.5267 3.48541C51.5267 3.93192 51.5203 4.37952 51.5267 4.82604C51.5353 5.36901 51.8315 5.57709 52.346 5.53591C52.9236 5.48931 52.9707 5.06447 52.9953 4.62337C53.0038 4.47706 52.9621 4.33183 52.791 4.34809C52.1556 4.4077 52.3556 3.93517 52.3621 3.63497C52.3728 3.16027 52.7632 3.39328 52.9675 3.38895C54.4446 3.3586 54.4446 3.36944 54.4446 4.85747C54.4446 5.03629 54.4446 5.21511 54.4446 5.39394C54.4446 6.46687 54.3163 6.63594 53.2777 6.84511C52.975 6.9058 52.6626 6.94807 52.3556 6.94374C50.4196 6.92206 49.8078 6.37909 49.9116 4.58002C49.9661 3.62196 49.9073 2.6574 49.9287 1.69718C49.949 0.797641 50.3191 0.36088 51.1844 0.139789C52.1161 -0.0975577 53.0231 0.0379143 53.9291 0.302356C54.3366 0.421571 54.5184 0.646996 54.4467 1.07509C54.4318 1.16179 54.4564 1.25608 54.4425 1.34278C54.3975 1.61806 54.6008 2.0364 54.3205 2.14044C53.9686 2.27049 53.5376 2.21305 53.144 2.18487C52.9268 2.1697 52.9653 1.90743 52.9022 1.75245C52.7664 1.4219 52.5172 1.25066 52.1792 1.27992C51.7994 1.31243 51.5984 1.56712 51.5502 1.94428C51.5417 2.01039 51.5288 2.07758 51.5288 2.14369C51.5267 2.59021 51.5288 3.03781 51.5267 3.48432V3.48541Z" fill="#011C39"></path><path d="M70.4387 15.7245C70.5028 15.485 70.2408 15.0634 70.5841 14.9767C70.9981 14.8716 71.4602 14.9377 71.8987 14.968C72.0624 14.9789 72.011 15.1826 72.0345 15.304C72.118 15.7212 72.3629 15.9152 72.7843 15.886C73.1127 15.8643 73.4015 15.783 73.4946 15.4113C73.5994 14.9897 73.3887 14.7144 73.0421 14.5486C72.5651 14.321 72.0634 14.1465 71.5864 13.9178C70.7467 13.5158 70.3798 12.9208 70.4526 12.1404C70.5381 11.2279 71.0248 10.6871 71.9757 10.4465C72.6827 10.2677 73.3758 10.3316 74.0561 10.5776C75.0348 10.931 75.2167 11.2583 75.0444 12.2824C75.0124 12.4764 74.946 12.5642 74.761 12.5653C74.4294 12.5675 74.0989 12.561 73.7673 12.5685C73.47 12.575 73.4935 12.3572 73.4593 12.16C73.3898 11.7525 73.1116 11.6137 72.7373 11.6397C72.3982 11.6636 72.134 11.8316 72.0506 12.1708C71.9543 12.561 72.2506 12.743 72.533 12.8687C73.0154 13.0844 73.5277 13.234 74.0058 13.4583C74.8669 13.8637 75.2359 14.554 75.1215 15.4525C75.0006 16.3986 74.4701 16.9806 73.5513 17.1995C72.7458 17.3913 71.9779 17.271 71.2227 16.9622C70.6751 16.7389 70.1969 16.4799 70.4397 15.7245H70.4387Z" fill="#011C39"></path><path d="M45.1711 13.8539C45.1711 13.3846 45.1775 12.9143 45.1679 12.445C45.1615 12.1448 45.1989 11.8641 44.8941 11.6083C44.6352 11.3916 44.7465 10.9591 44.8171 10.6524C44.8887 10.3403 45.2267 10.5202 45.4438 10.4996C45.7508 10.4704 46.0653 10.4671 46.3712 10.4996C46.6097 10.5245 46.9798 10.3262 47.059 10.6611C47.1328 10.9765 47.2515 11.3851 46.9274 11.6614C46.7434 11.8186 46.7413 12.0071 46.7392 12.2011C46.7338 13.1852 46.7274 14.1682 46.7424 15.1523C46.7488 15.6237 46.8515 16.0876 47.4365 16.1092C48.0526 16.132 48.2131 15.6714 48.2227 15.1653C48.243 14.1823 48.1928 13.196 48.2452 12.2152C48.2698 11.7503 47.7531 11.5812 47.8216 11.0827C47.8804 10.66 47.9082 10.4162 48.4024 10.4834C48.6848 10.5224 48.9779 10.4725 49.2635 10.4964C49.4913 10.5159 49.8432 10.3522 49.9213 10.6134C50.0143 10.9288 50.1117 11.3645 49.8368 11.6246C49.5768 11.8695 49.5929 12.1285 49.5908 12.4114C49.5833 13.3955 49.6004 14.3795 49.579 15.3625C49.5522 16.5753 48.6987 17.3057 47.3553 17.2981C45.9926 17.2906 45.1968 16.5763 45.1732 15.3289C45.1636 14.8369 45.1722 14.3449 45.1711 13.8539Z" fill="#011C39"></path><path d="M50.5352 15.705C50.6657 15.4828 50.2432 14.916 50.8229 14.968C51.2828 15.0092 52.0145 14.4879 52.1888 15.4503C52.2594 15.8383 52.5728 15.9001 52.9054 15.8827C53.206 15.8665 53.4713 15.7884 53.5847 15.4579C53.7045 15.1078 53.5921 14.8152 53.2948 14.6548C52.8306 14.4045 52.3364 14.2116 51.8551 13.9937C50.8411 13.5331 50.456 12.9533 50.5705 12.0613C50.6924 11.1055 51.2775 10.543 52.3471 10.3847C52.9675 10.2926 53.5772 10.3609 54.1708 10.582C55.1367 10.9429 55.3217 11.2767 55.142 12.2954C55.1067 12.4938 55.0308 12.5675 54.8511 12.5675C54.5644 12.5675 54.2767 12.5599 53.99 12.5729C53.7291 12.5837 53.5761 12.5122 53.5601 12.212C53.5376 11.7991 53.2723 11.63 52.8894 11.6387C52.5225 11.6473 52.2262 11.8164 52.1514 12.1881C52.0658 12.6086 52.4017 12.7712 52.7108 12.9024C53.1568 13.092 53.6221 13.2372 54.0617 13.4399C54.9356 13.8442 55.3356 14.5334 55.2383 15.4026C55.1292 16.3715 54.5783 16.9817 53.6371 17.2028C52.8306 17.3924 52.0637 17.2635 51.3096 16.9568C50.7555 16.7313 50.2977 16.4571 50.5362 15.705H50.5352Z" fill="#011C39"></path><path d="M75.7364 15.7093C75.7728 15.4741 75.576 15.0558 75.8327 14.9918C76.2669 14.8835 76.7483 14.9528 77.2093 14.9756C77.343 14.9821 77.3077 15.1544 77.3194 15.2574C77.3761 15.7223 77.6425 15.9163 78.0917 15.8838C78.4222 15.86 78.7089 15.7678 78.7859 15.3896C78.88 14.9279 78.6094 14.6743 78.2447 14.5042C77.7441 14.2722 77.2242 14.0815 76.729 13.8387C76.0231 13.4919 75.6615 12.9164 75.7418 12.1079C75.822 11.2897 76.2605 10.7391 77.0371 10.5029C78.0382 10.1983 79.0041 10.3294 79.9165 10.8432C80.048 10.9169 80.2395 11.0155 80.262 11.1304C80.3529 11.5834 80.5069 12.1589 80.2074 12.4699C79.9304 12.7582 79.3678 12.5599 78.9303 12.549C78.7485 12.5447 78.7838 12.3604 78.7656 12.2358C78.7014 11.8099 78.4532 11.6083 78.0339 11.6376C77.6981 11.6614 77.4168 11.8121 77.3408 12.1589C77.2392 12.6238 77.605 12.7755 77.9323 12.9153C78.3784 13.1061 78.8469 13.247 79.2843 13.4551C80.1753 13.8788 80.5026 14.5172 80.3882 15.5186C80.2887 16.3932 79.7304 16.9849 78.8287 17.1995C78.0446 17.3859 77.2959 17.271 76.5568 16.9849C75.9814 16.7617 75.4883 16.4918 75.7343 15.7082L75.7364 15.7093Z" fill="#011C39"></path><path d="M60.381 5.35708C60.5126 5.13599 60.0901 4.56809 60.6752 4.62336C61.1373 4.66671 61.871 4.14217 62.0432 5.1154C62.1117 5.50014 62.4336 5.55324 62.7674 5.53807C63.0786 5.52398 63.3289 5.4156 63.4412 5.09806C63.5674 4.74366 63.4241 4.45429 63.1321 4.3004C62.5866 4.0132 62.0101 3.78777 61.4517 3.52333C60.7436 3.18844 60.3629 2.64656 60.4142 1.82722C60.4666 0.987295 60.8891 0.404223 61.7009 0.15929C62.7021 -0.142 63.6615 -0.00544405 64.5825 0.488758C64.8681 0.642654 64.9943 0.830147 64.9793 1.17045C64.9237 2.41354 65.2104 2.16861 63.929 2.21088C63.6273 2.22063 63.422 2.17945 63.392 1.80771C63.3578 1.38504 63.0487 1.24848 62.685 1.28317C62.3641 1.31351 62.086 1.46416 62.0069 1.82505C61.9191 2.22388 62.1983 2.39837 62.4839 2.52409C62.9684 2.73759 63.4797 2.88932 63.9578 3.11583C64.8093 3.52008 65.189 4.22778 65.0788 5.11431C64.9654 6.0236 64.3857 6.66411 63.4872 6.85594C62.7085 7.02284 61.9544 6.93072 61.2153 6.63485C60.6431 6.40617 60.1382 6.15149 60.381 5.356V5.35708Z" fill="#011C39"></path><path d="M39.0271 26.1547C39.1105 25.8654 38.8774 25.4351 39.1833 25.3452C39.5897 25.2249 40.0572 25.2856 40.4946 25.3191C40.6711 25.3332 40.6433 25.5663 40.6679 25.7147C40.7289 26.094 40.9824 26.2414 41.3268 26.2382C41.6723 26.2349 42.0028 26.1558 42.113 25.7592C42.2103 25.4091 42.0616 25.1252 41.7611 24.9702C41.2904 24.7285 40.7952 24.5377 40.3139 24.3167C39.3148 23.8582 38.9768 23.312 39.0827 22.3474C39.1758 21.5064 39.7299 20.9743 40.7203 20.763C41.5814 20.5798 42.3825 20.7597 43.1612 21.1369C43.496 21.2994 43.65 21.5151 43.6308 21.915C43.5751 23.0887 43.8318 22.8926 42.5975 22.9251C42.2991 22.9327 42.0948 22.8991 42.0616 22.5252C42.0253 22.122 41.7525 21.9594 41.3621 21.9876C41.0241 22.0125 40.7524 22.1459 40.6711 22.5024C40.5738 22.9294 40.8733 23.105 41.191 23.2383C41.6594 23.4345 42.1472 23.5862 42.605 23.8029C43.466 24.2104 43.8126 24.8542 43.7281 25.8003C43.65 26.675 43.1024 27.2949 42.2124 27.5279C41.1888 27.7956 40.254 27.5496 39.3384 27.0749C38.8902 26.8429 39.1138 26.4549 39.026 26.1537L39.0271 26.1547Z" fill="#011C39"></path><path d="M44.3667 24.1519C44.3667 23.5721 44.3538 22.9912 44.3699 22.4114C44.3934 21.5205 44.817 21.0187 45.678 20.8161C46.6835 20.5798 47.6483 20.7662 48.6034 21.0903C48.8206 21.164 48.9361 21.2778 48.9136 21.5238C48.8965 21.7004 48.9104 21.8803 48.9104 22.0592C48.9104 23.1028 48.9104 23.0931 47.9092 23.0801C47.6076 23.0768 47.4375 23.0584 47.4172 22.6683C47.3937 22.2001 47.0568 21.9519 46.5947 22.0017C46.1508 22.0494 45.9625 22.368 45.9625 22.8016C45.9625 23.6946 45.969 24.5865 45.969 25.4796C45.969 25.9618 46.1765 26.248 46.6781 26.2393C47.1776 26.2306 47.4942 25.9965 47.4301 25.4557C47.322 24.5454 47.9884 24.9301 48.3799 24.8521C48.9125 24.7459 48.9511 25.0688 48.9126 25.472C48.8954 25.6486 48.9093 25.8285 48.9093 26.0074C48.9093 26.8 48.5229 27.2931 47.7499 27.4867C47.0557 27.659 46.3583 27.7111 45.6545 27.5203C44.8138 27.2927 44.3966 26.7736 44.3656 25.8936C44.3645 25.8491 44.3635 25.8047 44.3635 25.7592C44.3635 25.2238 44.3635 24.6884 44.3635 24.153H44.3656L44.3667 24.1519Z" fill="#011C39"></path><path d="M68.6759 27.5095C68.1015 27.5095 67.5271 27.5203 66.9538 27.504C66.7506 27.4975 66.4404 27.6352 66.3666 27.3729C66.2874 27.0933 66.1954 26.7086 66.4468 26.4918C66.7196 26.2566 66.6982 25.9933 66.6992 25.7104C66.7035 24.7513 66.7067 23.791 66.6971 22.8319C66.6939 22.5143 66.7538 22.2098 66.4233 21.9324C66.1805 21.7275 66.2692 21.2799 66.3677 20.9775C66.4596 20.6936 66.7934 20.8583 67.018 20.841C67.325 20.8161 67.6384 20.8117 67.9443 20.8421C68.1817 20.8659 68.5561 20.673 68.6256 21.0166C68.6898 21.3287 68.831 21.7362 68.4866 22.005C68.2726 22.1719 68.2855 22.3843 68.2855 22.6054C68.2833 23.6545 68.2812 24.7025 68.2876 25.7516C68.2887 25.9748 68.1871 26.2935 68.601 26.2523C68.9743 26.2165 69.4449 26.3704 69.5872 25.822C69.6364 25.6334 69.6343 25.4189 69.6065 25.2227C69.5262 24.6602 69.691 24.4586 70.3049 24.4662C70.9007 24.4738 71.0782 24.6385 71.0226 25.2227C70.952 25.951 71.3146 26.9199 70.8964 27.3577C70.4472 27.8292 69.4813 27.4596 68.7422 27.5084C68.7197 27.5095 68.6983 27.5084 68.6759 27.5084V27.5095Z" fill="#011C39"></path><path d="M41.4017 6.81694C40.8273 6.81694 40.2529 6.82453 39.6785 6.81261C39.4924 6.80827 39.2122 6.91882 39.1427 6.69773C39.0539 6.41595 38.964 6.02145 39.1983 5.81554C39.5106 5.54026 39.4721 5.23138 39.4742 4.90516C39.4807 4.05657 39.4871 3.20797 39.471 2.36046C39.4636 1.95729 39.5277 1.58122 39.1694 1.1954C38.7608 0.756468 39.148 0.153889 39.7641 0.152805C40.0957 0.152805 40.4283 0.132213 40.7578 0.160391C40.9771 0.178815 41.3193 0.00107618 41.3921 0.311036C41.4616 0.612326 41.5707 1.01657 41.2979 1.26042C41.053 1.47935 41.0605 1.71561 41.0594 1.97788C41.0562 2.98254 41.0509 3.9872 41.0637 4.99187C41.0669 5.21837 40.9161 5.57819 41.3867 5.54351C41.7846 5.51425 42.2799 5.67139 42.3708 5.04172C42.3964 4.86615 42.4082 4.68082 42.3793 4.50742C42.2788 3.91242 42.512 3.76395 43.0938 3.77045C43.6511 3.77587 43.819 3.93193 43.7763 4.48357C43.7281 5.10458 43.7506 5.73317 43.7709 6.35742C43.7827 6.6999 43.6778 6.83645 43.3227 6.82345C42.6831 6.7996 42.0413 6.81694 41.4006 6.81694H41.4017Z" fill="#011C39"></path><path d="M57.0684 10.492C57.2224 10.492 57.3807 10.4714 57.5304 10.4963C57.7497 10.5332 58.0984 10.3468 58.1647 10.6372C58.2364 10.9548 58.3551 11.3764 58.0578 11.6376C57.8096 11.8554 57.8246 12.0971 57.8235 12.3572C57.8182 13.338 57.8192 14.3188 57.8235 15.2996C57.8246 15.6064 57.8182 15.8881 58.1005 16.1417C58.3401 16.3552 58.2364 16.7411 58.1669 17.0239C58.0963 17.3068 57.7904 17.1486 57.5903 17.1616C57.2395 17.1854 56.8844 17.1832 56.5325 17.1616C56.3293 17.1497 56.0308 17.297 55.9431 17.0304C55.849 16.7487 55.7945 16.3986 55.9966 16.1374C56.1079 15.9933 56.233 15.8795 56.233 15.6887C56.2351 14.463 56.2298 13.2372 56.2373 12.0115C56.2394 11.6842 55.8629 11.5758 55.8736 11.2008C55.8886 10.6968 55.9367 10.3771 56.541 10.4866C56.7122 10.518 56.8929 10.4909 57.0694 10.4909L57.0684 10.492Z" fill="#011C39"></path><path d="M48.797 37.4921C48.8762 37.0012 49.0013 36.5373 48.7114 36.0659C48.5457 35.796 48.6002 35.3799 49.1425 35.4492C49.3169 35.4709 49.4987 35.4731 49.672 35.4492C50.0859 35.3907 50.2335 35.6367 50.1105 35.9532C49.7051 36.9914 49.9961 38.0644 49.888 39.1135C49.8602 39.3779 50.1126 39.7832 49.642 39.8797C49.2077 39.9675 48.8441 39.8927 48.6462 39.3779C48.4408 38.8436 48.1403 38.3462 47.7894 37.6525C47.7627 38.3082 47.66 38.745 47.905 39.2078C48.106 39.5882 48.0996 39.961 47.4825 39.8938C47.3295 39.8775 47.1712 39.8775 47.0182 39.8938C46.4984 39.9501 46.4781 39.6554 46.5915 39.2782C46.9081 38.228 46.938 37.1854 46.5872 36.132C46.5187 35.925 46.416 35.5359 46.6995 35.5012C47.0888 35.4536 47.599 35.2054 47.8889 35.7288C48.2087 36.3076 48.4965 36.9047 48.7981 37.4943L48.797 37.4921Z" fill="#011C39"></path><path d="M69.7616 37.4943C69.8332 37.0218 69.983 36.572 69.6824 36.1016C69.5016 35.8177 69.5498 35.369 70.1338 35.4503C70.2857 35.472 70.4472 35.4763 70.5969 35.4503C71.12 35.3571 71.2195 35.7321 71.0644 36.0366C70.7157 36.7248 70.9114 37.4314 70.8601 38.1272C70.8323 38.5044 70.8825 38.8891 70.8451 39.2652C70.8237 39.483 71.0494 39.8634 70.5905 39.8819C70.2611 39.8959 69.8974 40.0108 69.6995 39.5394C69.4524 38.9498 69.1262 38.3949 68.7807 37.8379C68.7508 38.3039 68.6096 38.7461 68.8759 39.2099C69.1358 39.6629 68.97 39.8819 68.4491 39.8905C68.2941 39.8927 68.1379 39.8754 67.9849 39.8938C67.4672 39.9545 67.4341 39.6564 67.5528 39.2825C67.8855 38.2334 67.8983 37.1919 67.5549 36.1407C67.4865 35.9293 67.3849 35.5381 67.6523 35.5034C68.0406 35.4525 68.5529 35.2021 68.8449 35.7202C69.1711 36.3 69.4578 36.9036 69.7616 37.4965V37.4943Z" fill="#011C39"></path><path d="M88.3472 37.5019C88.4103 37.0229 88.5718 36.5688 88.2627 36.0962C88.0787 35.8145 88.1408 35.3669 88.7205 35.4492C88.8938 35.4742 89.0767 35.4742 89.2499 35.4492C89.7088 35.382 89.7719 35.7126 89.6564 35.9781C89.235 36.947 89.5248 37.9527 89.4361 38.9357C89.4243 39.069 89.4543 39.2078 89.4296 39.3367C89.3933 39.5275 89.5762 39.8537 89.2296 39.8699C88.9119 39.8851 88.5248 40.0596 88.3108 39.5871C88.0381 38.9856 87.714 38.4068 87.3482 37.8357C87.3557 38.3234 87.177 38.7916 87.4851 39.2782C87.6573 39.5502 87.6487 39.961 87.0893 39.8927C86.915 39.871 86.7353 39.8775 86.5588 39.8916C85.9619 39.9393 86.0539 39.5958 86.163 39.2153C86.454 38.2074 86.4604 37.1984 86.1588 36.1894C86.085 35.9434 85.9566 35.55 86.2422 35.5023C86.623 35.4384 87.1396 35.201 87.4305 35.7278C87.7514 36.3097 88.0413 36.9102 88.3451 37.503L88.3472 37.5019Z" fill="#011C39"></path><path d="M97.4742 39.8894C97.0988 39.8894 96.7191 39.8602 96.3468 39.8959C95.7971 39.9501 95.8249 39.6207 95.9254 39.2749C96.2345 38.2193 96.2688 37.1789 95.9169 36.1201C95.8099 35.8004 95.7553 35.4026 96.365 35.4416C97.1138 35.4882 97.8678 35.4481 98.6198 35.4557C98.8177 35.4579 99.1193 35.3593 99.0851 35.7321C99.0519 36.0919 99.2797 36.5547 98.946 36.7779C98.7663 36.8993 98.301 37.0261 98.0925 36.5883C97.9106 36.2057 97.5437 36.2913 97.2828 36.3867C97.0539 36.469 97.1351 36.8018 97.1876 36.9936C97.3009 37.4098 97.6774 37.2028 97.9138 37.1865C98.3973 37.1529 98.5139 37.3805 98.4176 37.7739C98.331 38.1251 98.0026 37.9722 97.8047 37.9506C97.271 37.892 97.0817 38.1023 97.1672 38.6171C97.1961 38.7948 97.0806 39.0604 97.41 39.0571C97.6635 39.0549 98.0251 39.1546 98.0818 38.8057C98.177 38.2215 98.5909 38.4025 98.8861 38.4339C99.2476 38.4729 99.0508 38.8208 99.0904 39.0322C99.2166 39.7009 98.9856 40.0195 98.2689 39.897C98.0112 39.8526 97.7395 39.8894 97.4742 39.8894Z" fill="#011C39"></path><path d="M82.506 37.6796C82.4472 37.1247 82.6066 36.559 82.2739 36.0128C82.1199 35.7603 82.2055 35.3744 82.6986 35.4503C82.8066 35.4666 82.9189 35.4525 83.0291 35.4525C83.9425 35.4525 83.8463 35.4286 83.6163 36.3628C83.4173 37.1724 83.4997 38.046 83.6088 38.887C83.6345 39.0831 83.8249 39.2175 84.0613 39.198C84.3222 39.1763 84.4977 39.0203 84.4891 38.7753C84.4592 37.9018 84.7159 37.0109 84.3361 36.1537C84.2484 35.9564 84.196 35.628 84.3757 35.5327C84.7287 35.3452 85.1619 35.4102 85.5395 35.4828C85.809 35.5338 85.7352 35.925 85.655 36.0572C85.2485 36.7259 85.502 37.4445 85.4346 38.1337C85.4004 38.486 85.4828 38.8512 85.3512 39.1937C85.133 39.7627 84.4303 40.0867 83.6762 39.9783C82.9842 39.8786 82.5627 39.4765 82.5103 38.8176C82.4804 38.4404 82.505 38.059 82.505 37.6796H82.506Z" fill="#011C39"></path><path d="M104.873 39.9913C104.465 40.0033 104.099 39.8559 103.725 39.7171C103.157 39.5069 103.307 39.0235 103.356 38.6442C103.414 38.2053 103.82 38.487 104.065 38.4264C104.264 38.3776 104.381 38.4686 104.417 38.6995C104.464 38.9932 104.686 39.0853 104.962 39.0528C105.182 39.0268 105.335 38.9162 105.366 38.6832C105.405 38.3873 105.218 38.2302 104.987 38.1218C104.669 37.9723 104.335 37.853 104.02 37.6948C103.539 37.4531 103.287 37.0565 103.358 36.5027C103.432 35.9348 103.76 35.5706 104.311 35.4395C104.84 35.3138 105.351 35.3885 105.871 35.5554C106.449 35.7418 106.407 36.171 106.38 36.623C106.366 36.8592 106.19 36.8538 106.046 36.8289C105.797 36.7855 105.435 37.0153 105.338 36.5698C105.278 36.2967 105.108 36.2122 104.856 36.2285C104.632 36.2436 104.478 36.3628 104.416 36.572C104.353 36.7823 104.497 36.9177 104.657 36.9979C104.892 37.1161 105.144 37.2017 105.389 37.3003C106.27 37.6558 106.563 38.1196 106.409 38.9151C106.275 39.6055 105.724 39.9913 104.873 39.9892V39.9913Z" fill="#011C39"></path><path d="M93.9146 38.5813C94.0451 37.9289 94.1777 37.2775 94.305 36.624C94.3221 36.5384 94.3489 36.4105 94.3061 36.3639C94.0729 36.1114 93.9296 35.7451 94.1735 35.5478C94.4783 35.3029 94.9457 35.4156 95.3233 35.4795C95.6506 35.5348 95.5501 35.9391 95.4731 36.0919C94.9628 37.1095 94.9596 38.2432 94.7051 39.3172C94.6088 39.7225 94.4933 39.9848 94.0312 39.8894C93.6055 39.8016 93.0172 40.181 92.8632 39.3519C92.661 38.2659 92.522 37.1627 92.076 36.1276C91.9187 35.7624 91.969 35.3484 92.5755 35.4503C92.6835 35.4687 92.7958 35.4525 92.907 35.4525C93.7381 35.4535 93.7371 35.4741 93.4344 36.3076C93.2825 36.7281 93.5349 37.1301 93.5991 37.5409C93.6547 37.892 93.7371 38.2388 93.8087 38.5878L93.9146 38.5802V38.5813Z" fill="#011C39"></path><path d="M77.3975 37.6558C77.3975 37.4098 77.3975 37.1648 77.3975 36.9188C77.4018 35.7397 77.774 35.3658 78.9506 35.394C79.2351 35.4005 79.5229 35.4449 79.7988 35.5121C80.3219 35.64 80.6149 36.3087 80.3839 36.7942C80.2769 37.0185 80.0769 36.9318 79.9218 36.9253C79.7357 36.9167 79.464 37.0641 79.4191 36.6858C79.3827 36.3802 79.1774 36.1992 78.865 36.2415C78.496 36.2913 78.4511 36.5937 78.45 36.8972C78.4479 37.4325 78.4468 37.969 78.4607 38.5044C78.4671 38.7862 78.5281 39.0484 78.8918 39.0571C79.2426 39.0658 79.4565 38.9032 79.4234 38.5402C79.372 37.9874 79.7592 38.163 80.0331 38.1305C80.4117 38.0839 80.3882 38.3342 80.3967 38.5922C80.4352 39.7009 80.1817 39.9534 78.9699 39.9913C77.8874 40.0249 77.4114 39.6033 77.3975 38.5933C77.3933 38.2811 77.3975 37.9679 77.3975 37.6558Z" fill="#011C39"></path><path d="M57.6438 36.2447C57.2941 36.3195 57.2459 36.5471 57.2695 36.7671C57.3187 37.206 57.0705 37.2082 56.7496 37.2136C56.371 37.2201 56.3999 36.9882 56.3913 36.7324C56.3614 35.8798 56.7682 35.4535 57.6117 35.4535C58.2075 35.4535 58.8054 35.4861 59.3969 35.4438C59.8815 35.4091 60.0195 35.6009 59.9681 36.0507C59.9403 36.2924 59.9478 36.5417 59.967 36.7855C59.9906 37.0922 59.8975 37.232 59.5659 37.2147C59.3028 37.2006 59.0857 37.2179 59.1167 36.8408C59.137 36.6023 59.1103 36.3477 58.6974 36.2349C58.8504 37.2851 58.4621 38.3039 58.9252 39.3053C59.0611 39.599 59.0461 39.9469 58.5412 39.8938C58.4321 39.8818 58.3209 39.8927 58.2107 39.8927C57.3401 39.8927 57.4577 39.9133 57.6096 39.0192C57.7604 38.1337 57.6428 37.2017 57.6428 36.2469L57.6438 36.2447Z" fill="#011C39"></path><path d="M72.7244 36.2263C72.3575 36.3477 72.3008 36.5601 72.3126 36.7476C72.3372 37.1464 72.1575 37.2125 71.8066 37.2158C71.3414 37.2201 71.4719 36.9036 71.4676 36.6685C71.4419 35.4525 71.4451 35.4525 72.6666 35.4525C73.3062 35.4525 73.9469 35.4676 74.5866 35.446C74.9224 35.4351 75.0786 35.5272 75.0465 35.8925C75.0208 36.1797 75.0294 36.4723 75.0444 36.7617C75.0593 37.0489 75.0112 37.2288 74.6604 37.2114C74.3727 37.1973 74.1309 37.2114 74.1587 36.8018C74.1737 36.5893 74.1641 36.3433 73.7737 36.2274C73.8261 37.2439 73.5448 38.2313 73.9373 39.2012C74.1331 39.6846 74.0175 39.8786 73.4966 39.8884C73.364 39.8905 73.2314 39.8894 73.0998 39.8884C72.3864 39.8829 72.4163 39.8407 72.6142 39.1232C72.8698 38.1955 72.6688 37.2309 72.7254 36.2241L72.7244 36.2263Z" fill="#011C39"></path><path d="M111.066 36.2057C111.216 37.3079 110.851 38.3429 111.309 39.353C111.427 39.6163 111.39 39.9545 110.925 39.8916C110.817 39.8775 110.704 39.8894 110.593 39.8894C109.691 39.8894 109.765 39.91 109.992 39.0376C110.21 38.1977 110.041 37.3068 110.066 36.4387C110.069 36.3401 110.031 36.2447 109.926 36.2664C109.712 36.3108 109.652 36.5091 109.665 36.6815C109.708 37.219 109.393 37.2494 109.001 37.2017C108.877 37.1865 108.789 37.1464 108.789 37.0055C108.789 36.559 108.778 36.1125 108.792 35.666C108.8 35.3907 109.028 35.4546 109.192 35.4535C110.12 35.4492 111.049 35.4655 111.976 35.4438C112.325 35.4351 112.384 35.5901 112.367 35.8838C112.349 36.1732 112.355 36.4647 112.366 36.7541C112.375 37.0185 112.379 37.2309 112.002 37.2125C111.704 37.1973 111.487 37.1941 111.509 36.7963C111.519 36.5839 111.48 36.3412 111.067 36.2046L111.066 36.2057Z" fill="#011C39"></path><path d="M61.8485 39.8894C61.4945 39.8894 61.1393 39.871 60.7874 39.8938C60.227 39.9306 60.304 39.599 60.4067 39.2533C60.7126 38.2237 60.7393 37.1919 60.3917 36.1721C60.2334 35.7061 60.3596 35.4665 60.8452 35.4525C60.889 35.4514 60.934 35.4525 60.9778 35.4525C61.9651 35.446 61.8742 35.4297 61.6945 36.4181C61.549 37.2179 61.6431 38.0665 61.6613 38.8924C61.6677 39.1709 61.9309 39.043 62.0817 39.0538C62.4464 39.0799 62.5544 38.8262 62.517 38.5336C62.4475 37.9852 62.6742 37.8075 63.1855 37.8877C63.3374 37.9115 63.4433 37.9668 63.4454 38.1261C63.4519 38.6398 63.4561 39.1546 63.4433 39.6673C63.4358 39.9393 63.2101 39.884 63.0443 39.8873C62.6464 39.8938 62.2485 39.8894 61.8496 39.8894H61.8485Z" fill="#011C39"></path><path d="M114.405 37.0066C114.572 36.6826 114.749 36.4279 114.771 36.0984C114.785 35.8881 114.648 35.5717 114.892 35.4936C115.174 35.4037 115.544 35.3712 115.802 35.485C116.115 35.6237 115.996 35.9759 115.863 36.2339C115.63 36.688 115.381 37.1334 115.128 37.5767C114.815 38.1272 114.712 38.668 115.001 39.2847C115.153 39.6098 115.107 39.9653 114.576 39.8916C114.49 39.8797 114.4 39.8894 114.311 39.8905C113.401 39.8905 113.413 39.8959 113.726 39.0408C113.86 38.6756 113.84 38.2941 113.65 37.9397C113.346 37.3718 113.045 36.8028 112.738 36.2371C112.463 35.731 112.615 35.4947 113.178 35.446C113.748 35.3972 114.111 35.472 114.028 36.1916C113.996 36.4625 114.143 36.7497 114.406 37.0088L114.405 37.0066Z" fill="#011C39"></path><path d="M76.2231 35.4525C77.0499 35.4525 77.0028 35.5153 76.7985 36.3108C76.5632 37.2277 76.5483 38.2139 76.8135 39.1373C77.0082 39.8114 77.0178 39.8862 76.3119 39.8895C76.1792 39.8895 76.0455 39.8764 75.915 39.8916C75.361 39.9545 75.3578 39.6521 75.4744 39.2446C75.7632 38.2291 75.7749 37.2028 75.4744 36.1938C75.2947 35.5912 75.407 35.4503 76.222 35.4514L76.2231 35.4525Z" fill="#011C39"></path><path d="M90.3752 37.6731C90.3004 37.1345 90.4683 36.5872 90.172 36.0475C90.0051 35.744 90.1078 35.3647 90.6309 35.4503C90.7175 35.4644 90.8074 35.4525 90.8961 35.4525C91.8203 35.4525 91.6898 35.4243 91.4941 36.378C91.3079 37.2851 91.2288 38.2703 91.5839 39.1915C91.7786 39.6987 91.6887 39.8775 91.1635 39.8894C91.0309 39.8927 90.8983 39.8905 90.7656 39.8894C90.0501 39.8851 90.0148 39.8266 90.2832 39.1319C90.4672 38.6561 90.3143 38.1587 90.3763 37.6731H90.3752Z" fill="#011C39"></path><path d="M107.601 39.8894C106.78 39.8894 106.893 39.909 107.047 39.0365C107.209 38.1186 107.305 37.1453 106.963 36.223C106.753 35.6573 106.864 35.4601 107.462 35.4536C107.595 35.4525 107.728 35.4514 107.859 35.4536C108.411 35.4611 108.526 35.6638 108.352 36.1894C108.023 37.193 108.03 38.215 108.346 39.2186C108.524 39.7854 108.43 39.8905 107.601 39.8894Z" fill="#011C39"></path><path d="M51.5899 37.8877C51.3471 37.8877 51.1043 37.8877 50.8614 37.8877C50.7128 37.8877 50.6079 37.8422 50.6026 37.6644C50.5973 37.4769 50.7106 37.4466 50.8572 37.4466C51.3428 37.4466 51.8284 37.4444 52.314 37.4477C52.4413 37.4477 52.5857 37.4336 52.6049 37.6265C52.6263 37.8476 52.4894 37.8855 52.3183 37.8866C52.0755 37.8866 51.8327 37.8866 51.5899 37.8866V37.8877Z" fill="#011C39"></path><path d="M12.9221 26.5482C12.7253 27.2244 12.1626 27.7045 11.9637 28.3819C11.9166 28.5412 11.753 28.5889 11.5925 28.5976C9.79771 27.7555 8.0061 27.335 6.06154 28.2215C4.90635 28.7471 5.17376 28.6171 4.60793 27.7056C4.42075 27.4054 4.26993 27.0825 4.05066 26.6739C5.31281 26.6197 6.38136 26.0594 7.52371 25.7592C8.40507 25.5272 9.22654 25.7223 10.0534 25.9976C10.7636 26.2339 11.4546 26.546 12.2129 26.6143C12.4546 26.6359 12.6964 26.6912 12.9221 26.5471V26.5482Z" fill="#011C39"></path><path d="M21.969 28.4632C21.8064 28.4632 21.6245 28.4058 21.585 28.2649C21.3978 27.6146 20.878 27.1551 20.6448 26.5341C21.1015 26.7638 21.5625 26.6262 21.9946 26.4896C25.2858 25.4536 24.6815 25.2596 28.3653 26.4842C28.7129 26.6002 29.0905 26.624 29.4755 26.6945C29.4574 26.7693 29.4531 26.8332 29.4263 26.8852C28.5621 28.5878 28.5546 28.6084 26.7758 27.982C25.6837 27.5984 24.6291 27.5951 23.5456 28.0037C23.0354 28.1955 22.5359 28.4589 21.969 28.4621V28.4632Z" fill="#011C39"></path><path d="M24.2268 32.0776C23.6771 31.5346 23.4022 30.7879 22.8823 30.2211C23.1134 30.1561 23.3476 30.0997 23.5754 30.0238C25.0761 29.5285 25.8805 29.573 27.364 30.2579C27.2271 30.4584 27.0806 30.647 26.9608 30.8508C26.5714 31.5151 26.1361 31.9887 25.2376 31.7308C24.9478 31.6473 24.4087 31.514 24.2268 32.0765V32.0776Z" fill="#011C39"></path><path d="M10.6812 30.2232C10.4042 30.8746 9.87796 31.3287 9.42658 31.8424C8.8415 31.7438 8.25749 31.6159 7.66492 31.798C7.43709 31.8673 7.29804 31.7459 7.17076 31.5693C6.86271 31.1401 6.54289 30.7185 6.20703 30.2655C7.42212 29.6792 8.61795 29.4993 9.86833 29.9696C10.1336 30.0693 10.4096 30.1409 10.6812 30.2254V30.2232Z" fill="#011C39"></path><path d="M16.7983 13.4204L16.6582 13.4421L16.6721 12.9088C16.7224 12.8221 16.7481 12.6932 16.8957 12.781C16.9331 13.0042 16.9438 13.2242 16.7994 13.4193L16.7983 13.4204Z" fill="#011C39"></path><path d="M16.8947 12.781C16.8198 12.8232 16.746 12.8655 16.6711 12.9088C16.6359 12.6888 16.6498 12.4851 16.8947 12.3117V12.781Z" fill="#011C39"></path><path d="M16.3791 15.5999C16.408 15.4167 16.3203 15.2173 16.4604 15.0179C16.5449 15.278 16.5727 15.5045 16.3994 15.7158C16.378 15.6801 16.3716 15.6411 16.3791 15.5999Z" fill="#011C39"></path><path d="M43.1859 13.7282C43.8694 13.39 44.1165 12.8547 44.0769 12.1762C44.0181 11.152 43.4062 10.5831 42.2104 10.5126C41.3964 10.4649 40.5782 10.4953 39.7621 10.4931C39.1427 10.492 38.7588 11.1 39.1706 11.54C39.5096 11.902 39.4658 12.2488 39.4711 12.6292C39.484 13.5212 39.4775 14.4131 39.4733 15.3051C39.4722 15.6107 39.4775 15.8838 39.2026 16.1472C38.8871 16.4495 39.0957 17.1616 39.4487 17.1616C40.529 17.1616 41.6125 17.1843 42.6885 17.1052C43.6405 17.0348 43.9977 16.6847 44.1486 15.9304C44.3614 14.8629 44.1261 14.2842 43.1859 13.7293V13.7282ZM41.6168 11.7904C42.0895 11.837 42.5249 11.8652 42.5099 12.4829C42.4949 13.1018 42.0264 13.0952 41.574 13.1473C40.9525 13.2199 41.0435 12.8167 41.0638 12.4244C40.9889 12.005 41.0616 11.7351 41.6168 11.7904ZM41.6221 15.861C41.067 16.0106 40.9622 15.6681 41.0713 15.24C41.1611 14.8878 40.6595 14.2235 41.5537 14.2419C42.3452 14.2581 42.6158 14.4565 42.6062 15.0959C42.5965 15.7581 42.2093 15.9326 41.6221 15.86V15.861Z" fill="#011C39"></path><path d="M60.3254 24.2137C60.3254 23.6567 60.3254 23.0996 60.3254 22.5425C60.3254 22.4981 60.3254 22.4537 60.3232 22.4092C60.289 21.5357 59.8494 21.0014 59.0023 20.8193C58.3477 20.6784 57.6909 20.6719 57.032 20.8042C56.1795 20.9754 55.7036 21.4891 55.6864 22.3637C55.6629 23.5667 55.664 24.7708 55.6854 25.9738C55.7004 26.8169 56.1453 27.3263 56.9657 27.5247C57.6652 27.6937 58.3658 27.6872 59.0632 27.5182C59.8847 27.3187 60.2997 26.8083 60.3211 25.9521C60.3361 25.3734 60.3243 24.7935 60.3254 24.2137ZM58.7306 25.5869C58.7081 26.0453 58.5477 26.4441 58.0107 26.456C57.4492 26.4691 57.3069 26.028 57.2919 25.5934C57.2577 24.657 57.262 23.7173 57.2898 22.7799C57.3026 22.3507 57.4781 21.9811 58 21.9887C58.4995 21.9963 58.7017 22.3301 58.7284 22.7734C58.7573 23.2405 58.7349 23.7108 58.7349 24.1801H58.737C58.737 24.6494 58.7552 25.1187 58.7317 25.5869H58.7306Z" fill="#011C39"></path><path d="M63.1674 20.712C62.9054 20.7099 62.6401 20.7576 62.3802 20.8031C61.487 20.9624 61.0153 21.4837 60.9982 22.3973C60.9758 23.5775 60.9779 24.7599 60.9982 25.9402C61.0121 26.7942 61.4443 27.3166 62.2507 27.5171C62.9706 27.697 63.6947 27.6894 64.4124 27.5106C65.1975 27.3144 65.6115 26.8018 65.6339 25.9835C65.6511 25.382 65.6372 24.7805 65.6372 24.178H65.6404C65.6404 23.8214 65.6168 23.4627 65.6446 23.1083C65.788 21.2388 65.0253 20.7283 63.1685 20.7099L63.1674 20.712ZM64.0381 25.653C64.0113 26.0887 63.8263 26.4398 63.3257 26.4582C62.8358 26.4766 62.6401 26.1082 62.624 25.7245C62.5823 24.6992 62.5855 23.6707 62.624 22.6455C62.638 22.2694 62.8669 21.9736 63.315 21.9844C63.7792 21.9963 64.0017 22.2889 64.0338 22.7051C64.0712 23.1939 64.0424 23.687 64.0424 24.178H64.0456C64.0456 24.6689 64.0691 25.162 64.0392 25.6519L64.0381 25.653Z" fill="#011C39"></path><path d="M59.7628 3.54936H59.766C59.766 3.14728 59.766 2.74519 59.766 2.34203C59.766 0.591732 59.2087 0.0270848 57.4578 0.026001C57.1283 0.026001 56.7935 0.0509278 56.4716 0.118122C55.5357 0.312118 55.141 0.781393 55.1228 1.73512C55.1035 2.69642 55.1667 3.66099 55.1057 4.61796C54.972 6.70531 56.0919 6.91556 57.5284 6.94266C57.7915 6.94808 58.0578 6.90364 58.3199 6.86138C59.2344 6.70965 59.7179 6.17101 59.7596 5.22596C59.7842 4.66781 59.7639 4.10858 59.7639 3.54936H59.7628ZM58.0953 5.19995C58.0397 5.56626 57.7819 5.79061 57.3968 5.7776C57.001 5.76459 56.7861 5.48173 56.7583 5.13275C56.7133 4.58111 56.7465 4.02405 56.7465 3.46807H56.7272C56.7272 2.97929 56.7133 2.48942 56.7315 2.00172C56.7465 1.59964 56.954 1.31028 57.3658 1.28101C57.769 1.25284 58.0685 1.48693 58.1124 1.88576C58.2322 2.98904 58.2621 4.09883 58.0942 5.19995H58.0953Z" fill="#011C39"></path><path d="M48.8901 4.91708C48.6858 3.71192 48.3991 2.51976 48.1435 1.32327C47.9773 0.543679 47.502 0.153881 46.7177 0.153881C46.5636 0.153881 46.4053 0.175556 46.2545 0.149545C45.678 0.0520056 45.4352 0.280682 45.3839 0.876759C45.3325 1.47175 45.1999 2.06675 45.0405 2.6444C44.7432 3.72384 44.7442 4.87589 44.1677 5.89464C43.8532 6.45062 44.1634 6.81585 44.8244 6.81694C45.0897 6.81694 45.356 6.83319 45.6192 6.81152C45.8235 6.79526 46.1411 6.94482 46.2053 6.68688C46.277 6.39643 46.4021 6.01061 46.0962 5.77001C45.7636 5.50882 45.8577 5.22704 45.9807 4.93875C46.0363 4.80761 47.1797 4.77944 47.2364 4.91274C47.3562 5.19344 47.4471 5.48389 47.1637 5.75917C46.8877 6.02686 46.9851 6.39968 47.076 6.69339C47.1519 6.93832 47.4653 6.80068 47.6707 6.81152C48.0451 6.83102 48.4248 6.78442 48.7949 6.82452C49.2965 6.87871 49.3639 6.63595 49.3671 6.2046C49.3714 5.69956 48.9692 5.3896 48.889 4.91708H48.8901ZM46.3262 3.90483C46.1486 3.86256 46.123 3.78453 46.1572 3.63497C46.2845 3.08116 46.4118 2.52627 46.5743 1.81639C46.7209 2.42439 46.83 2.87091 46.9359 3.31851C47.0653 3.86581 46.8749 4.03597 46.3262 3.90483Z" fill="#011C39"></path><path d="M102.747 39.0322C102.7 38.888 102.684 38.7255 102.693 38.5727C102.713 38.1998 102.597 37.9235 102.186 37.7837C102.865 37.4152 102.915 36.8343 102.736 36.2133C102.544 35.5511 101.982 35.4698 101.409 35.4568C100.946 35.446 100.483 35.4492 100.02 35.4557C99.4969 35.4622 99.3878 35.7061 99.5696 36.21C99.9194 37.1843 99.8573 38.1988 99.6038 39.172C99.4498 39.7616 99.437 39.8797 100.032 39.8905C100.208 39.8938 100.385 39.8949 100.561 39.8905C101.101 39.8764 101.219 39.6922 100.931 39.2056C100.816 39.0116 100.798 38.8339 100.807 38.6431C100.818 38.4329 100.673 38.1196 101.103 38.1294C101.44 38.137 101.661 38.2399 101.668 38.6182C101.675 38.9075 101.69 39.1969 101.691 39.4863C101.693 39.793 101.829 39.8905 102.138 39.9003C103.008 39.9274 103.035 39.9014 102.749 39.0333L102.747 39.0322ZM101.157 37.3578C100.71 37.3903 100.805 37.089 100.799 36.8094C100.86 36.6251 100.632 36.248 101.108 36.2729C101.462 36.2913 101.763 36.3639 101.756 36.8321C101.748 37.2505 101.508 37.3317 101.157 37.3578Z" fill="#011C39"></path><path d="M56.2191 38.939C56.1614 38.7948 56.1293 38.6398 56.0972 38.4881C55.9592 37.8346 55.8223 37.1811 55.6897 36.5276C55.4661 35.421 55.4672 35.4351 54.3762 35.446C54.0296 35.4492 53.8842 35.5413 53.8082 35.9087C53.5676 37.0564 53.4692 38.2399 53.0167 39.341C52.9557 39.4895 52.8851 39.819 53.1279 39.8613C53.5098 39.9274 53.9665 40.0227 54.2863 39.8114C54.512 39.6629 54.374 39.3042 54.174 39.056C54.0724 38.9303 54.1195 38.719 54.266 38.6485C54.4864 38.5423 54.7473 38.5466 54.9709 38.6463C55.1281 38.7157 55.1367 38.8924 55.0886 39.056C54.9245 39.6131 55.1107 39.8916 55.6469 39.8916C56.283 39.8916 56.4737 39.5744 56.2191 38.94V38.939ZM54.5955 37.9777C54.3377 37.9777 54.3035 37.8433 54.3462 37.6373C54.4051 37.3566 54.466 37.0759 54.5377 36.7389C54.7998 37.0478 54.7666 37.3805 54.8661 37.6677C54.9463 37.8964 54.8222 37.9766 54.5955 37.9777Z" fill="#011C39"></path><path d="M67.1003 39.3085C66.6479 38.3212 66.5751 37.2461 66.3462 36.21C66.22 35.6367 66.0853 35.2725 65.4125 35.4871C64.668 35.2075 64.5418 35.6952 64.4402 36.2783C64.283 37.1767 64.1332 38.0828 63.8818 38.9563C63.6037 39.9252 63.5556 39.9111 64.575 39.8883C65.1622 39.8753 65.2467 39.7334 64.9418 39.1774C64.8317 38.9758 64.7675 38.7796 64.9536 38.6539C65.1579 38.5163 65.4467 38.5369 65.6574 38.6279C65.8606 38.7157 65.8072 38.9433 65.7312 39.1492C65.4713 39.8428 65.5055 39.8851 66.2361 39.8883C66.3901 39.8883 66.5473 39.8721 66.6992 39.8916C67.2084 39.9545 67.2255 39.5838 67.0993 39.3085H67.1003ZM65.5333 37.9365C65.4189 37.9809 65.2734 37.9798 65.1483 37.9581C64.944 37.9224 65.0274 37.7685 65.0541 37.646C65.1183 37.3447 65.1846 37.0434 65.2937 36.5449C65.4189 37.0489 65.4938 37.348 65.5665 37.6482C65.5911 37.749 65.6702 37.8823 65.5333 37.9365Z" fill="#011C39"></path><path d="M46.1283 39.2782C45.6737 38.2919 45.5935 37.2168 45.3796 36.1797C45.2523 35.5619 45.0362 35.3116 44.4212 35.4839C43.7431 35.266 43.5719 35.6486 43.4735 36.2436C43.312 37.2277 43.1805 38.2248 42.8189 39.1622C42.7269 39.3996 42.5986 39.7204 42.8072 39.8168C43.1805 39.9902 43.6511 39.9783 44.0233 39.8233C44.2126 39.7442 44.1998 39.3736 43.9634 39.1481C43.8222 39.0127 43.8094 38.7992 43.9645 38.6756C44.1677 38.513 44.4383 38.5661 44.6651 38.6203C44.8812 38.6724 44.8491 38.8956 44.8063 39.0658C44.5977 39.8916 44.5945 39.8905 45.4374 39.8894C45.5261 39.8894 45.6149 39.8797 45.7015 39.8905C46.2353 39.962 46.2759 39.6011 46.1273 39.2782H46.1283ZM44.5432 37.9506C44.4308 37.995 44.2779 37.9874 44.1602 37.9495C43.9763 37.8899 44.08 37.7327 44.1014 37.6178C44.157 37.322 44.2244 37.0293 44.3228 36.5644C44.4405 37.0272 44.5143 37.3209 44.5902 37.6135C44.6223 37.736 44.7068 37.8866 44.5432 37.9516V37.9506Z" fill="#011C39"></path><path d="M41.1536 35.4536C40.7782 35.4514 40.4027 35.4514 40.0284 35.4536C39.4208 35.4579 39.347 35.627 39.5096 36.2122C39.7856 37.2039 39.7759 38.2183 39.5085 39.2121C39.3866 39.664 39.3727 39.9577 39.9621 39.8927C40.115 39.8754 40.2712 39.8927 40.4252 39.8895C40.9996 39.8808 41.0916 39.7247 40.8466 39.1731C40.5675 38.5456 40.6327 38.4339 41.283 38.4209C42.4126 38.3971 42.7003 38.1077 42.7003 36.9969C42.7003 35.8058 42.3537 35.459 41.1547 35.4525L41.1536 35.4536ZM41.0723 37.6092C40.4188 37.5853 40.7792 37.0933 40.7119 36.8148C40.6391 36.5189 40.7204 36.2696 41.1044 36.3423C41.5847 36.3184 41.651 36.636 41.6595 37.0001C41.6681 37.4022 41.5119 37.6244 41.0734 37.6092H41.0723Z" fill="#011C39"></path><path d="M32.9154 13.5949C32.3025 13.778 31.6821 13.9449 31.0853 14.1758C29.959 14.6115 28.8273 14.6743 27.7299 14.1747C26.0078 13.3911 24.3285 13.4074 22.6118 14.1888C21.924 14.502 21.1549 14.6613 20.4073 14.4717C19.1943 14.1639 18.0006 13.7748 16.7995 13.4204C16.7438 13.3684 16.6968 13.3749 16.6593 13.4421C16.0967 13.6068 15.5084 13.7119 14.9768 13.9482C13.3638 14.6667 11.7819 14.6451 10.1775 13.9298C8.98698 13.3998 7.77831 13.4258 6.57713 13.9319C6.33325 14.0349 6.07548 14.0999 5.82839 14.1953C4.72883 14.6212 3.63675 14.6093 2.5329 14.1931C1.93606 13.9677 1.32103 13.7878 0.709206 13.6046C0.378695 13.506 0.231087 13.5364 0.237505 14.0035C0.25034 15.1067 0.568017 15.8654 1.79059 15.9608C2.02484 15.9792 2.2548 16.0973 2.47942 16.1873C3.61963 16.649 4.77268 16.6869 5.89257 16.1797C7.56545 15.421 9.20304 15.4189 10.877 16.1764C11.9947 16.6815 13.1424 16.6392 14.2923 16.1981C14.9683 15.9391 15.6411 15.6454 16.3802 15.6009C16.5107 15.4709 16.4069 15.2953 16.4818 15.0959C16.4219 15.3365 16.5042 15.537 16.4016 15.7169C16.3074 16.2219 16.2122 16.7259 16.1203 17.2309C16.0839 17.4271 16.0807 17.6276 15.8379 17.7121C14.0334 18.3375 12.2547 18.9986 10.3347 18.0275C9.06292 17.3838 7.71734 17.4444 6.41775 18.0232C4.93847 18.6821 3.47738 18.7114 1.99168 18.0416C1.65368 17.8888 1.28894 17.6981 0.861092 17.7761C1.00121 18.3581 1.13171 18.9 1.26113 19.4408C1.31354 19.6608 1.3852 19.8353 1.63443 19.936C3.08697 20.5256 4.54058 20.8724 6.0605 20.1658C7.61573 19.4429 9.17202 19.4646 10.7358 20.1636C11.9487 20.7055 13.1735 20.6936 14.4078 20.1929C14.7191 20.0672 15.1426 19.7453 15.3651 19.9696C15.578 20.1842 15.225 20.6102 15.1779 20.9548C15.056 21.8478 14.5255 22.2575 13.673 22.4537C12.7007 22.678 11.7648 22.6314 10.8823 22.2358C9.20304 21.4826 7.5708 21.4804 5.8915 22.2391C4.82295 22.7214 3.70307 22.7127 2.59387 22.2911C2.46873 22.2434 2.32968 22.0993 2.12645 22.2673C2.33502 22.8113 2.57248 23.3608 2.75538 23.9287C2.90192 24.3839 3.21104 24.5204 3.63782 24.5822C4.62187 24.7231 5.52462 24.4359 6.40813 24.0739C7.72269 23.5342 9.01906 23.5158 10.3358 24.0652C11.4524 24.5313 12.598 24.8391 13.8912 24.3969C13.5393 25.1794 13.2312 25.8632 12.9221 26.5471C12.3392 27.1377 12.0386 27.9159 11.5915 28.5965C11.4835 29.25 10.9583 29.6651 10.6812 30.2222C10.1967 30.7099 9.68437 31.1748 9.42659 31.8413C9.18699 32.16 8.97093 32.5013 8.70032 32.7907C8.46179 33.0454 8.50351 33.2069 8.71957 33.4475C10.939 35.9055 13.4323 38.0199 16.2893 39.6889C16.6379 39.8927 16.9107 39.8884 17.2594 39.6879C19.8746 38.1858 22.1764 36.2881 24.2579 34.1053C24.8797 33.4529 24.8893 32.7871 24.2868 32.1079C24.2729 32.0928 24.2472 32.0873 24.228 32.0787C23.876 31.3894 23.5958 30.6459 22.8834 30.2222C22.5861 29.7616 22.3037 29.2901 21.985 28.8447C21.8769 28.694 21.862 28.5954 21.9689 28.4632C21.4951 27.8433 21.2469 27.064 20.6447 26.5352C20.3399 25.8556 20.0351 25.1761 19.6917 24.4099C20.7945 24.7567 21.8074 24.6656 22.754 24.2408C24.3895 23.5049 25.9853 23.5038 27.6176 24.2365C28.393 24.5844 29.2273 24.7209 30.082 24.5584C30.3151 24.5139 30.5868 24.502 30.6959 24.2311C30.9644 23.5645 31.2211 22.8937 31.557 22.0321C29.8969 22.8883 28.4273 22.6119 26.979 22.0039C25.7703 21.4978 24.5756 21.5108 23.3712 22.0093C23.0246 22.1524 22.6599 22.2499 22.3069 22.3778C21.1517 22.7961 20.0457 22.5328 18.9398 22.1567C18.7729 22.1003 18.7462 21.9931 18.7087 21.8771C18.4991 21.2322 18.3001 20.5831 18.0541 19.7995C18.5547 19.9761 18.9259 20.0964 19.2885 20.2373C20.4105 20.673 21.5518 20.7294 22.6492 20.2363C24.3467 19.4722 26.0024 19.444 27.701 20.2287C29.1728 20.9082 30.5975 20.4779 31.9977 19.909C32.1634 19.8418 32.2501 19.7388 32.2886 19.5806C32.4341 18.9812 32.5742 18.3808 32.7475 17.6547C32.1463 17.8552 31.6447 17.9939 31.1644 18.1879C29.9996 18.6572 28.8241 18.7146 27.6796 18.1988C26.0024 17.4423 24.3659 17.4455 22.6877 18.2009C21.5689 18.7049 20.4116 18.6637 19.266 18.2096C18.8146 18.0308 18.3536 17.8671 17.8851 17.7468C17.6263 17.6807 17.5033 17.5582 17.4648 17.3111C17.376 16.7411 17.2861 16.171 17.1974 15.6009C17.668 15.6042 18.1162 15.7451 18.5312 15.9347C20.1816 16.6934 21.8085 16.675 23.461 15.9293C24.6077 15.4113 25.7917 15.4265 26.9384 15.9358C28.5663 16.6587 30.1322 16.5698 31.8212 15.9976C32.8993 15.6324 33.3839 15.1425 33.325 14.0468C33.324 14.0251 33.3293 14.0024 33.3347 13.9807C33.4374 13.583 33.2427 13.4963 32.9154 13.5949ZM17.1161 15.2932C17.1107 15.3647 17.1129 15.447 17.1492 15.5294C17.1054 15.4481 17.1064 15.3647 17.1161 15.2932ZM20.7592 32.5013C20.7592 34.6104 19.0018 36.3553 16.8882 36.3444C14.7629 36.3336 13.0472 34.5985 13.0579 32.471C13.0686 30.3446 14.8068 28.6518 16.9524 28.68C19.0692 28.707 20.7592 30.4042 20.7592 32.5024V32.5013Z" fill="#011C39"></path><path d="M16.9684 13.8571C17.0572 14.0793 17.085 14.2907 16.992 14.5258C16.8369 14.2852 16.9513 14.0641 16.9684 13.8571Z" fill="#011C39"></path><path d="M16.5588 13.9904C16.6775 14.1909 16.6689 14.4012 16.6101 14.6396C16.4176 14.4207 16.5748 14.2007 16.5588 13.9904Z" fill="#011C39"></path><path d="M17.1973 15.5955C16.9545 15.3896 17.0647 15.1458 17.161 14.9062C17.1706 15.1382 17.1813 15.369 17.1909 15.601L17.1973 15.5966V15.5955Z" fill="#011C39"></path><path d="M32.9818 1.50428C32.9283 1.13579 32.8341 0.968892 32.4181 0.969976C22.0021 0.980814 11.5873 0.980814 1.17133 0.969976C0.776641 0.969976 0.644009 1.09678 0.587319 1.48369C0.0995733 4.78378 -0.0865401 8.09905 0.0375356 11.436C0.0578583 11.9811 0.225788 12.0863 0.72423 12.0841C6.05306 12.0668 11.383 12.0733 16.7129 12.0733C22.1091 12.0733 27.5042 12.0657 32.9005 12.0863C33.4021 12.0884 33.5101 11.9443 33.5326 11.4566C33.6898 8.11856 33.4652 4.80546 32.9828 1.50428H32.9818ZM5.87016 10.2233C3.75339 10.2178 2.05163 8.52823 2.04521 6.42462C2.03879 4.29825 3.77157 2.56963 5.90225 2.57722C7.99763 2.5848 9.72934 4.30584 9.7379 6.38994C9.74645 8.51197 8.01474 10.2287 5.87016 10.2233ZM16.7974 10.2233C14.6539 10.2265 12.9275 8.50872 12.9393 6.38344C12.95 4.29825 14.6806 2.58263 16.7792 2.57722C18.9077 2.5718 20.6416 4.30692 20.632 6.43112C20.6223 8.5304 18.9152 10.22 16.7974 10.2233ZM27.7118 10.2233C25.5682 10.233 23.828 8.51739 23.8322 6.39969C23.8365 4.31776 25.5661 2.59022 27.6593 2.57722C29.7943 2.56421 31.5271 4.28416 31.5239 6.4127C31.5207 8.52173 29.8285 10.2124 27.7118 10.2222V10.2233Z" fill="#011C39"></path></g><defs><clipPath id="clip0_1290_1830"><rect width="116" height="40" fill="white"></rect></clipPath></defs></svg>