<svg xmlns="http://www.w3.org/2000/svg" width="324" height="45" viewBox="0 0 324 45" fill="none"><g clip-path="url(#clip0_15059_5774)"><path d="M6.93999 11.53C9.20999 9.81003 11.56 8.92003 14.28 9.04003C20.01 9.29003 23.19 12.22 23.44 17.97C23.65 22.83 23.52 27.7 23.53 32.57C23.53 33.9767 22.81 34.68 21.37 34.68C20.09 34.68 18.81 34.64 17.53 34.7C16.74 34.74 16.51 34.48 16.51 33.69C16.54 29.42 16.53 25.15 16.52 20.89C16.52 20.21 16.52 19.53 16.46 18.86C16.25 16.61 15.02 15.21 12.99 14.86C10.57 14.45 8.48999 15.41 7.53999 17.37C6.94999 18.59 6.87999 19.9 6.87999 21.23C6.87999 25.34 6.85999 29.45 6.89999 33.56C6.89999 34.43 6.70999 34.76 5.77999 34.72C4.18999 34.64 2.57999 34.67 0.98999 34.72C0.29999 34.74 -0.01001 34.57 -9.99402e-06 33.8C0.01999 26.02 0.01999 18.24 -9.99402e-06 10.46C-9.99402e-06 9.72003 0.23999 9.50003 0.95999 9.52003C2.47999 9.57003 3.99999 9.60003 5.50999 9.52003C6.57999 9.46003 7.08999 9.74003 6.88999 10.88C6.85999 11.03 6.90999 11.2 6.92999 11.57L6.93999 11.53Z" fill="#011C39"></path><path d="M138.11 11.5099C140.38 9.77985 142.74 8.91985 145.46 9.03985C151.07 9.26985 154.19 12.1399 154.58 17.7599C154.77 20.4599 154.66 23.1799 154.68 25.8899C154.69 28.4799 154.65 31.0699 154.7 33.6599C154.71 34.4399 154.5 34.7099 153.7 34.6899C152.1 34.6299 150.5 34.6199 148.91 34.6899C147.93 34.7399 147.62 34.4799 147.63 33.4499C147.69 28.7899 147.67 24.1199 147.65 19.4499C147.64 17.1799 146.68 15.6799 144.98 15.0599C142.87 14.2999 140.64 14.8099 139.29 16.4099C138.22 17.6799 138.06 19.2299 138.06 20.8099C138.05 24.9999 138.02 29.1799 138.08 33.3699C138.1 34.4299 137.82 34.7499 136.75 34.6899C135.24 34.5899 133.71 34.6299 132.2 34.6899C131.45 34.7199 131.15 34.5399 131.15 33.7099C131.18 25.9299 131.17 18.1599 131.15 10.3799C131.15 9.70985 131.34 9.45985 132.03 9.47985C133.59 9.51985 135.15 9.56985 136.7 9.46985C137.83 9.39985 138.22 9.77985 138.05 10.8599C138.03 11.0099 138.07 11.1699 138.1 11.5099H138.11Z" fill="#011C39"></path><path d="M68.77 12.2999C70.96 10.0799 73.58 9.29986 76.45 9.03986C77.11 8.97986 77.39 9.13986 77.37 9.84986C77.33 11.5199 77.33 13.1999 77.37 14.8699C77.39 15.5799 77.11 15.7299 76.47 15.7299C75.27 15.7299 74.07 15.9199 72.97 16.4399C70.16 17.7599 68.77 20.0099 68.77 23.1099C68.77 26.5799 68.73 30.0499 68.79 33.5199C68.81 34.5099 68.48 34.7299 67.57 34.6899C65.93 34.6199 64.29 34.6499 62.66 34.6899C62.03 34.6999 61.84 34.4899 61.84 33.8699C61.86 26.0099 61.86 18.1599 61.84 10.2999C61.84 9.65986 62.07 9.48986 62.67 9.49986C64.43 9.52986 66.19 9.52986 67.94 9.49986C68.55 9.49986 68.82 9.66986 68.78 10.3099C68.74 10.9699 68.78 11.6399 68.78 12.2999H68.77Z" fill="#011C39"></path><path d="M88.17 12.3099C90.37 10.0599 93 9.28994 95.87 9.02994C96.57 8.96994 96.78 9.18994 96.76 9.86994C96.73 11.5399 96.73 13.2199 96.76 14.8899C96.77 15.4999 96.6 15.7399 95.95 15.7199C95.36 15.6999 94.75 15.7999 94.17 15.9199C90.32 16.7099 88.21 19.2299 88.17 23.1399C88.14 26.5699 88.13 29.9999 88.19 33.4299C88.21 34.4299 87.93 34.7399 86.93 34.6899C85.38 34.6099 83.81 34.6399 82.26 34.6799C81.57 34.6999 81.27 34.5499 81.27 33.7699C81.3 25.9899 81.29 18.2199 81.27 10.4399C81.27 9.71994 81.46 9.45994 82.21 9.47994C83.89 9.52994 85.57 9.52994 87.24 9.47994C87.99 9.45994 88.24 9.71994 88.18 10.4399C88.13 11.0599 88.17 11.6799 88.17 12.2999V12.3099Z" fill="#011C39"></path><path d="M231.94 12.3001C234.1 10.0901 236.72 9.31011 239.59 9.04011C240.33 8.97011 240.57 9.19011 240.54 9.94011C240.49 11.5701 240.5 13.2101 240.54 14.8501C240.56 15.5101 240.37 15.7301 239.68 15.7501C237.59 15.8101 235.68 16.3501 234.09 17.8401C232.47 19.3501 231.96 21.2501 231.94 23.3501C231.92 26.7801 231.91 30.2101 231.95 33.6401C231.96 34.4901 231.7 34.7301 230.87 34.7001C229.23 34.6401 227.59 34.6601 225.96 34.7001C225.29 34.7201 225.06 34.5001 225.06 33.8201C225.08 26.0001 225.08 18.1801 225.06 10.3601C225.06 9.66011 225.31 9.49011 225.96 9.50011C227.64 9.54011 229.32 9.55011 230.99 9.50011C231.71 9.48011 232.01 9.68011 231.94 10.4301C231.88 11.0501 231.93 11.6801 231.93 12.3101L231.94 12.3001Z" fill="#011C39"></path><path d="M315.35 12.4899C317.23 10.1499 319.81 9.35993 322.61 9.03993C323.48 8.93993 323.83 9.12993 323.78 10.0899C323.7 11.5999 323.72 13.1199 323.78 14.6299C323.81 15.4299 323.62 15.7499 322.75 15.7499C321.3 15.7499 319.9 16.0699 318.62 16.8199C316.03 18.3399 315.13 20.7399 315.13 23.5899C315.13 26.8599 315.1 30.1299 315.15 33.3999C315.17 34.3499 314.97 34.7499 313.92 34.6899C312.33 34.5999 310.73 34.6499 309.13 34.6799C308.52 34.6899 308.29 34.4999 308.29 33.8599C308.31 25.9999 308.3 18.1499 308.29 10.2899C308.29 9.76993 308.38 9.46993 309 9.47993C310.8 9.50993 312.6 9.50993 314.39 9.47993C314.98 9.47993 315.16 9.70993 315.13 10.2599C315.1 10.9299 315.13 11.6099 315.13 12.2799C315.2 12.3499 315.27 12.4099 315.35 12.4799V12.4899Z" fill="#011C39"></path><path d="M47.39 6.77007C45.3 6.76007 43.83 5.34007 43.87 3.37007C43.91 1.45007 45.5 -0.0299307 47.49 0.0100693C49.49 0.0400693 51.04 1.56007 51.03 3.47007C51.01 5.39007 49.47 6.79007 47.39 6.78007V6.77007Z" fill="#011C39"></path><path d="M38.01 6.76997C35.93 6.76997 34.45 5.38997 34.44 3.42997C34.44 1.49997 35.94 0.0299688 37.95 -3.11853e-05C39.96 -0.0300312 41.48 1.41997 41.49 3.37997C41.51 5.38997 40.09 6.76997 38 6.76997H38.01Z" fill="#011C39"></path><path d="M270.48 10.4001C270.48 9.61009 270.16 9.48009 269.48 9.50009C268.08 9.54009 266.68 9.57009 265.29 9.50009C264.21 9.44009 263.36 9.49009 263.71 11.1401C258.51 7.57009 250.36 8.81009 246.53 13.1001C242.9 17.1701 242.31 23.8801 245.31 28.6001C246.75 30.8701 248.77 32.4901 251.29 33.3501C255.51 34.7901 259.65 34.7401 263.59 32.2501C263.76 35.5901 262.09 37.6501 258.95 38.1101C255.63 38.5901 252.6 37.8101 249.84 35.9801C249.17 35.5401 248.86 35.6001 248.46 36.2501C247.76 37.3601 247.02 38.4601 246.22 39.5001C245.68 40.1901 245.84 40.5201 246.52 40.9801C250.75 43.8201 255.46 44.5601 260.39 43.9701C266.49 43.2401 270.38 39.1201 270.47 33.2701C270.58 25.6501 270.49 18.0301 270.52 10.4201L270.48 10.4001ZM257.02 28.4701C252.96 28.4901 250.12 25.6901 250.13 21.6601C250.13 17.7601 253.02 14.8901 256.96 14.8601C260.82 14.8301 263.89 17.7701 263.95 21.5701C264.01 25.3801 260.93 28.4501 257.03 28.4701H257.02Z" fill="#011C39"></path><path d="M187.78 17.6002C186.33 12.6002 182.85 9.72017 177.65 9.04017C174.18 8.59017 170.99 9.23017 168.23 11.8202C168.2 11.4602 168.17 11.2702 168.17 11.0902C168.17 7.74017 168.14 4.39017 168.18 1.04017C168.18 0.250167 167.96 -0.00983268 167.17 0.0201673C165.65 0.0701673 164.13 0.100167 162.62 0.0201673C161.63 -0.0298327 161.34 0.250167 161.35 1.26017C161.39 8.95017 161.37 16.6502 161.37 24.3402C161.37 27.4502 161.39 30.5602 161.35 33.6702C161.35 34.4402 161.54 34.7402 162.35 34.7002C163.54 34.6402 164.75 34.6802 165.94 34.6802C167.333 34.6802 168.11 33.9602 168.27 32.5202C173.52 36.8602 181.33 35.5902 184.93 31.5902C188.6 27.5202 189.26 22.6902 187.79 17.6102L187.78 17.6002ZM174.76 29.1502C170.58 29.1502 167.87 26.3502 167.87 22.0702C167.87 17.8502 170.66 14.9902 174.77 14.9802C178.92 14.9802 181.68 17.7902 181.69 22.0402C181.69 26.1802 178.8 29.1602 174.76 29.1502Z" fill="#011C39"></path><path d="M302.29 17.7299C300.26 11.4699 293.4 7.84989 286.57 9.40989C282.29 10.3899 278.72 12.4699 277.06 16.6499C274.34 23.4699 276.3 32.5199 285.99 34.7999C291.81 36.1699 296.91 34.8799 300.93 30.2299C301.44 29.6399 301.5 29.3199 300.71 28.9199C299.5 28.3099 298.32 27.6299 297.19 26.8899C296.46 26.4099 296 26.4799 295.38 27.0899C292.19 30.2099 287.86 29.5099 285.15 28.0499C284.28 27.5799 283.69 26.8299 283.28 25.9399C282.9 25.1199 282.86 24.6899 284.04 24.7199C286.95 24.7999 289.87 24.7399 292.79 24.7399C295.71 24.7399 298.78 24.7399 301.78 24.7399C302.31 24.7399 302.82 24.8099 302.85 24.0099C302.93 21.8899 302.97 19.7799 302.3 17.7299H302.29ZM294.56 19.8799C292.81 19.8199 291.05 19.8599 289.3 19.8599C287.55 19.8599 285.79 19.8099 284.04 19.8799C283.09 19.9199 283.03 19.5299 283.33 18.8199C283.35 18.7799 283.36 18.7499 283.37 18.7099C284.21 16.4999 286.71 15.0799 289.72 15.0999C292.25 15.1199 294.55 16.6699 295.36 18.8199C295.7 19.6999 295.44 19.8999 294.56 19.8699V19.8799Z" fill="#011C39"></path><path d="M218.24 15.7702C215.43 10.6202 209.31 8.03024 203.25 9.43024C198.92 10.4302 195.34 12.5802 193.75 16.8502C191.09 24.0002 193.4 32.5802 202.73 34.8002C208.5 36.1702 213.57 34.9102 217.6 30.3402C218.16 29.7102 218.33 29.3202 217.39 28.8702C216.21 28.3002 215.08 27.6102 213.97 26.9002C213.28 26.4602 212.81 26.3902 212.15 27.0602C210.32 28.9402 208 29.5602 205.45 29.1802C203.16 28.8402 200.97 28.2102 199.95 25.7502C199.62 24.9602 199.76 24.7102 200.66 24.7202C203.62 24.7602 206.57 24.7402 209.53 24.7402C212.49 24.7402 215.52 24.7402 218.52 24.7402C218.96 24.7402 219.55 24.9302 219.59 24.1602C219.76 21.2702 219.67 18.4202 218.23 15.7802L218.24 15.7702ZM211.55 19.8702C209.76 19.8202 207.96 19.8502 206.17 19.8502C204.38 19.8502 202.66 19.8102 200.91 19.8702C200.02 19.9002 199.78 19.6502 200.1 18.7902C200.95 16.5302 203.47 15.0602 206.52 15.1002C209.1 15.1402 211.46 16.7702 212.18 18.9602C212.39 19.5902 212.35 19.8902 211.55 19.8702Z" fill="#011C39"></path><path d="M125.24 18.1199C123.47 11.9299 116.96 8.06991 110.28 9.25991C105.27 10.1499 101.15 12.4499 99.59 17.4999C97.19 25.2399 100.24 32.8099 108.89 34.8099C114.66 36.1499 119.72 34.8699 123.73 30.2599C124.31 29.5899 124.25 29.2699 123.47 28.8699C122.23 28.2299 121.02 27.5299 119.84 26.7799C119.22 26.3899 118.84 26.4499 118.33 26.9699C116.49 28.8199 114.21 29.5499 111.65 29.1899C109.32 28.8599 107.07 28.2699 106.03 25.7599C105.73 25.0399 105.75 24.6999 106.71 24.7199C109.7 24.7699 112.7 24.7399 115.7 24.7399C118.7 24.7399 121.69 24.7399 124.69 24.7399C125.19 24.7399 125.63 24.7699 125.67 24.0499C125.79 22.0499 125.8 20.0699 125.24 18.1199ZM117.33 19.8799C115.62 19.7899 113.9 19.8599 112.18 19.8599C110.38 19.8599 108.59 19.8199 106.79 19.8799C105.91 19.9099 105.84 19.5699 106.14 18.8999C106.21 18.7599 106.24 18.5899 106.31 18.4499C107.65 15.9299 109.91 15.0999 112.6 15.1099C115.02 15.1099 117.27 16.5999 118.12 18.6499C118.47 19.4899 118.47 19.9399 117.32 19.8799H117.33Z" fill="#011C39"></path><path d="M56.19 19.6899C55.05 14.1099 50.17 9.70989 44.45 9.11989C38.19 8.46989 32.51 11.5599 30.11 16.9299C26.22 25.6399 32.82 35.2499 42.68 35.2499C51.31 35.2499 57.84 27.7299 56.19 19.6899ZM42.64 29.2499C38.69 29.2399 35.72 26.1199 35.77 22.0599C35.82 18.0999 38.89 15.0299 42.75 15.0699C46.61 15.1099 49.59 18.2399 49.56 22.2199C49.52 26.2099 46.51 29.2699 42.64 29.2599V29.2499Z" fill="#011C39"></path></g><defs><clipPath id="clip0_15059_5774"><rect width="323.79" height="44.14" fill="white"></rect></clipPath></defs></svg>