<svg xmlns="http://www.w3.org/2000/svg" width="152" height="31" viewBox="0 0 152 31" fill="none"><g clip-path="url(#clip0_1290_1729)"><path d="M109.82 15.5104C109.196 17.2902 108.596 18.9614 108.034 20.6447C107.903 21.0351 107.741 21.1908 107.314 21.1832C105.945 21.1568 105.944 21.1755 105.478 19.9023C103.928 15.6683 102.378 11.4343 100.829 7.19923C100.602 6.57855 100.604 6.57745 101.261 6.57745C101.879 6.57745 102.499 6.61035 103.115 6.56758C103.562 6.53688 103.745 6.70466 103.882 7.12137C104.876 10.1656 105.897 13.201 106.91 16.2386C106.956 16.3767 107.006 16.5127 107.092 16.7573C107.486 15.6914 107.808 14.6978 108.222 13.7449C108.562 12.9575 108.543 12.2557 108.204 11.4628C107.591 10.0263 107.092 8.54038 106.519 7.08628C106.349 6.65312 106.46 6.53249 106.892 6.57307C107.144 6.59719 107.401 6.57745 107.655 6.57745C108.578 6.57745 109.2 7.01792 109.521 7.89886C109.645 8.23991 109.767 8.58205 109.927 9.02069C110.171 8.29255 110.409 7.65651 110.593 7.00513C110.685 6.68273 110.827 6.55771 111.16 6.57197C111.705 6.595 112.251 6.60267 112.795 6.56978C113.264 6.54126 113.251 6.73756 113.119 7.08189C112.517 8.6632 111.934 10.2511 111.326 11.8291C111.194 12.1723 111.189 12.4662 111.339 12.8117C111.864 14.0278 112.354 15.2593 112.87 16.5171C113.074 16.3647 113.075 16.1508 113.13 15.9776C114.056 13.0277 114.979 10.0778 115.884 7.12137C116.01 6.70795 116.188 6.52482 116.642 6.56539C117.165 6.61145 117.696 6.57526 118.223 6.57636C118.882 6.57636 118.888 6.57965 118.677 7.18497C118.01 9.10842 117.337 11.0286 116.67 12.952C115.782 15.5104 114.886 18.0666 114.023 20.6338C113.881 21.056 113.688 21.1897 113.251 21.1821C111.777 21.1568 111.772 21.1755 111.29 19.7861C110.807 18.3967 110.332 17.0051 109.817 15.5093L109.82 15.5104Z" fill="#011C39"></path><path d="M42.6376 16.0565C42.7773 15.846 42.7206 15.6398 42.7206 15.4457C42.7239 12.6889 42.7326 9.93199 42.7097 7.17621C42.7053 6.69261 42.8439 6.5336 43.3253 6.56869C43.9038 6.61036 44.4877 6.59172 45.0695 6.57417C45.4056 6.56431 45.5093 6.69919 45.5082 7.02598C45.5006 11.5528 45.5006 16.0807 45.5082 20.6075C45.5082 20.9485 45.3718 21.0538 45.052 21.0472C44.3622 21.0329 43.6702 21.0264 42.9804 21.0516C42.6442 21.0637 42.4586 20.9288 42.2829 20.6546C40.3488 17.6357 38.4027 14.6244 36.4587 11.612C36.4413 11.5846 36.4085 11.567 36.2819 11.4596C36.2819 11.7567 36.2819 11.9761 36.2819 12.1943C36.2819 14.8777 36.2688 17.5611 36.2961 20.2445C36.3016 20.7873 36.1346 20.943 35.615 20.9014C35.0551 20.8564 34.4886 20.8805 33.9254 20.8981C33.6012 20.9079 33.4779 20.7961 33.4779 20.4572C33.4866 15.9842 33.4866 11.5122 33.4779 7.03914C33.4779 6.67397 33.6034 6.56321 33.9527 6.57198C34.7342 6.59062 35.5157 6.59611 36.2961 6.56979C36.6345 6.55882 36.8157 6.68822 36.987 6.96566C38.8131 9.92321 40.6522 12.872 42.487 15.8241C42.5329 15.8975 42.5809 15.9688 42.6387 16.0565H42.6376Z" fill="#011C39"></path><path d="M99.0826 13.78C99.0826 15.971 99.0717 18.162 99.0924 20.352C99.0968 20.7928 98.9691 20.9277 98.5347 20.9003C97.9376 20.863 97.334 20.863 96.737 20.9025C96.2633 20.9332 96.1618 20.7467 96.1683 20.3059C96.1913 18.6632 96.1651 17.0194 96.1858 15.3767C96.1902 14.9917 96.0821 14.893 95.7023 14.8963C93.7758 14.9161 91.8493 14.9183 89.9229 14.8963C89.519 14.892 89.4535 15.029 89.4579 15.3931C89.4765 17.0358 89.4524 18.6796 89.4754 20.3224C89.4808 20.7424 89.3837 20.9233 88.9351 20.9025C88.2824 20.8718 87.6264 20.8827 86.9726 20.8981C86.6408 20.9057 86.5338 20.7763 86.5338 20.4463C86.5425 15.9732 86.5425 11.5001 86.536 7.02818C86.536 6.70249 86.6375 6.56541 86.9737 6.57418C87.646 6.59063 88.3195 6.59831 88.9907 6.57199C89.3924 6.55664 89.4765 6.72552 89.4732 7.09069C89.4579 8.64239 89.4797 10.1941 89.459 11.7458C89.4546 12.111 89.5638 12.1954 89.912 12.1921C91.857 12.1757 93.8009 12.1713 95.7459 12.1943C96.1356 12.1987 96.1869 12.0528 96.1836 11.7228C96.1694 10.1897 96.1902 8.65554 96.1672 7.12249C96.1607 6.6981 96.2731 6.54128 96.7141 6.5687C97.3297 6.60708 97.9507 6.60489 98.5663 6.57199C98.9789 6.55006 99.0946 6.68933 99.0913 7.09726C99.0739 9.32447 99.0826 11.5517 99.0837 13.7789L99.0826 13.78Z" fill="#011C39"></path><path d="M120.393 13.7087C120.393 11.5177 120.403 9.32666 120.385 7.13564C120.382 6.72112 120.472 6.56321 120.928 6.56759C123.454 6.59062 125.98 6.58404 128.507 6.57088C128.877 6.56869 129.036 6.6641 129.015 7.06107C128.987 7.60718 128.991 8.15658 129.01 8.70379C129.022 9.06238 128.887 9.17862 128.531 9.17533C126.968 9.16217 125.405 9.1852 123.842 9.16655C123.434 9.16107 123.261 9.24332 123.29 9.7006C123.332 10.3915 123.333 11.09 123.29 11.7809C123.26 12.2425 123.44 12.3105 123.841 12.3018C125.022 12.2776 126.204 12.3171 127.385 12.282C127.882 12.2667 128.019 12.4421 127.984 12.9104C127.948 13.4006 127.955 13.8973 127.984 14.3886C128.009 14.8075 127.839 14.9215 127.444 14.915C126.227 14.8952 125.009 14.9205 123.791 14.8996C123.428 14.893 123.278 14.9654 123.293 15.3701C123.324 16.1903 123.326 17.0139 123.293 17.8341C123.276 18.241 123.428 18.3134 123.792 18.3101C125.445 18.2925 127.1 18.3123 128.754 18.2947C129.145 18.2903 129.318 18.389 129.292 18.8156C129.259 19.3431 129.26 19.876 129.292 20.4035C129.32 20.8597 129.081 20.9003 128.723 20.8992C126.106 20.8915 123.488 20.8882 120.871 20.9046C120.47 20.9068 120.383 20.7577 120.385 20.3925C120.397 18.1653 120.392 15.9381 120.392 13.7098L120.393 13.7087Z" fill="#011C39"></path><path d="M25.7328 24.2274C25.0113 24.0672 24.2866 23.9225 23.5705 23.7427C21.5458 23.236 19.4851 22.9191 17.4124 22.7436C15.2283 22.5583 13.0377 22.4355 10.8373 22.5813C7.4144 22.8083 4.02971 23.2459 0.722517 24.1912C0.56971 24.235 0.40053 24.2252 0.23899 24.2405C0.194239 23.9631 0.447464 23.9269 0.595905 23.8359C2.70247 22.555 4.84723 21.3411 6.97672 20.0986C7.80625 19.615 8.64778 19.1501 9.47076 18.6533C9.78074 18.4658 10.0885 18.2706 10.452 18.1993C10.8253 18.1105 11.2149 18.0578 11.478 17.7267C11.5031 17.685 11.5358 17.6488 11.5719 17.617C11.8218 17.5293 12.0357 17.3933 12.182 17.1641C12.3752 16.9459 12.6219 16.8154 12.8904 16.7167C12.9701 16.6991 13.0486 16.7013 13.1272 16.7222C14.6488 17.6378 16.2194 18.468 17.7486 19.3705C19.5135 20.4123 21.2817 21.4475 23.0641 22.4596C23.254 22.5671 23.4483 22.6647 23.5967 22.8314C23.6884 22.9564 23.8183 23.0134 23.9689 23.031C24.5562 23.2667 25.0484 23.667 25.5952 23.9718C25.6815 24.0201 25.7852 24.0881 25.7317 24.2263L25.7328 24.2274Z" fill="#011C39"></path><path d="M78.4284 14.9939C78.4284 13.2229 78.4164 11.4519 78.4383 9.68087C78.4437 9.26855 78.3291 9.15231 77.9187 9.16437C76.9015 9.19507 75.8831 9.16218 74.8658 9.18082C74.4511 9.18849 74.2655 9.0569 74.2939 8.61387C74.3245 8.12259 74.3376 7.62473 74.2917 7.13674C74.2448 6.63779 74.4718 6.56651 74.8942 6.57089C76.7661 6.58734 78.6391 6.57747 80.511 6.57747C81.9834 6.57747 83.4558 6.58624 84.9282 6.57089C85.2961 6.56651 85.4587 6.6652 85.438 7.06327C85.4096 7.60938 85.4139 8.15878 85.438 8.70599C85.4543 9.07664 85.2993 9.18082 84.9566 9.17643C83.9208 9.16437 82.8839 9.19398 81.8492 9.16327C81.4431 9.15121 81.3307 9.2521 81.3329 9.6732C81.3514 13.1966 81.3351 16.7211 81.3525 20.2445C81.3547 20.7347 81.2467 20.9441 80.7184 20.9025C80.1399 20.8564 79.5549 20.8739 78.9742 20.9036C78.5594 20.9255 78.4099 20.8092 78.4175 20.3596C78.4448 18.5711 78.4284 16.7814 78.4284 14.9917V14.9939Z" fill="#011C39"></path><path d="M147.922 15.0148C147.922 16.7858 147.91 18.5568 147.93 20.3278C147.934 20.7522 147.813 20.9233 147.376 20.9014C146.778 20.8729 146.175 20.8619 145.578 20.9025C145.07 20.9376 144.981 20.7215 144.983 20.2642C144.999 16.7584 144.979 13.2536 145.005 9.74777C145.008 9.2521 144.876 9.14464 144.406 9.16218C143.408 9.20056 142.407 9.16218 141.408 9.17863C141.037 9.18411 140.882 9.06458 140.898 8.67529C140.922 8.12918 140.914 7.57978 140.898 7.03257C140.891 6.72223 140.967 6.5698 141.323 6.5709C144.74 6.58186 148.157 6.58186 151.574 6.572C151.925 6.572 152.005 6.71784 151.997 7.03367C151.979 7.59952 151.977 8.16646 151.999 8.73122C152.012 9.07007 151.881 9.17973 151.556 9.17644C150.484 9.16547 149.411 9.18521 148.339 9.16547C148.006 9.15889 147.911 9.24991 147.914 9.59096C147.932 11.3982 147.923 13.2065 147.922 15.0137V15.0148Z" fill="#011C39"></path><path d="M23.5728 21.9399C21.0515 20.4748 18.5269 19.0141 16.0099 17.5414C15.0363 16.9711 14.0016 16.5018 13.1033 15.8043C13.1229 15.6585 13.2222 15.5708 13.3292 15.4874C15.2382 14.3458 17.169 13.2416 19.0966 12.1318C19.2374 12.0506 19.3717 11.953 19.5463 11.964C21.0296 14.5235 22.5151 17.083 23.9952 19.6447C24.6948 20.8553 25.3857 22.0703 26.0821 23.2843C25.9348 23.4159 25.8463 23.2481 25.7328 23.2404C25.1249 22.8764 24.518 22.5134 23.9111 22.1493C23.8009 22.0758 23.6645 22.0451 23.5728 21.9399Z" fill="#011C39"></path><path d="M12.886 15.7945C12.6677 15.9447 12.4483 16.0938 12.23 16.2441C12.0575 16.4623 11.8021 16.5489 11.5696 16.6728C11.2389 16.9547 10.8471 17.1323 10.464 17.3264C9.46417 17.7201 8.59316 18.3506 7.66759 18.877C5.22921 20.2631 2.81703 21.6975 0.396122 23.1143C0.337182 23.1483 0.292431 23.2075 0.241132 23.2547C0.177826 23.281 0.0839581 23.349 0.056671 23.3282C-0.0732156 23.2284 0.0577625 23.1406 0.102513 23.0639C0.69628 22.021 1.29332 20.9814 1.89364 19.9418C3.44682 17.2518 5.00109 14.5641 6.55427 11.8741C8.48292 13.0354 10.4531 14.1243 12.3784 15.2911C12.5814 15.4139 12.8685 15.4742 12.886 15.7945Z" fill="#011C39"></path><path d="M12.886 15.1365C11.4223 14.1243 9.82986 13.3293 8.3116 12.4103C7.81498 12.1098 7.30962 11.8236 6.80317 11.5396C6.66783 11.4639 6.56086 11.3828 6.55322 11.215C8.66197 7.55673 10.7696 3.89735 12.8773 0.236877C13.1327 0.263196 13.1163 0.471551 13.136 0.643719C13.1578 0.843301 13.1458 1.04508 13.1458 1.24576C13.1458 5.48195 13.1458 9.71705 13.1469 13.9532C13.1469 14.189 13.1119 14.4292 13.2124 14.6551C13.2582 14.7428 13.304 14.8305 13.3259 14.9281C13.2517 15.0005 13.1774 15.0729 13.1032 15.1453C13.0301 15.142 12.958 15.1398 12.8849 15.1365H12.886Z" fill="#011C39"></path><path d="M13.327 14.9292C13.2528 14.9281 13.1775 14.926 13.1033 14.9249C13.0094 14.7735 13.0509 14.6046 13.0509 14.4434C13.0487 9.88156 13.0465 5.31967 13.0574 0.757782C13.0574 0.591098 12.9112 0.346554 13.1971 0.245667C15.3135 3.93246 17.4299 7.61926 19.5463 11.3071C18.4439 12.0704 17.2629 12.7031 16.095 13.3534C15.1673 13.871 14.3093 14.5114 13.327 14.9303V14.9292Z" fill="#011C39"></path><path d="M75.7063 26.7693C75.2195 27.9832 74.7295 29.1961 74.2481 30.4122C74.1499 30.6601 74.0735 30.8531 73.7297 30.8465C73.3935 30.8399 73.364 30.6206 73.2811 30.4056C72.827 29.2224 72.3718 28.0403 71.8119 26.8746C71.8119 28.0446 71.8163 29.2147 71.8076 30.3848C71.8065 30.5701 71.9276 30.8333 71.5401 30.8443C71.1756 30.8542 71.1843 30.6557 71.1854 30.398C71.1909 28.9735 71.1832 27.549 71.1941 26.1245C71.1952 25.9567 71.0653 25.6497 71.3906 25.6628C71.6875 25.676 72.0684 25.4424 72.254 25.96C72.696 27.1926 73.1894 28.4054 73.662 29.626C73.7013 29.7268 73.7493 29.8233 73.817 29.978C74.3605 28.6138 74.8823 27.3001 75.4084 25.9874C75.5219 25.7023 76.1648 25.4972 76.406 25.6628C76.5151 25.7385 76.4835 25.858 76.4835 25.9622C76.4846 27.4777 76.4769 28.9932 76.49 30.5098C76.4922 30.7895 76.3929 30.841 76.144 30.8432C75.8832 30.8454 75.8024 30.7609 75.8046 30.4978C75.8166 29.2608 75.81 28.0238 75.81 26.7868L75.7063 26.7693Z" fill="#011C39"></path><path d="M126.827 26.913C126.827 28.0918 126.821 29.2707 126.831 30.4495C126.834 30.7116 126.8 30.8629 126.485 30.841C126.274 30.8268 126.207 30.7599 126.208 30.5493C126.215 29.0152 126.21 27.481 126.21 25.9469C126.21 25.801 126.196 25.6113 126.413 25.6541C126.695 25.71 127.067 25.4347 127.244 25.9151C127.648 27.0062 128.083 28.0863 128.505 29.172C128.596 29.4088 128.687 29.6468 128.815 29.9824C129.099 29.2849 129.356 28.6588 129.608 28.0315C129.879 27.3571 130.177 26.6904 130.402 25.9995C130.564 25.5027 130.93 25.6508 131.242 25.6508C131.661 25.6508 131.471 25.9995 131.474 26.1848C131.491 27.5545 131.487 28.9241 131.479 30.2938C131.478 30.5329 131.617 30.8542 131.129 30.8432C130.625 30.8322 130.818 30.4857 130.814 30.2686C130.798 29.1215 130.807 27.9734 130.807 26.7858C130.584 26.9141 130.567 27.1268 130.499 27.2924C130.064 28.3539 129.639 29.4187 129.227 30.489C129.138 30.7204 129.043 30.8366 128.769 30.8432C128.484 30.8498 128.394 30.7017 128.314 30.4879C127.943 29.4999 127.569 28.5129 127.193 27.5271C127.112 27.3143 127.018 27.106 126.93 26.8954L126.824 26.9108L126.827 26.913Z" fill="#011C39"></path><path d="M85.6301 26.5543C85.6301 27.8834 85.6377 29.0623 85.6235 30.2411C85.6203 30.4846 85.7971 30.8509 85.2688 30.8432C84.7754 30.8355 84.9446 30.4945 84.9424 30.2686C84.9283 28.9186 84.9283 27.5698 84.9424 26.2199C84.9446 26.0302 84.7864 25.7078 85.0942 25.6672C85.3998 25.6266 85.7523 25.5082 86.0088 25.9128C86.7761 27.1257 87.5849 28.3133 88.3773 29.5119C88.4243 29.5821 88.4701 29.6534 88.5946 29.842C88.5946 28.5129 88.5935 27.3198 88.5946 26.1267C88.5946 25.8865 88.504 25.6211 88.9416 25.631C89.3902 25.6409 89.2625 25.9304 89.2636 26.1519C89.2702 27.5566 89.2735 28.9603 89.2571 30.3651C89.2549 30.5438 89.4263 30.8465 89.0814 30.8958C88.7867 30.9386 88.504 30.9561 88.2878 30.6107C87.4845 29.3342 86.643 28.0808 85.8145 26.8197C85.7862 26.7759 85.7545 26.7331 85.6312 26.5554L85.6301 26.5543Z" fill="#011C39"></path><path d="M143.049 26.4853C143.049 27.8944 143.051 29.1314 143.046 30.3695C143.046 30.5855 143.138 30.8344 142.733 30.8465C142.31 30.8597 142.372 30.6107 142.372 30.3618C142.372 28.9757 142.364 27.5885 142.382 26.2024C142.384 26.0214 142.208 25.6968 142.538 25.6639C142.848 25.6321 143.206 25.5115 143.458 25.9041C144.222 27.0994 145.014 28.2761 145.796 29.4582C145.855 29.5481 145.92 29.6326 146.064 29.8332C146.064 28.5074 146.06 27.3001 146.07 26.0927C146.071 25.926 145.945 25.665 146.289 25.6442C146.57 25.6266 146.756 25.6277 146.75 26.0258C146.724 27.4854 146.743 28.945 146.732 30.4046C146.731 30.5734 146.872 30.8597 146.574 30.8937C146.309 30.9244 146 31.0143 145.795 30.6831C145.392 30.035 144.964 29.4012 144.545 28.7629C144.078 28.0502 143.609 27.3385 143.049 26.4864V26.4853Z" fill="#011C39"></path><path d="M102.724 29.604C102.727 30.8201 102.689 30.8574 101.42 30.9276C99.7921 31.0164 98.6657 30.3157 98.2837 28.9778C97.8067 27.3044 98.9495 25.6639 100.68 25.5575C101.261 25.5213 101.843 25.5487 102.395 25.7768C102.593 25.858 102.753 25.9359 102.619 26.2122C102.504 26.4491 102.396 26.4688 102.158 26.3668C101.721 26.1793 101.248 26.1223 100.77 26.1727C99.6939 26.2868 98.9735 27.0423 98.9146 28.1082C98.8578 29.1358 99.5935 30.0701 100.618 30.2707C100.725 30.2916 100.833 30.3058 100.941 30.3223C101.865 30.4572 102.027 30.3223 102.029 29.4253C102.029 29.2246 102.042 29.0217 102.022 28.8232C101.994 28.5282 102.16 28.5151 102.387 28.5052C102.645 28.4931 102.749 28.571 102.728 28.8386C102.709 29.093 102.724 29.3496 102.724 29.6051V29.604Z" fill="#011C39"></path><path d="M65.465 27.6356C65.465 27.0884 65.4737 26.5412 65.4606 25.994C65.4552 25.7527 65.4988 25.6365 65.7815 25.6365C66.0719 25.6365 66.1461 25.733 66.1428 26.0126C66.1286 26.9974 66.1221 27.9832 66.1428 28.968C66.1646 29.9813 66.9134 30.5614 67.8979 30.3585C68.5463 30.2247 68.9272 29.7729 68.9359 29.082C68.9479 28.0973 68.9381 27.1114 68.9403 26.1267C68.9403 25.8832 68.8595 25.6244 69.2939 25.6332C69.7502 25.642 69.6061 25.9403 69.6083 26.1552C69.6192 27.1038 69.5723 28.0545 69.6225 29.0009C69.6978 30.3914 68.5845 31.0515 67.4428 30.9989C66.1428 30.9397 65.4694 30.1918 65.4661 28.8967C65.4661 28.4767 65.4661 28.0578 65.4661 27.6378L65.465 27.6356Z" fill="#011C39"></path><path d="M110.109 30.9397C109.686 30.9529 109.261 30.8147 108.86 30.5822C108.67 30.4715 108.542 30.3695 108.723 30.1195C108.862 29.9254 108.946 29.8409 109.182 29.9988C109.603 30.2818 110.079 30.3706 110.586 30.2839C110.922 30.2258 111.169 30.0559 111.245 29.7192C111.327 29.3639 111.192 29.0612 110.883 28.8748C110.48 28.6314 110.054 28.4263 109.648 28.1872C108.867 27.7267 108.605 27.2124 108.791 26.5456C108.951 25.9743 109.566 25.5806 110.333 25.5521C110.829 25.5334 111.304 25.6003 111.756 25.8306C111.953 25.9315 112.045 26.0181 111.908 26.232C111.802 26.3965 111.751 26.5939 111.472 26.4294C111.054 26.1837 110.587 26.1201 110.108 26.2079C109.777 26.2682 109.534 26.448 109.46 26.788C109.393 27.1027 109.579 27.3176 109.821 27.4657C110.238 27.7223 110.672 27.9482 111.093 28.1971C111.866 28.6533 112.112 29.161 111.932 29.9045C111.784 30.512 111.184 30.9112 110.371 30.9397C110.299 30.9419 110.226 30.9397 110.108 30.9397H110.109Z" fill="#011C39"></path><path d="M61.3195 28.2399C61.3195 27.5106 61.3403 26.7803 61.3108 26.0521C61.2966 25.7001 61.4178 25.6267 61.7408 25.6376C62.4481 25.6606 63.1565 25.6442 63.8638 25.6453C64.0723 25.6453 64.3026 25.5773 64.2927 25.9458C64.284 26.2846 64.0679 26.209 63.8845 26.2111C63.3759 26.2166 62.8673 26.2254 62.3597 26.2068C62.0814 26.1969 61.993 26.2824 61.9832 26.5741C61.9406 27.9021 61.9308 27.9021 63.2569 27.9054C63.3835 27.9054 63.5112 27.912 63.6378 27.9054C63.8354 27.8944 63.8867 28.0019 63.8834 28.1763C63.8802 28.3528 63.8736 28.502 63.6291 28.4965C63.1936 28.4855 62.7581 28.5063 62.3226 28.4899C62.0585 28.48 61.9952 28.5798 61.9832 28.8364C61.9188 30.2653 61.9122 30.2653 63.3082 30.2642C63.5625 30.2642 63.8168 30.2774 64.0701 30.2609C64.3069 30.2445 64.3833 30.3278 64.3801 30.568C64.3768 30.7983 64.2764 30.8366 64.0832 30.8355C63.2667 30.829 62.4492 30.8202 61.6328 30.8377C61.3501 30.8432 61.3086 30.7226 61.3119 30.4824C61.3228 29.7356 61.3163 28.9878 61.3163 28.2399H61.3195Z" fill="#011C39"></path><path d="M117.536 30.9419C116.344 30.9364 115.401 30.3234 115.01 29.3014C114.606 28.2497 114.858 27.0084 115.626 26.2638C116.391 25.5214 117.663 25.3152 118.668 25.7933C118.822 25.8668 119.156 25.8635 118.991 26.2188C118.854 26.5182 118.711 26.5094 118.413 26.3723C117.63 26.0126 116.853 26.0609 116.18 26.6585C115.583 27.1882 115.393 28.1971 115.701 29.0393C115.993 29.8376 116.637 30.285 117.543 30.3113C117.87 30.3212 118.197 30.2982 118.505 30.1721C118.699 30.092 118.841 30.0997 118.919 30.3399C118.994 30.5658 118.923 30.659 118.705 30.7357C118.323 30.8717 117.938 30.9507 117.534 30.943L117.536 30.9419Z" fill="#011C39"></path><path d="M40.8106 30.2839C41.114 30.2006 41.0769 30.4111 41.0867 30.5965C41.0976 30.8015 40.9874 30.8366 40.8171 30.8366C39.9821 30.8322 39.1472 30.8289 38.3111 30.8377C38.0982 30.8399 38.0218 30.7642 38.0218 30.5548C38.0262 29.0228 38.0273 27.4909 38.0208 25.9589C38.0208 25.7253 38.0993 25.6376 38.3362 25.6409C39.1352 25.6508 39.9341 25.6486 40.7331 25.6431C40.9361 25.642 41.0223 25.7067 41.0202 25.926C41.018 26.1355 40.9525 26.2199 40.7396 26.2177C40.1764 26.21 39.6132 26.2287 39.0511 26.21C38.7848 26.2013 38.7259 26.2956 38.7149 26.5511C38.656 27.9087 38.6484 27.9087 40.0051 27.9043C40.0782 27.9043 40.1502 27.9043 40.2234 27.9043C40.4231 27.9065 40.6185 27.8736 40.6207 28.1949C40.6228 28.4987 40.4646 28.5052 40.243 28.4998C39.8621 28.491 39.4801 28.5118 39.0991 28.4943C38.8339 28.4822 38.6964 28.5381 38.7149 28.8463C38.7433 29.3189 38.7357 29.7927 38.7433 30.2664C38.6789 30.3629 38.5359 30.3322 38.3875 30.5778C39.2541 30.4089 40.0662 30.8893 40.8095 30.2861L40.8106 30.2839Z" fill="#011C39"></path><path d="M43.9583 28.5447C43.9583 29.1829 43.9474 29.8222 43.9638 30.4594C43.9714 30.7357 43.8983 30.8399 43.6036 30.8443C43.2871 30.8487 43.2576 30.7072 43.2598 30.4484C43.2685 29.2081 43.2369 27.9668 43.2729 26.7276C43.286 26.2692 43.1244 26.1694 42.7239 26.2067C42.4172 26.2352 42.1072 26.2045 41.7983 26.2155C41.5909 26.2232 41.5112 26.1497 41.5112 25.9326C41.5112 25.7209 41.5811 25.6398 41.7917 25.6409C43.0087 25.6464 44.2247 25.6486 45.4417 25.6431C45.6643 25.6431 45.708 25.744 45.7091 25.9446C45.7091 26.1727 45.6032 26.2188 45.4089 26.2155C45.0455 26.2078 44.682 26.2309 44.3196 26.2078C44.0336 26.1903 43.9431 26.2868 43.9518 26.5741C43.9714 27.2299 43.9583 27.8867 43.9583 28.5436V28.5447Z" fill="#011C39"></path><path d="M147.716 25.6913C148.186 25.529 148.461 25.7122 148.688 26.1234C148.995 26.6794 149.362 27.2024 149.76 27.8286C150.151 27.2331 150.512 26.6837 150.872 26.1333C151.097 25.7911 151.44 25.6409 151.899 25.6825C151.414 26.4151 150.966 27.1366 150.47 27.822C150.177 28.2256 150.025 28.6313 150.064 29.1325C150.097 29.5678 150.057 30.0087 150.07 30.4462C150.078 30.7006 150.051 30.8498 149.73 30.8454C149.435 30.841 149.322 30.739 149.374 30.4627C149.666 28.877 148.987 27.606 148.096 26.3942C147.94 26.1826 147.756 25.971 147.716 25.6924V25.6913Z" fill="#011C39"></path><path d="M57.3748 28.2245C57.3748 27.4941 57.3814 26.7649 57.3716 26.0356C57.3683 25.79 57.3792 25.6343 57.7056 25.6343C58.0188 25.6343 58.0527 25.7648 58.0505 26.0225C58.0417 27.3 58.0592 28.5765 58.0374 29.854C58.0319 30.1973 58.1269 30.2927 58.4609 30.274C58.9859 30.2455 59.5142 30.2674 60.0403 30.2653C60.2269 30.2653 60.4048 30.2389 60.4015 30.5262C60.3993 30.7653 60.3088 30.841 60.0774 30.8377C59.2784 30.8289 58.4794 30.8245 57.6805 30.841C57.3879 30.8465 57.3661 30.7017 57.3683 30.4703C57.3781 29.7224 57.3716 28.9745 57.3727 28.2267L57.3748 28.2245Z" fill="#011C39"></path><path d="M13.1971 0.244548C13.0454 0.39588 13.1044 0.587786 13.1044 0.763244C13.1022 5.48304 13.1033 10.2039 13.1044 14.9237C12.909 14.7461 12.9974 14.5125 12.9974 14.3042C12.9919 9.82122 12.9941 5.33829 12.9887 0.855359C12.9887 0.647003 13.0738 0.413426 12.8784 0.236872C12.8773 0.117342 12.9505 -0.00328506 13.04 4.76554e-06C13.1218 0.00219798 13.1928 0.129404 13.1971 0.244548Z" fill="#011C39"></path><path d="M40.8106 30.2839C40.8422 30.5756 40.7473 30.7214 40.4209 30.7094C39.861 30.6885 39.3 30.7094 38.74 30.6973C38.5512 30.6929 38.2521 30.8125 38.262 30.4473C38.2729 30.0415 38.5676 30.2872 38.7444 30.2642C39.4331 30.2707 40.1218 30.2773 40.8106 30.2839Z" fill="#011C39"></path><path d="M138.724 13.8754C137.569 13.0178 136.294 12.3588 135.067 11.6186C134.795 11.5056 134.556 11.3499 134.389 11.0999C134.26 11.0363 134.167 10.9496 134.18 10.7906C134.016 10.5154 134.007 10.2412 134.18 9.96599C134.542 9.27842 135.186 9.13915 135.869 9.1238C136.832 9.10296 137.795 9.09638 138.757 9.12599C139.203 9.14024 139.331 8.97795 139.307 8.55356C139.278 8.02609 139.282 7.49424 139.307 6.96677C139.325 6.59063 139.205 6.45136 138.815 6.45904C137.69 6.48097 136.562 6.46123 135.437 6.4711C134.834 6.47658 134.244 6.57309 133.684 6.80776C132.274 7.40212 131.283 8.3463 131.074 9.95283C130.883 11.4223 131.528 12.4805 132.661 13.3183C133.261 13.7624 133.9 14.1419 134.536 14.5268C135.343 15.0148 136.207 15.4117 136.952 15.9962C137.853 16.7046 137.671 17.81 136.601 18.2191C136.206 18.3704 135.791 18.4121 135.372 18.4121C134.173 18.4121 132.974 18.4208 131.775 18.4066C131.444 18.4022 131.321 18.5119 131.332 18.8474C131.351 19.4495 131.339 20.0515 131.337 20.6535C131.337 20.8718 131.357 21.0669 131.644 21.0593C133.439 21.0066 135.246 21.2172 137.029 20.9233C138.192 20.7314 139.205 20.2094 139.85 19.1545C140.921 17.401 140.434 15.1453 138.723 13.8743L138.724 13.8754Z" fill="#011C39"></path><path d="M54.7389 6.32525C50.2234 6.32525 47.2273 9.24771 47.2273 13.655C47.2273 18.105 50.2605 21.1755 54.6548 21.1711C59.0011 21.1667 62.0278 18.1039 62.0256 13.7131C62.0234 9.33106 59.059 6.32525 54.7389 6.32416V6.32525ZM55.8282 18.6511C53.0918 19.3551 50.4723 17.5611 50.0946 14.6913C49.8338 12.7108 50.2583 10.9255 51.8726 9.62275C54.5632 7.45037 58.5318 9.08871 59.1321 12.5946C59.1965 12.9707 59.226 13.3534 59.2707 13.7339C59.2413 16.1202 57.842 18.1335 55.8282 18.6511Z" fill="#011C39"></path><path d="M74.1815 20.2631C73.077 18.4647 71.9647 16.6706 70.8547 14.8755C70.8994 14.8448 70.9256 14.8174 70.9584 14.8042C71.0763 14.756 71.1941 14.7121 71.3131 14.6682C72.445 14.2537 73.1184 13.4181 73.4262 12.2787C73.6129 11.589 73.6533 10.8838 73.5747 10.1645C73.3553 8.15109 72.2452 6.90973 70.2347 6.67286C68.2471 6.43819 66.241 6.61474 64.2436 6.57965C63.9118 6.57417 63.9194 6.7891 63.9194 7.02049C63.9216 8.00634 63.9194 8.99219 63.9194 9.97804C63.9194 13.4104 63.9303 16.8428 63.9074 20.2741C63.9041 20.7917 64.0558 20.943 64.5546 20.9035C65.1146 20.8597 65.6843 20.8531 66.2432 20.9024C66.7573 20.9474 66.8446 20.739 66.8359 20.2785C66.8097 18.7641 66.8238 17.2485 66.8315 15.733C66.8315 15.5729 66.7311 15.301 66.9963 15.2889C67.4209 15.2692 67.8477 15.1518 68.1609 15.6958C69.0974 17.3187 70.1125 18.8957 71.0795 20.5011C71.2498 20.7829 71.4343 20.9123 71.7704 20.9013C72.4603 20.8783 73.1512 20.9003 73.8421 20.8926C74.0331 20.8904 74.2907 20.9913 74.3955 20.7917C74.4981 20.5976 74.2809 20.4265 74.1804 20.2642L74.1815 20.2631ZM69.8069 12.7492C68.8333 13.1363 67.8062 12.974 66.7976 12.9904C66.587 12.9937 66.5553 12.8193 66.5564 12.6373C66.5597 11.5078 66.563 10.3794 66.5532 9.24989C66.551 8.95052 66.7016 8.87485 66.9581 8.87924C67.303 8.88582 67.6468 8.88034 67.9917 8.88034C68.4982 8.88582 69.0035 8.86279 69.5045 8.9878C70.3821 9.20603 70.8088 9.7006 70.8973 10.6349C70.9922 11.6471 70.6026 12.4312 69.808 12.747L69.8069 12.7492Z" fill="#011C39"></path><path d="M10.464 16.6684C10.7958 16.3877 11.1189 16.0905 11.5697 16.0138C11.514 16.766 10.834 16.4535 10.464 16.6684Z" fill="#011C39"></path><path d="M11.5697 16.0149C11.7214 15.7648 11.9997 15.7133 12.2301 15.5861C12.1285 15.9129 11.9081 16.0554 11.5697 16.0149Z" fill="#011C39"></path><path d="M23.5728 21.2819C23.7299 21.2786 23.8293 21.3707 23.9111 21.4913C23.7463 21.5056 23.5957 21.499 23.5728 21.2819Z" fill="#011C39"></path><path d="M122.397 25.552C120.761 25.5444 119.676 26.5993 119.664 28.2102C119.652 29.8113 120.721 30.9309 122.275 30.9419C123.836 30.9528 124.942 29.8617 124.97 28.2782C124.999 26.7408 123.882 25.5586 122.396 25.552H122.397ZM122.323 30.3552C121.289 30.3651 120.412 29.4121 120.397 28.2596C120.382 27.1301 121.253 26.1464 122.291 26.1212C123.306 26.096 124.205 27.0818 124.21 28.2289C124.214 29.3869 123.364 30.3464 122.323 30.3563V30.3552Z" fill="#011C39"></path><path d="M53.4324 25.5521C51.8814 25.5576 50.7932 26.6882 50.8129 28.275C50.8325 29.8607 51.9327 30.954 53.4968 30.9408C55.0598 30.9288 56.1066 29.831 56.1011 28.2114C56.0957 26.6114 55.0271 25.5466 53.4324 25.5521ZM53.4903 30.3552C52.4621 30.375 51.5715 29.4165 51.5529 28.2684C51.5344 27.1422 52.413 26.1432 53.439 26.1212C54.4563 26.0993 55.36 27.0764 55.3764 28.2168C55.3927 29.3496 54.5228 30.3355 53.4892 30.3552H53.4903Z" fill="#011C39"></path><path d="M93.6143 25.7615C92.8131 25.5301 91.9902 25.6826 91.1781 25.6508C90.9009 25.6398 90.9969 25.8756 90.9958 26.0148C90.9871 26.7441 90.9915 27.4733 90.9915 28.2026C90.9915 28.968 91.0013 29.7334 90.986 30.4989C90.9805 30.7588 91.058 30.8476 91.3222 30.8388C91.8657 30.8213 92.4104 30.8421 92.955 30.8322C94.2615 30.8092 95.2024 29.9517 95.3748 28.6379C95.5582 27.2452 94.8782 26.1278 93.6143 25.7615ZM94.6959 28.3791C94.6021 29.5339 93.8424 30.2598 92.7215 30.2664C92.0171 30.2708 91.6649 29.9268 91.6649 29.2345C91.6649 28.889 91.6649 28.5425 91.6649 28.1971C91.6649 27.651 91.6758 27.1049 91.6605 26.5588C91.654 26.3043 91.7271 26.1925 91.9945 26.2089C92.3373 26.2298 92.6876 26.187 93.026 26.2364C94.0672 26.391 94.7822 27.3253 94.697 28.378L94.6959 28.3791Z" fill="#011C39"></path><path d="M49.4289 29.6589C49.1866 29.297 48.9432 28.9351 48.6933 28.5633C48.8057 28.5107 48.9028 28.4657 48.9989 28.4197C49.6974 28.0907 50.0172 27.4722 49.8742 26.7287C49.7444 26.051 49.2423 25.665 48.452 25.6475C47.962 25.6376 47.4719 25.6551 46.9829 25.6398C46.7111 25.631 46.602 25.7034 46.6042 26.0028C46.6183 27.4974 46.6151 28.991 46.6063 30.4857C46.6052 30.739 46.674 30.8355 46.9414 30.8421C47.235 30.8487 47.3191 30.7401 47.3093 30.4627C47.2929 30.0262 47.2929 29.5876 47.3125 29.1511C47.3202 28.9757 47.1859 28.7081 47.4544 28.6412C47.7338 28.571 47.9991 28.5886 48.1846 28.9219C48.4662 29.4297 48.8384 29.8859 49.12 30.3925C49.3667 30.8355 49.6887 30.9189 50.1635 30.7642C49.9081 30.3793 49.6701 30.0174 49.43 29.6567L49.4289 29.6589ZM47.3071 27.1049C47.3071 26.5061 47.6101 26.2089 48.2163 26.2133C48.8755 26.2177 49.1691 26.4633 49.1888 27.0292C49.2095 27.5961 48.8657 27.9865 48.2894 28.0545C47.3224 28.1686 47.306 28.1532 47.3071 27.1049Z" fill="#011C39"></path><path d="M107.783 29.8475C107.295 28.5162 106.803 27.1871 106.321 25.8537C106.24 25.6267 106.151 25.4501 105.871 25.494C105.689 25.5214 105.479 25.4183 105.376 25.7001C104.762 27.3889 104.133 29.0722 103.504 30.7697C103.991 30.92 104.262 30.8487 104.419 30.3289C104.733 29.2926 104.766 29.3025 105.842 29.3003C106.867 29.2981 106.9 29.2882 107.197 30.2861C107.344 30.7796 107.583 30.9309 108.116 30.7862C108 30.4605 107.893 30.1535 107.782 29.8475H107.783ZM106.435 28.7136C106.399 28.7136 106.363 28.7114 106.327 28.7147C105.398 28.7915 105.09 28.3963 105.401 27.5293C105.52 27.1981 105.646 26.8702 105.818 26.4063C106.102 27.1882 106.343 27.8429 106.576 28.4987C106.615 28.6094 106.596 28.7169 106.436 28.7136H106.435Z" fill="#011C39"></path><path d="M82.1821 25.7648C82.0784 25.4742 81.8776 25.5148 81.6647 25.4907C81.3908 25.4589 81.2904 25.6069 81.2063 25.8383C80.6562 27.3593 80.1105 28.8825 79.5276 30.3903C79.3453 30.863 79.5614 30.8509 79.9009 30.8388C80.2524 30.8268 80.2196 30.5296 80.2895 30.3322C80.6551 29.3047 80.6475 29.3014 81.7248 29.3014C82.7562 29.3014 82.7879 29.2904 83.0837 30.2796C83.2387 30.7983 83.4919 30.954 84.0114 30.7763C83.3991 29.1062 82.7791 27.4393 82.1799 25.7659L82.1821 25.7648ZM82.2312 28.7169C80.8243 28.8529 80.8145 28.8419 81.2947 27.5304C81.4159 27.1992 81.5381 26.868 81.7073 26.4085C81.9878 27.1784 82.229 27.8308 82.4626 28.4866C82.5423 28.7092 82.3862 28.7015 82.2301 28.7169H82.2312Z" fill="#011C39"></path><path d="M139.673 25.8811C139.582 25.6299 139.494 25.4874 139.19 25.483C138.884 25.4797 138.727 25.5817 138.65 25.8723C138.589 26.0993 138.494 26.3175 138.412 26.539C137.892 27.9493 137.373 29.3584 136.85 30.7785C137.324 30.8436 137.627 30.6875 137.76 30.3103C137.998 29.6384 138.461 29.3017 139.151 29.3003C140.194 29.2981 140.222 29.2893 140.54 30.3037C140.694 30.7928 140.934 30.9507 141.463 30.7675C140.855 29.116 140.254 27.5018 139.67 25.88L139.673 25.8811ZM138.33 28.6971C138.604 27.9372 138.866 27.2101 139.164 26.3866C139.469 27.2408 139.722 27.9525 139.987 28.6971H138.331H138.33Z" fill="#011C39"></path><path d="M136.54 26.7726C136.378 26.0225 135.902 25.6628 135.034 25.6475C134.544 25.6387 134.054 25.6628 133.565 25.6398C133.269 25.6255 133.198 25.7341 133.205 26.0137C133.222 26.7419 133.21 27.4711 133.21 28.2004C133.21 28.9472 133.214 29.6939 133.207 30.4407C133.205 30.6798 133.205 30.8509 133.538 30.8454C133.843 30.841 133.901 30.7226 133.889 30.4561C133.872 30.0931 133.905 29.7257 133.881 29.3639C133.857 29.0151 133.938 28.8638 134.329 28.9285C134.78 29.0031 135.23 28.957 135.655 28.7498C136.37 28.3999 136.724 27.6192 136.54 26.7737V26.7726ZM135.336 28.2047C134.93 28.4142 134.494 28.3484 134.064 28.3144C133.892 28.3002 133.882 28.1718 133.885 28.037C133.888 27.765 133.885 27.493 133.885 27.2211C133.885 26.1771 133.885 26.1848 134.903 26.21C135.374 26.2221 135.703 26.4063 135.822 26.88C135.963 27.4371 135.763 27.9843 135.336 28.2047Z" fill="#011C39"></path><path d="M35.5365 25.653C35.0104 25.6332 34.4821 25.6617 33.9571 25.6398C33.6722 25.6278 33.5795 25.7144 33.586 26.0061C33.6046 26.7353 33.5926 27.4657 33.5926 28.1949C33.5926 28.9428 33.5991 29.6907 33.5893 30.4386C33.586 30.6842 33.598 30.8432 33.9233 30.8443C34.2354 30.8443 34.2813 30.7149 34.2704 30.4561C34.2551 30.1107 34.2966 29.7598 34.2584 29.4176C34.2093 28.9757 34.3599 28.8902 34.7877 28.9274C36.0877 29.0404 36.8474 28.5096 36.9598 27.3286C37.0504 26.3756 36.485 25.6892 35.5365 25.6519V25.653ZM36.1292 27.7607C35.8967 28.2486 34.7768 28.5875 34.3522 28.3013C34.2387 28.2245 34.2682 28.1116 34.2671 28.0085C34.2638 27.6444 34.266 27.2803 34.266 26.9174C34.266 26.4466 34.5061 26.2119 34.9864 26.2133C36.044 26.2166 36.5439 26.8921 36.1292 27.7607Z" fill="#011C39"></path></g><defs><clipPath id="clip0_1290_1729"><rect width="152" height="31" fill="white"></rect></clipPath></defs></svg>