<svg xmlns="http://www.w3.org/2000/svg" width="89" height="35" viewBox="0 0 89 35" fill="none"><path d="M88.493 14.8752C87.7568 16.0861 87.3483 17.4436 86.8048 18.7407C85.4472 21.9764 84.13 25.2321 82.7868 28.4735C82.1052 30.1215 81.0439 30.7312 79.5944 30.4034C79.1687 30.3084 79.1025 30.1359 79.2377 29.7735C79.3441 29.4916 79.1572 28.9797 79.8014 29.1522C80.6384 29.3766 81.159 28.9394 81.5242 28.2405C81.5472 28.1945 81.5674 28.1485 81.5875 28.1025C82.2509 26.605 82.2701 25.0931 81.645 23.5668C80.5377 20.8604 79.4304 18.1511 78.3404 15.439C78.2455 15.2031 77.8658 14.927 78.2225 14.671C78.5618 14.4237 79.5282 14.7171 79.6663 15.0564C80.3623 16.7764 81.0497 18.4991 81.7371 20.2219C82.2174 21.427 82.6948 22.6321 83.178 23.8458C83.4656 23.6905 83.4857 23.3885 83.5835 23.1469C84.5902 20.6735 85.5853 18.1943 86.5862 15.7179C87.0895 14.4726 87.0981 14.4726 88.493 14.7199V14.8724V14.8752Z" fill="#011C39"></path><path d="M0.141852 34.5191C-0.0939888 34.4155 0.0354361 34.2113 0.0354361 34.0618C0.0268078 27.4323 0.0296839 20.8029 0.0296839 14.1735C0.110215 14.1447 0.173489 14.1648 0.219507 14.2396C0.35756 14.5071 0.328799 14.7976 0.328799 15.0794C0.328799 21.2487 0.328799 27.4179 0.328799 33.5872C0.328799 33.8345 0.346056 34.0819 0.265525 34.3235C0.233888 34.3925 0.193622 34.4587 0.144728 34.5162L0.141852 34.5191Z" fill="#011C39"></path><path d="M0.141846 34.5191V34.3925C0.834988 34.1394 1.52238 34.1078 2.20689 34.4127C2.19539 34.4472 2.19251 34.4817 2.20114 34.5162H0.141846V34.5191Z" fill="#011C39"></path><path d="M0.136148 14.1735H0.0268555V12.8016C0.0613688 12.8016 0.0958821 12.8016 0.130395 12.7958C0.412254 13.2531 0.403626 13.7133 0.136148 14.1735Z" fill="#011C39"></path><path d="M13.0469 0.0977877C13.0526 0.0661505 13.0555 0.0316372 13.0555 0H14.0852C14.0794 0.0345133 14.0794 0.0690266 14.0909 0.10354C13.74 0.353761 13.392 0.359514 13.0469 0.0977877Z" fill="#011C39"></path><path d="M13.0471 0.0979309L14.0911 0.103683C15.9951 0.155453 17.8128 0.552356 19.4982 1.47559C19.2768 1.68267 19.0294 1.5705 18.7964 1.51873C17.0622 1.12183 15.3624 1.25413 13.6856 1.81209C13.3434 1.94439 12.9896 2.05944 12.6675 2.24063C12.3511 2.4132 12.0405 2.59727 11.7385 2.79572C11.5429 2.90214 11.379 3.05457 11.1949 3.17824C11.0482 3.2674 10.9274 3.3882 10.8095 3.51187C10.6312 3.68731 10.4529 3.86563 10.2774 4.04395C10.1192 4.19351 9.96105 4.34882 9.80861 4.507C9.72233 4.59041 9.63892 4.6767 9.55839 4.76585C9.39445 4.94705 9.27366 5.16276 9.10684 5.34108C8.90264 5.57979 8.74445 5.84727 8.57189 6.10612C8.44246 6.29594 8.34467 6.50302 8.22963 6.6986C8.09445 7.02648 7.90175 7.32847 7.76945 7.65922C7.58826 7.90656 7.72343 8.10789 7.86436 8.3121C7.8845 8.61696 7.71481 8.85856 7.5825 9.10878C6.74843 10.6705 6.57299 12.3415 6.66503 14.0844C6.74843 15.6663 6.99865 17.1878 7.8241 18.5654C9.11835 20.7283 10.9159 22.1347 13.5389 22.126C15.2876 22.1203 16.7199 21.3236 17.9049 20.0639C20.5049 17.2999 21.0283 12.7212 19.3602 9.27559C19.2221 8.99086 18.9172 8.71187 19.1675 8.33798C19.4321 8.13953 19.7427 8.17404 20.0418 8.17404C21.6495 8.16829 23.2602 8.17404 24.8679 8.17404C25.2102 8.17404 25.5496 8.17117 25.8602 7.9986C26.5044 9.20081 26.8553 10.5066 26.9646 11.844C27.2378 15.1486 26.7029 18.2807 24.7385 21.059C22.4865 24.2457 19.4522 26.1814 15.5838 26.7595C12.7221 27.1851 9.98693 26.7595 7.40419 25.4364C7.26901 25.3674 7.13096 25.3013 6.9929 25.238C6.97852 25.2322 6.95551 25.2437 6.87786 25.2553C6.87786 26.6818 6.87786 28.1199 6.87786 29.555C6.87498 32.1608 4.7898 34.3265 2.19843 34.4214C1.51104 34.4157 0.82365 34.407 0.139136 34.4013C0.139136 27.6626 0.133384 20.921 0.130508 14.1822C0.130508 13.7221 0.127632 13.2648 0.124756 12.8046C0.320331 6.8424 5.02277 1.38355 10.8469 0.336648C11.5774 0.204347 12.3051 0.103683 13.0471 0.0979309Z" fill="#011C39"></path><path d="M9.5122 4.68521L9.73654 4.458C10.0069 4.28543 10.3089 4.27393 10.6166 4.27393C14.6691 4.27393 18.7244 4.27393 22.7768 4.27393C23.0069 4.27393 23.2341 4.28543 23.4498 4.36596L23.8093 4.78587C23.9244 5.05623 23.7259 5.1195 23.539 5.17127C23.3175 5.23167 23.0874 5.21729 22.8602 5.21729C20.5104 5.21729 18.1607 5.22592 15.8109 5.21154C15.6383 5.21154 15.4715 5.22592 15.3047 5.26906C14.9222 5.32083 14.5598 5.18853 14.1916 5.13388C13.4582 5.02459 12.7306 5.13388 12 5.19428C11.3443 5.04472 10.677 5.13388 10.0155 5.08211C9.79118 5.06486 9.43455 5.13101 9.5122 4.69096V4.68521Z" fill="#011C39"></path><path d="M23.4528 4.36307C23.2917 4.5155 23.0933 4.4551 22.9092 4.4551C18.5203 4.4551 14.1284 4.4551 9.7395 4.4551C9.85167 4.2624 10.0041 4.10997 10.1939 3.9978C10.4298 3.85399 10.6886 3.82811 10.9618 3.82811C14.7871 3.82811 18.6123 3.83961 22.4375 3.82236C22.6302 3.82236 22.8143 3.85112 22.9984 3.90576C23.1853 4.02368 23.3349 4.17899 23.4557 4.36307H23.4528Z" fill="#011C39"></path><path d="M24.2754 5.34094C24.4767 5.502 24.6061 5.71771 24.7154 5.94492C24.8103 6.10311 24.7298 6.19227 24.5946 6.26129C24.4738 6.32457 24.3415 6.3447 24.2063 6.3447C21.9055 6.3447 19.6046 6.39647 17.3066 6.32169C16.9614 6.28143 16.6911 6.08585 16.4236 5.89315C16.2913 5.79536 16.1417 5.6832 16.3028 5.4905C16.4523 5.34957 16.6393 5.31793 16.832 5.31793C19.3112 5.31793 21.7933 5.26616 24.2725 5.34381L24.2754 5.34094Z" fill="#011C39"></path><path d="M11.6807 2.73806C11.931 2.45621 12.256 2.3009 12.6011 2.17147C13.8292 2.03342 15.063 2.12545 16.294 2.10532C17.2978 2.09094 18.3044 2.10532 19.3082 2.09957C19.8172 2.09669 20.3234 2.11395 20.8239 2.18873C21.123 2.32966 21.3905 2.51373 21.6263 2.74382C21.4796 3.12922 21.1345 3.02855 20.8555 3.03143C18.94 3.04581 17.0274 3.04006 15.1119 3.03718C14.1829 3.03718 13.254 3.05156 12.325 3.02568C12.0863 3.01992 11.767 3.10045 11.6779 2.73231L11.6807 2.73806Z" fill="#011C39"></path><path d="M25.2187 6.72723C25.3654 6.89405 25.4747 7.07812 25.5264 7.29383C25.4919 7.62458 25.2158 7.59582 25.0116 7.59582C22.8488 7.59869 20.6888 7.66197 18.526 7.56706C18.1607 7.42325 17.8041 7.27082 18.0227 6.75887C18.2786 6.55467 18.5893 6.56042 18.8913 6.56042C20.7463 6.55467 22.6014 6.55754 24.4594 6.56042C24.7269 6.56042 24.9915 6.5748 25.2244 6.72723H25.2187Z" fill="#011C39"></path><path d="M11.6808 2.73807C11.8275 2.91639 12.0288 2.85599 12.2129 2.85599C15.1724 2.85886 18.1319 2.85886 21.0914 2.85599C21.2726 2.85599 21.4768 2.91926 21.6264 2.74957L22.0808 3.09758C22.0319 3.50311 21.7127 3.47723 21.4366 3.48298C20.7348 3.49736 20.033 3.48873 19.3284 3.48873C16.8405 3.48873 14.3556 3.49448 11.8677 3.48298C11.5658 3.48298 11.1919 3.56063 11.1113 3.09758C11.3098 2.99692 11.4191 2.75245 11.675 2.74094L11.6808 2.73807Z" fill="#011C39"></path><path d="M25.2187 6.72722C23.1277 6.73297 21.0368 6.7416 18.9459 6.73872C18.6007 6.73872 18.2642 6.76173 17.9364 6.87102C17.5481 6.78474 17.2231 6.62368 17.1541 6.17788C19.4895 6.17788 21.822 6.17788 24.1574 6.16638C24.3558 6.16638 24.6377 6.29292 24.7125 5.94492C24.9253 6.17788 25.0979 6.43385 25.2158 6.72722H25.2187Z" fill="#011C39"></path><path d="M22.9954 3.90574C22.8343 4.05817 22.6359 3.99777 22.4518 3.99777C18.3649 3.99777 14.2808 3.99777 10.1938 3.99777C10.3463 3.76769 10.5361 3.57211 10.7719 3.42543C11.6405 3.54047 12.5177 3.48295 13.3892 3.48583C16.0295 3.49446 18.6697 3.48583 21.31 3.49158C21.6897 3.49158 22.0693 3.48008 22.4432 3.40817C22.656 3.54335 22.8602 3.69291 22.9983 3.90862L22.9954 3.90574Z" fill="#011C39"></path><path d="M22.4403 3.40532C22.4087 3.67567 22.2073 3.65841 22.0146 3.65841C18.4109 3.65841 14.81 3.65841 11.2062 3.65841C11.0221 3.65841 10.8064 3.70443 10.769 3.42545C10.8496 3.27877 10.9589 3.16085 11.1171 3.0947C11.2292 3.33341 11.4449 3.31616 11.6578 3.31616C14.9538 3.31616 18.2469 3.31616 21.5429 3.31616C21.7529 3.31616 21.9715 3.33629 22.0837 3.09757C22.239 3.15797 22.3483 3.27301 22.4403 3.40819V3.40532Z" fill="#011C39"></path><path d="M24.2753 5.34093C24.1056 5.5739 23.8583 5.48186 23.6425 5.48186C21.4222 5.48761 19.2018 5.48474 16.9815 5.48474C16.737 5.48474 16.4868 5.45598 16.2624 5.5969C15.808 5.69469 15.4629 5.54226 15.2271 5.14248C15.4514 5.00155 15.7016 5.02744 15.949 5.02744C18.3678 5.02744 20.7866 5.03031 23.2054 5.02168C23.4211 5.02168 23.7288 5.16261 23.8094 4.78009C24.0452 4.89801 24.1114 5.15974 24.2753 5.33806V5.34093Z" fill="#011C39"></path><path d="M20.8268 2.1916C20.7031 2.31815 20.5449 2.28364 20.3954 2.28364C17.9564 2.28364 15.5204 2.28364 13.0814 2.28364C12.9146 2.28364 12.7334 2.33253 12.604 2.17147C12.86 1.91837 13.208 1.85222 13.5244 1.72567C15.6584 1.58474 17.7925 1.63939 19.9295 1.68828C20.3005 1.72855 20.5047 2.06793 20.8297 2.1916H20.8268Z" fill="#011C39"></path><path d="M19.9265 1.69117C19.8287 1.84648 19.6705 1.82922 19.521 1.82922C17.6256 1.82922 15.7303 1.82922 13.8349 1.82922C13.7199 1.82922 13.6077 1.82634 13.5243 1.72856C15.1982 1.06418 16.9152 0.969265 18.6696 1.32015C18.9458 1.3748 19.2075 1.51285 19.5037 1.47834C19.6619 1.5186 19.8115 1.57325 19.9294 1.69404L19.9265 1.69117Z" fill="#011C39"></path><path d="M18.4252 7.4319C20.5823 7.4319 22.7365 7.4319 24.8936 7.42615C25.1093 7.42615 25.3538 7.51531 25.5292 7.29672C25.6586 7.42327 25.7334 7.5757 25.7564 7.7569C25.719 8.08765 25.4429 8.05601 25.2387 8.05601C23.1305 8.06177 21.0223 8.11641 18.9141 8.03301C18.6064 7.95247 18.4051 7.78278 18.4252 7.4319Z" fill="#011C39"></path><path d="M18.7732 7.88629C20.8872 7.88629 23.0011 7.88629 25.1151 7.88342C25.3308 7.88342 25.5781 7.97257 25.7564 7.75687C25.8514 7.80864 25.86 7.8978 25.8657 7.99271C25.8859 8.42988 25.5695 8.34647 25.3164 8.34647C23.4757 8.34647 21.635 8.34647 19.7943 8.34647C19.5671 8.34647 19.337 8.31771 19.1328 8.45864C18.8509 8.37235 18.7071 8.19404 18.7704 7.88917L18.7732 7.88629Z" fill="#011C39"></path><path d="M10.7806 5.49049L9.67331 6.18939C9.26202 6.2843 8.82773 6.58917 8.48547 6.05996C8.64654 5.77235 8.77308 5.46173 9.05494 5.25753C9.64455 5.2374 10.26 5.01594 10.7806 5.49049Z" fill="#011C39"></path><path d="M10.7806 5.49049C10.4067 5.34669 10.0184 5.37832 9.63015 5.36969C9.43458 5.36394 9.21599 5.4416 9.05493 5.25753C9.21024 5.0677 9.28214 4.81173 9.51223 4.68518C9.564 4.99868 9.81422 4.90952 10.004 4.91239C10.6799 4.92965 11.3587 4.8635 12.026 5.02744L10.7806 5.49049Z" fill="#011C39"></path><path d="M8.48539 6.05711C8.85929 6.30445 9.28207 6.09737 9.67322 6.18653C9.38274 6.44826 9.09225 6.70711 8.80176 6.96883C8.27831 7.06374 8.20353 7.02348 8.14026 6.62658C8.2553 6.43675 8.29844 6.20379 8.48252 6.05423L8.48539 6.05711Z" fill="#011C39"></path><path d="M8.14321 6.62946C8.23237 6.99472 8.59764 6.83078 8.80472 6.97171C8.66379 7.30822 8.32153 7.47791 8.12883 7.77127C7.93901 7.9007 7.80383 7.81154 7.68591 7.6591C7.68879 7.25069 8.01379 6.98322 8.14321 6.62946Z" fill="#011C39"></path><path d="M7.68594 7.6591L8.12887 7.77126C8.10298 7.96972 7.9678 8.10202 7.84701 8.24295C7.2459 8.1998 7.47024 7.92657 7.68594 7.65622V7.6591Z" fill="#011C39"></path><path d="M51.305 16.5002C50.6838 12.5686 47.7732 9.56306 44.2212 9.18916C39.1592 8.65708 34.9687 12.5024 34.9659 17.8175C34.917 18.2748 35.0205 18.8558 35.124 19.4339C35.9725 24.1967 40.6174 27.254 45.1962 26.069C49.2313 25.0221 51.9752 20.7281 51.305 16.5002ZM42.9586 24.9934C39.3433 24.9244 36.4327 21.798 36.309 17.8462C36.1767 13.673 39.6309 10.1757 43.6143 10.4489C47.2181 10.6962 50.0625 13.9204 50.0453 17.737C50.0252 21.844 46.8787 25.0653 42.9586 24.9905V24.9934Z" fill="#011C39"></path><path d="M64.9952 13.1323C64.3423 11.168 62.7605 10.2936 60.7875 10.121C58.5987 9.93123 56.3985 10.0894 54.2069 10.029C53.6806 10.0146 53.6403 10.239 53.6432 10.6618C53.6605 13.0604 53.6518 15.462 53.6518 17.8607C53.6518 20.2593 53.6777 22.7615 53.6346 25.212C53.6231 25.8419 53.9423 25.7728 54.3335 25.7642C54.7045 25.7556 55.0726 25.8764 55.0525 25.2206C54.9979 23.5899 55.0554 21.9534 55.0237 20.3197C55.0122 19.8078 55.1704 19.6812 55.6622 19.6927C57.1693 19.7244 58.6735 19.7129 60.1806 19.7014C61.5439 19.6899 62.8237 19.3706 63.839 18.41C65.4094 16.9259 65.6423 15.0708 64.9981 13.1295L64.9952 13.1323ZM60.9543 18.4186C59.1049 18.6803 57.2383 18.4733 55.3775 18.5308C54.9576 18.5452 55.0352 18.2518 55.0324 18.0102C55.0295 16.9662 55.0324 15.9193 55.0324 14.8724C55.0324 13.8255 55.0381 12.7815 55.0295 11.7374C55.0295 11.4498 55.0467 11.2571 55.4235 11.2657C57.2067 11.3003 58.9956 11.2312 60.7731 11.3491C62.7403 11.4786 63.8591 12.7872 63.9253 14.7976C63.9886 16.7764 62.9043 18.1396 60.9514 18.4157L60.9543 18.4186Z" fill="#011C39"></path><path d="M76.0797 15.5339C76.0797 15.0622 75.9992 14.8839 75.4671 14.8752C74.8804 14.8666 74.679 15.0421 74.7596 15.6058C74.7912 15.8272 74.7653 16.0573 74.7653 16.4111C72.2775 14.1677 69.5653 14.0757 67.3881 16.0573C65.1965 18.0505 64.8945 21.6168 66.7208 24.0644C67.5635 25.1947 68.6852 25.9166 70.0773 26.1496C71.895 26.4573 73.4078 25.8045 74.7682 24.4038C74.7682 24.8266 74.7998 25.0826 74.7624 25.327C74.6704 25.8965 74.9839 25.9253 75.4239 25.9253C75.8582 25.9253 76.0941 25.908 76.0883 25.3356C76.0538 22.0684 76.0624 18.7983 76.0826 15.531L76.0797 15.5339ZM69.6343 24.6943C67.6728 23.9839 66.4965 21.7635 66.8963 19.5345C67.2788 17.4062 69.0562 15.8905 71.1012 15.9509C73.2295 16.0113 75.0069 18.0706 74.9983 20.4549C74.9839 23.4863 72.2516 25.6463 69.6372 24.6972L69.6343 24.6943Z" fill="#011C39"></path></svg>