<svg xmlns="http://www.w3.org/2000/svg" width="112" height="34" viewBox="0 0 112 34" fill="none"><g clip-path="url(#clip0_1290_1774)"><path d="M17.6519 34H16.8015C16.7859 33.9674 16.7918 33.9405 16.823 33.9193C17.0921 33.8463 17.3613 33.8463 17.6285 33.9193C17.6597 33.9405 17.6675 33.9674 17.6499 34H17.6519Z" fill="#011C39"></path><path d="M106.309 33.9539C106.506 33.9539 106.705 33.9539 106.902 33.9558C106.914 33.9674 106.918 33.977 106.912 33.9866C106.906 33.9943 106.902 34 106.896 34H106.311C106.296 33.9904 106.288 33.9808 106.294 33.9712C106.299 33.9597 106.303 33.9558 106.309 33.9558V33.9539Z" fill="#011C39"></path><path d="M16.2164 34V33.9462C16.3276 33.854 16.4466 33.8675 16.5694 33.9213C16.5987 33.9424 16.6045 33.9693 16.5889 34H16.2164Z" fill="#011C39"></path><path d="M105.888 33.9462L106.149 33.9558C106.169 33.9635 106.176 33.9731 106.171 33.9827C106.165 33.9942 106.159 33.9981 106.153 33.9981H105.888V33.9443V33.9462Z" fill="#011C39"></path><path d="M17.6519 34C17.6519 33.9846 17.6519 33.9693 17.6538 33.9539C17.7279 33.8732 17.8118 33.8809 17.9015 33.9232C17.9288 33.9443 17.9346 33.9693 17.9171 34H17.6519Z" fill="#011C39"></path><path d="M106.896 34C106.896 33.9846 106.9 33.9712 106.902 33.9577C106.972 33.9577 107.04 33.9577 107.111 33.9558C107.126 33.9673 107.132 33.9769 107.126 33.9865C107.12 33.9961 107.115 34.0019 107.109 34.0019H106.896V34Z" fill="#011C39"></path><path d="M18.3422 33.9462V34H18.1297C18.1121 33.9712 18.116 33.9482 18.1414 33.927C18.2116 33.8905 18.2798 33.8886 18.3422 33.9462Z" fill="#011C39"></path><path d="M16.589 34C16.589 33.9865 16.589 33.9712 16.587 33.9577C16.6572 33.8867 16.7275 33.8886 16.7977 33.9577C16.7977 33.9731 16.8016 33.9865 16.8016 34.0019H16.589V34Z" fill="#011C39"></path><path d="M18.1316 33.9539C18.1316 33.9693 18.1316 33.9846 18.1316 34H17.9191C17.9191 33.9846 17.9191 33.9693 17.923 33.9539C17.9932 33.8867 18.0634 33.8867 18.1336 33.9539H18.1316Z" fill="#011C39"></path><path d="M107.109 34C107.109 33.9846 107.109 33.9693 107.111 33.9539C107.163 33.9539 107.216 33.9501 107.269 33.9482C107.269 33.9654 107.269 33.9827 107.269 34H107.109Z" fill="#011C39"></path><path d="M106.153 34C106.153 33.9846 106.153 33.9712 106.149 33.9558C106.202 33.9558 106.256 33.9558 106.309 33.9558C106.309 33.9712 106.311 33.9865 106.311 34.0019H106.151L106.153 34Z" fill="#011C39"></path><path d="M49.1116 20.0685C49.016 20.0704 48.9848 20.0377 48.9536 20.007C48.2613 19.3174 47.4032 18.9467 46.4456 18.8027C45.5543 18.6682 44.663 18.674 43.7815 18.8891C43.4968 18.9583 43.2276 19.0677 42.9858 19.2387C42.4397 19.6229 42.2857 20.1607 42.3812 20.7811C42.4241 21.0596 42.6035 21.2709 42.8317 21.438C43.097 21.632 43.3954 21.7645 43.7035 21.8779C44.4017 22.1333 45.1291 22.2832 45.8546 22.4426C46.5411 22.5943 47.1984 22.8191 47.801 23.1821C48.6474 23.693 49.252 24.396 49.4236 25.3737C49.7454 27.2138 49.094 29.4784 46.4865 30.3351C45.8098 30.5579 45.1116 30.654 44.3978 30.6655C43.5787 30.6789 42.7693 30.629 41.9814 30.3908C41.5114 30.2487 41.0726 30.0489 40.6942 29.7339C40.1735 29.2998 39.881 28.7505 39.8615 28.0763C39.8478 27.6249 39.8595 27.1716 39.8595 26.7048C39.998 26.7183 40.0662 26.8201 40.1482 26.8873C40.8756 27.4674 41.6889 27.8765 42.6074 28.0628C43.4948 28.2434 44.3822 28.2472 45.2676 28.0417C45.3105 28.0321 45.3534 28.0206 45.3963 28.009C46.3988 27.7228 46.8064 26.9872 46.6289 25.95C46.5723 25.6253 46.3695 25.4025 46.1023 25.2297C45.8351 25.0568 45.5368 24.9435 45.2345 24.8417C44.5636 24.6169 43.8712 24.4748 43.1808 24.3211C42.4261 24.1521 41.7006 23.9062 41.0472 23.4836C40.193 22.9305 39.6606 22.1698 39.5611 21.1556C39.4675 20.2049 39.6898 19.3194 40.2145 18.5146C40.9419 17.4005 41.997 16.7359 43.2861 16.4362C44.5421 16.1443 45.7981 16.1962 47.0424 16.5284C47.4461 16.636 47.8244 16.807 48.1638 17.0509C48.782 17.4984 49.1116 18.0939 49.1116 18.8565C49.1116 19.2541 49.1116 19.6536 49.1116 20.0627V20.0685Z" fill="#011C39"></path><path d="M99.9981 26.8892C99.9981 27.9687 99.9981 29.0501 99.9981 30.1296C99.9981 30.1987 99.9981 30.2698 99.9961 30.339C99.9942 30.4004 99.9571 30.4331 99.8947 30.4331C99.3642 30.4331 98.8299 30.4715 98.3247 30.2544C97.5992 29.9413 97.2384 29.3824 97.2326 28.6122C97.2228 27.1831 97.2287 25.754 97.2326 24.3269C97.2326 23.9427 97.2092 23.5605 97.1097 23.1878C96.9576 22.6193 96.6768 22.1372 96.117 21.8663C95.5885 21.6128 95.0307 21.5609 94.4613 21.6935C93.8879 21.8279 93.4959 22.1871 93.2443 22.6999C93.0805 23.0322 92.9966 23.3895 92.9732 23.7564C92.9615 23.9293 92.9634 24.1041 92.9634 24.2788C92.9634 26.2131 92.9634 28.1473 92.9634 30.0816C92.9634 30.1334 92.9634 30.1853 92.9634 30.2391C92.9576 30.4292 92.9576 30.435 92.7762 30.435C92.3433 30.435 91.9083 30.4638 91.4832 30.3428C90.7206 30.1257 90.2077 29.5149 90.2019 28.7351C90.1902 27.0025 90.1492 25.2661 90.2214 23.5355C90.2877 21.9489 91.0327 20.6889 92.4505 19.8649C93.0688 19.5057 93.7494 19.329 94.4613 19.2483C95.218 19.1638 95.9669 19.1945 96.6963 19.4096C98.4417 19.9244 99.4851 21.0826 99.8811 22.821C99.9766 23.2397 100.002 23.6642 100 24.0925C99.9981 25.0241 100 25.9576 100 26.8892H99.9981Z" fill="#011C39"></path><path d="M51.3584 23.1744C51.3584 22.1199 51.3584 21.0654 51.3584 20.0128C51.3584 19.7419 51.3701 19.473 51.4072 19.206C51.4267 19.0696 51.452 18.9294 51.5008 18.8007C51.7621 18.0977 52.2224 17.5522 52.866 17.1527C53.217 16.9337 53.611 16.9645 54.001 16.9702C54.0771 16.9702 54.1141 17.0067 54.1141 17.0816C54.1141 17.1431 54.1141 17.2026 54.1141 17.2641C54.1141 17.9095 54.1141 18.553 54.1141 19.1983C54.1141 19.4557 54.1141 19.4576 54.3696 19.4576C55.4754 19.4576 56.5832 19.4576 57.689 19.4576C57.9991 19.4576 57.9815 19.4327 57.9815 19.7342C57.9815 19.9782 57.9815 20.2221 57.9815 20.4661C57.9815 21.0519 57.689 21.4553 57.1663 21.7031C56.9069 21.826 56.63 21.8721 56.3413 21.8702C55.6782 21.8702 55.0132 21.8702 54.3501 21.8702C54.118 21.8702 54.1161 21.8721 54.1141 22.0949C54.1141 23.4798 54.1141 24.8647 54.1141 26.2496C54.1141 26.4148 54.1278 26.58 54.157 26.7432C54.3092 27.6364 54.7967 28.0935 55.7075 28.1281C56.4252 28.155 57.1409 28.1128 57.806 27.7862C57.9425 27.719 57.9815 27.744 57.9796 27.8957C57.9757 28.2607 58.001 28.6275 57.9562 28.9925C57.8859 29.5553 57.5876 29.9606 57.0902 30.2314C56.7509 30.4158 56.3803 30.5022 56 30.533C55.1985 30.5944 54.4086 30.533 53.6461 30.2564C52.4857 29.8376 51.805 29.004 51.5164 27.84C51.4072 27.3982 51.3623 26.9487 51.3604 26.4935C51.3604 25.3871 51.3604 24.2808 51.3604 23.1744H51.3584Z" fill="#011C39"></path><path d="M77.7046 21.7626C77.7046 19.8706 77.7046 17.9806 77.7046 16.0886C77.7046 15.7601 77.6753 15.7928 78.003 15.7966C78.3306 15.8005 78.6583 15.7716 78.984 15.8331C79.9201 16.0079 80.4311 16.5899 80.4701 17.5311C80.474 17.6271 80.472 17.7232 80.472 17.8192C80.472 20.7907 80.472 23.7641 80.472 26.7355C80.472 26.918 80.4681 27.1005 80.5032 27.283C80.5968 27.7728 80.8972 28.0686 81.3789 28.1934C81.6461 28.2626 81.9172 28.2933 82.1941 28.2952C82.4418 28.2972 82.6895 28.2991 82.9391 28.2952C83.0308 28.2952 83.0932 28.3106 83.0893 28.422C83.0815 28.6928 83.101 28.9637 83.0698 29.2326C82.9879 29.9471 82.5588 30.3793 81.8216 30.4869C81.0727 30.5963 80.3335 30.5349 79.6236 30.2756C78.5276 29.878 77.9601 29.0597 77.765 27.9552C77.7124 27.6537 77.7026 27.3483 77.7026 27.0448C77.7026 25.2834 77.7026 23.524 77.7026 21.7626H77.7046Z" fill="#011C39"></path><path d="M76.5539 22.1352C76.1736 22.0162 75.8537 21.8855 75.5105 21.8414C75.0873 21.7857 74.666 21.7626 74.2428 21.8567C73.7084 21.9758 73.3496 22.2947 73.1429 22.7864C73.0063 23.111 72.9439 23.4548 72.9322 23.8044C72.9205 24.1617 72.9244 24.519 72.9244 24.8762C72.9244 26.6107 72.9244 28.3433 72.9244 30.0777C72.9244 30.1296 72.9244 30.1815 72.9244 30.2352C72.9205 30.4312 72.9186 30.4369 72.7157 30.435C72.3803 30.435 72.0448 30.4427 71.7075 30.4004C70.7226 30.2775 70.1472 29.6628 70.1277 28.6871C70.1199 28.2511 70.1277 27.815 70.1277 27.3809C70.1277 26.1439 70.1238 24.907 70.1277 23.67C70.1297 23.0399 70.2116 22.4195 70.4378 21.8241C70.9683 20.4238 71.9883 19.6171 73.4919 19.4058C74.0575 19.3251 74.6231 19.3136 75.177 19.4692C75.8654 19.6613 76.3471 20.0666 76.5188 20.7753C76.5558 20.929 76.5519 21.0865 76.5519 21.244C76.5519 21.5302 76.5519 21.8164 76.5519 22.1391L76.5539 22.1352Z" fill="#011C39"></path><path d="M86.945 24.2673C86.945 25.0875 86.945 25.9058 86.945 26.7259C86.945 26.8738 86.9489 27.0217 86.9606 27.1696C87.0093 27.7977 87.3467 28.1492 87.9825 28.2491C88.2906 28.2971 88.5988 28.2971 88.9089 28.2971C89.1449 28.2971 89.1488 28.2991 89.1468 28.518C89.1429 28.8388 89.1663 29.1615 89.0961 29.4823C88.9732 30.0508 88.6612 30.387 88.08 30.4792C87.2473 30.6117 86.4359 30.5214 85.6792 30.1334C84.9303 29.7493 84.5188 29.1096 84.3101 28.326C84.2048 27.9264 84.1678 27.5192 84.1678 27.1082C84.1639 24.7206 84.1658 22.3331 84.1678 19.9436C84.1678 19.692 84.1697 19.6901 84.435 19.6901C84.71 19.6901 84.983 19.6901 85.258 19.7112C86.2234 19.7919 86.8318 20.3873 86.9177 21.3381C86.945 21.6339 86.9469 21.9297 86.9469 22.2255C86.9469 22.9055 86.9469 23.5854 86.9469 24.2654L86.945 24.2673Z" fill="#011C39"></path><path d="M85.5524 15.4874C86.4398 15.4931 87.1789 16.2269 87.1692 17.0893C87.1594 17.9537 86.4105 18.6778 85.531 18.6759C84.6358 18.6759 83.9181 17.9402 83.9278 17.0413C83.9376 16.175 84.6631 15.4797 85.5524 15.4874Z" fill="#011C39"></path><path d="M111.949 28.1416C111.949 28.0724 111.953 28.0014 111.953 27.9322V27.7248C111.953 27.6383 111.953 27.55 111.953 27.4635C111.953 27.3944 111.953 27.3233 111.953 27.2542C111.949 27.1581 111.943 27.0621 111.943 26.968C111.94 25.9922 111.938 25.0164 111.932 24.0407C111.928 23.5086 111.875 22.9785 111.729 22.4637C111.286 20.9175 110.331 19.8437 108.735 19.3866C107.795 19.1177 106.842 19.1561 105.898 19.3674C104.304 19.7246 103.105 20.6025 102.358 22.043C101.816 23.088 101.64 24.2097 101.755 25.3679C101.849 26.3111 102.206 27.1639 102.89 27.8458C104.131 29.0828 105.648 29.4592 107.351 29.1039C108.162 28.9349 108.815 28.5027 109.188 27.7344L109.201 27.6691C109.201 27.6691 109.209 27.671 109.213 27.6729C109.215 27.6633 109.219 27.6556 109.225 27.6479C109.221 27.6556 109.217 27.6652 109.215 27.6729C109.246 27.6863 109.229 27.7152 109.225 27.7382C109.233 28.0167 109.233 28.2952 109.252 28.5738C109.272 28.8619 109.268 29.1481 109.235 29.4343C109.133 30.3006 108.7 30.9325 107.864 31.2667C107.651 31.3512 107.429 31.4088 107.2 31.4434C106.44 31.5567 105.683 31.5183 104.93 31.3704C104.548 31.2955 104.178 31.1784 103.823 31.0151C103.509 30.871 103.216 30.6924 102.957 30.4657C102.894 30.412 102.842 30.3005 102.742 30.3543C102.649 30.4024 102.701 30.5118 102.699 30.5925C102.693 30.871 102.707 31.1495 102.695 31.4281C102.664 32.1023 102.964 32.6209 103.47 33.0415C103.832 33.3431 104.254 33.5429 104.7 33.6946C105.086 33.8252 105.49 33.879 105.89 33.9501C105.974 34.0019 106.067 33.9654 106.155 33.977C106.216 33.977 106.276 33.977 106.336 33.977C106.518 33.977 106.699 33.977 106.879 33.977C106.953 33.977 107.025 33.977 107.099 33.977C107.156 33.977 107.212 33.977 107.269 33.977C107.442 33.9443 107.62 33.9597 107.795 33.9289C108.954 33.7253 109.966 33.2413 110.75 32.3673C111.475 31.5587 111.943 30.629 111.975 29.5245C111.975 29.5188 111.975 29.513 111.975 29.5073C111.969 29.5073 111.963 29.5073 111.957 29.5073C111.957 29.4727 111.957 29.4381 111.957 29.4035C111.957 29.3517 111.957 29.2998 111.957 29.2499C111.957 29.2153 111.953 29.1788 111.951 29.1442C111.951 29.0693 111.926 28.9886 112.002 28.9329V28.5142C111.904 28.4028 111.963 28.2683 111.951 28.1454L111.949 28.1416ZM108.751 25.8481C108.273 26.6376 107.542 26.9853 106.629 26.9257C105.728 26.8681 105.125 26.3744 104.78 25.5658C104.655 25.2738 104.595 24.9646 104.577 24.6515C104.542 23.9754 104.673 23.3319 105.041 22.7518C105.609 21.8587 106.654 21.4418 107.659 21.705C108.176 21.8394 108.556 22.1429 108.811 22.602C109.055 23.0399 109.139 23.5182 109.159 24.0119C109.166 24.6553 109.092 25.2834 108.749 25.8501L108.751 25.8481Z" fill="#011C39"></path><path d="M15.7894 33.9039C15.9181 33.8963 16.0469 33.879 16.1678 33.9424C16.0391 33.9501 15.9084 33.9769 15.7894 33.9039Z" fill="#011C39"></path><path d="M34.116 13.3649C32.8815 7.74081 28.745 3.05407 23.255 1.05452C21.4803 0.409129 19.647 0.0653071 17.7591 0C17.4217 0 17.0843 0 16.747 0C16.4739 0.0172872 16.1989 0.0326535 15.9259 0.0518615C14.2994 0.161347 12.7255 0.509011 11.2004 1.06796C5.78645 3.0483 1.71624 7.62364 0.419308 13.1709C0.202828 14.091 0.0877621 15.0225 0 15.958C0 16.6379 0 17.3179 0 17.9979C0.00390054 18.0324 0.0117016 18.067 0.0136519 18.1016C0.0955631 19.1369 0.243783 20.1607 0.51097 21.1652C1.4588 24.7514 3.37981 27.7363 6.28181 30.0931C9.04339 32.3347 12.2223 33.5909 15.7894 33.904C15.9122 33.952 16.0468 33.8886 16.1677 33.9424H16.1931L16.2165 33.9462C16.3393 33.927 16.4622 33.9462 16.5851 33.9558C16.6553 33.9558 16.7255 33.9558 16.7957 33.9558C17.0824 33.9558 17.3671 33.9558 17.6538 33.9558C17.7416 33.9558 17.8313 33.9558 17.9191 33.9558C17.9893 33.9558 18.0595 33.9558 18.1297 33.9558C18.1999 33.9424 18.2701 33.9309 18.3403 33.9481C18.4281 33.9347 18.5139 33.9136 18.6017 33.9097C19.4773 33.854 20.3413 33.7176 21.1955 33.5198C28.5519 31.8122 34.0926 25.5235 34.4866 17.8077C34.5626 16.3133 34.4359 14.8324 34.1141 13.3687L34.116 13.3649ZM22.9566 15.2434C20.2243 15.2396 17.9054 13.046 17.9152 10.2647C17.9249 7.5276 20.1736 5.32253 22.9605 5.3206C25.6168 5.3014 27.9961 7.40467 28.0019 10.2686C28.0078 13.1728 25.5856 15.2454 22.9566 15.2434Z" fill="#011C39"></path><path d="M61.683 26.1151C62.1609 26.1132 62.6387 26.1151 63.3408 26.1151C63.9337 26.117 64.7469 26.1074 65.5563 25.9999C66.1199 25.925 66.6718 25.8136 67.1945 25.585C68.0175 25.222 68.4563 24.5939 68.509 23.7161C68.6123 21.9777 67.7445 20.4469 66.1297 19.6747C65.2715 19.2636 64.3647 19.1369 63.4168 19.2425C61.5524 19.4519 60.1735 20.3585 59.3057 22.0008C58.9429 22.6884 58.7459 23.4279 58.6543 24.1943C58.549 25.0837 58.5782 25.9672 58.8415 26.8335C59.5221 29.0655 61.5933 30.6194 63.959 30.6655C64.4368 30.6751 64.9166 30.6636 65.3905 30.5944C65.9346 30.5157 66.469 30.3947 66.9585 30.1315C67.3993 29.8953 67.7406 29.5649 67.9376 29.1039C68.1696 28.5603 68.0897 27.9898 68.0994 27.427C68.0994 27.356 68.0468 27.3406 67.9902 27.3675C67.9434 27.3905 67.9044 27.429 67.8634 27.4616C67.606 27.6652 67.3252 27.8285 67.0209 27.9533C66.0575 28.3471 65.0492 28.4354 64.0234 28.3394C63.4812 28.2895 62.9741 28.0993 62.5236 27.7843C62.0048 27.4213 61.6616 26.9411 61.5134 26.3303C61.4666 26.142 61.488 26.119 61.685 26.119L61.683 26.1151ZM61.4549 24.033C61.4783 23.2935 61.6869 22.627 62.2447 22.0987C62.6504 21.7146 63.136 21.5091 63.6996 21.4918C64.0994 21.4802 64.4934 21.511 64.8737 21.6512C65.5699 21.9067 65.9405 22.4522 65.9132 23.1821C65.9015 23.4971 65.7591 23.7276 65.4685 23.8697C65.1448 24.0272 64.7957 24.0752 64.4446 24.1156C64.2691 24.1348 64.0916 24.1559 63.9161 24.1598C63.5534 24.1674 63.1906 24.1617 62.8279 24.1617V24.1809C62.4202 24.1809 62.0146 24.179 61.607 24.1809C61.4958 24.1809 61.451 24.1463 61.4549 24.0291V24.033Z" fill="#011C39"></path></g><defs><clipPath id="clip0_1290_1774"><rect width="112" height="34" fill="white"></rect></clipPath></defs></svg>