<svg xmlns="http://www.w3.org/2000/svg" width="162" height="75" viewBox="0 0 162 75" fill="none"><g clip-path="url(#clip0_15061_5789)"><path d="M73.0401 0H123.04C123.227 0.420823 123.099 0.695527 122.654 0.818267C106.243 0.876714 89.8375 0.876714 73.4263 0.818267C72.9758 0.689682 72.847 0.420823 73.0401 0Z" fill="#011C39"></path><path d="M73.0401 0C73.0401 0.175343 73.0401 0.344841 73.0401 0.520184C72.4609 1.02868 71.753 0.853335 71.0918 0.847491C59.4665 0.835801 47.8412 0.900093 36.2158 0.818267C35.7653 0.695527 35.6366 0.420823 35.8238 0H73.0343L73.0401 0Z" fill="#011C39"></path><path d="M35.8297 0C35.8297 0.175343 35.8297 0.344841 35.8297 0.520184C31.9624 1.26247 28.06 0.707216 24.1692 0.835801C21.788 0.917628 19.3951 0.900093 17.008 0.818267C16.575 0.683837 16.4522 0.409133 16.6452 0L35.8297 0Z" fill="#011C39"></path><path d="M123.04 0.520184C123.04 0.344841 123.04 0.175343 123.04 0H142.225C142.418 0.409133 142.295 0.683837 141.862 0.818267C136.228 0.905938 130.588 0.835801 124.953 0.847491C124.304 0.847491 123.602 1.02868 123.034 0.520184H123.04Z" fill="#011C39"></path><path d="M16.6452 0C16.6452 0.169498 16.6394 0.338996 16.6335 0.508494C13.7608 1.16895 10.8647 0.87087 7.9745 0.666303C7.6059 0.648769 7.23146 0.631234 6.86287 0.6137C6.82776 0.409133 6.79266 0.204567 6.75755 0H16.6394H16.6452Z" fill="#011C39"></path><path d="M142.213 0.526029C142.219 0.350686 142.225 0.175343 142.225 0H150.363C150.562 0.37991 150.462 0.648769 150.065 0.812422C147.443 0.707216 144.805 1.24493 142.207 0.526029H142.213Z" fill="#011C39"></path><path d="M150.357 0.555252C150.363 0.36822 150.369 0.187032 150.369 0H154.441C154.441 0.198722 154.441 0.397444 154.435 0.596166C154.219 0.777353 154.002 0.958541 153.786 1.14557C152.738 0.403289 151.404 1.30923 150.363 0.555252H150.357Z" fill="#011C39"></path><path d="M152.762 38.1369C151.791 38.096 150.825 38.1135 149.854 38.1135C104.119 38.1135 58.3783 38.1135 12.6434 38.1135C11.3855 38.1135 10.1217 38.0785 8.86381 38.1837C3.51627 38.6279 0.251578 41.7957 0.117012 47.0794C-0.0409571 53.3976 -0.0409571 59.7275 0.117012 66.0456C0.274981 72.4983 2.9663 74.9881 9.53079 74.994C57.4948 75.0115 105.465 75.0057 153.429 74.994C158.829 74.994 160.643 73.5503 162 68.4011V45.4136C160.637 40.2352 158.267 38.3648 152.768 38.1486L152.762 38.1369ZM17.3415 60.9022C19.3307 63.3337 22.2912 64.3507 25.117 62.8252C27.3637 61.6095 28.4402 62.3868 29.8152 63.9065C30.7396 64.9293 30.4997 65.3969 29.5402 66.1158C25.5324 69.1317 19.161 69.0089 15.2352 65.7826C11.3035 62.5505 9.98129 56.7057 12.1695 52.2286C14.498 47.4651 19.7812 44.9694 25.0117 46.2202C27.0829 46.717 29.0897 47.395 30.5055 49.1309C28.9961 51.2233 27.7557 52.9709 24.5378 51.1707C21.8875 49.6862 18.9153 51.0421 17.1952 53.4969C15.5629 55.829 15.6214 58.804 17.3415 60.9081V60.9022ZM35.9876 67.4542C35.4494 67.6237 34.917 68.0446 34.3611 67.653C33.8521 67.2964 34.1096 66.7996 34.3202 66.3788C37.9242 59.2131 41.5341 52.0533 45.3429 44.5018C49.3916 52.6202 53.2297 60.3236 57.2842 68.4654C49.9006 65.6774 42.9968 65.2098 35.9935 67.4542H35.9876ZM68.9037 61.4049C65.7092 61.1828 66.0017 62.8778 66.1246 64.8007C66.2475 66.7178 66.3703 68.29 63.4567 68.0796C61.5844 67.9452 61.2334 67.4133 61.3036 65.7476C61.4323 62.7901 61.3387 59.821 61.3387 56.8577C61.3387 53.8944 61.444 50.9252 61.2978 47.9678C61.2159 46.2728 61.8419 45.8637 63.4216 45.963C65.3465 46.0858 67.2947 45.8871 69.2196 45.9981C74.023 46.2728 77.2936 49.6978 77.1298 54.1574C76.9659 58.5877 73.7247 61.7381 68.8978 61.4049H68.9037ZM87.6025 66.3554C87.6376 68.2374 86.5494 68.0562 85.3968 67.9686C84.2969 67.8867 82.7581 68.5823 82.84 66.3846C82.957 63.2285 82.8693 60.0665 82.8693 56.9103C82.8693 53.8476 82.9863 50.7791 82.8283 47.7223C82.723 45.6766 83.9634 45.9513 85.2154 45.963C86.4382 45.9747 87.6552 45.6124 87.6084 47.6931C87.4796 53.9119 87.4913 60.1366 87.6084 66.3554H87.6025ZM107.39 50.8376C103.306 51.2292 103.317 51.3285 103.317 55.4608V59.7625C103.317 61.8666 103.154 63.9883 103.358 66.069C103.575 68.29 102.188 67.9277 100.848 67.9919C99.3215 68.0679 98.3561 67.9744 98.4438 65.9404C98.6252 61.7381 98.397 57.524 98.5433 53.3216C98.6135 51.311 98.005 50.6505 95.9573 50.7441C93.2543 50.8726 92.4176 49.5167 93.1022 46.869C93.3479 45.9221 93.9271 45.963 94.5999 45.963C98.8593 45.963 103.113 45.9981 107.372 45.9455C109.385 45.9221 108.8 47.3482 108.811 48.3535C108.823 49.3764 109.35 50.6447 107.384 50.8317L107.39 50.8376ZM124.316 65.5664C124.082 64.678 123.245 64.8124 122.625 64.8942C120.05 65.2449 116.92 63.5207 115.317 67.4835C114.791 68.781 112.152 67.8517 110.192 67.9043C113.615 60.3236 116.938 52.9592 120.419 45.2558C123.894 52.93 127.223 60.2827 130.658 67.8751C128.089 67.7348 125.287 69.2193 124.316 65.5605V65.5664ZM149.948 66.3496C149.836 67.5361 149.62 68.0329 148.309 68.0036C144.922 67.9277 141.534 67.9101 138.153 68.0036C136.731 68.0446 136.345 67.5828 136.386 66.221C136.479 63.0648 136.415 59.9086 136.415 56.7525C136.415 53.6898 136.526 50.6272 136.374 47.5703C136.28 45.665 137.433 45.9046 138.585 45.963C139.721 46.0215 141.183 45.4078 141.125 47.582C141.014 51.8838 141.271 56.2031 141.025 60.4931C140.879 63.0297 141.786 63.6785 144.091 63.3512C145.039 63.2168 146.045 63.4506 146.987 63.3044C149.526 62.907 150.158 64.0467 149.942 66.3437L149.948 66.3496Z" fill="#011C39"></path><path d="M154.47 35.5418C153.797 35.5711 153.119 35.6295 152.446 35.6295C104.757 35.6295 57.0677 35.6295 9.37867 35.6295C8.70584 35.6295 8.03301 35.5652 7.35432 35.5302C7.55325 35.3607 7.74632 35.1912 7.94525 35.0217C8.86966 34.5775 9.85257 34.7879 10.8062 34.7879C57.7347 34.7762 104.663 34.7762 151.592 34.7879C152.539 34.7879 153.528 34.5541 154.441 35.0509C154.453 35.2145 154.464 35.3782 154.476 35.536L154.47 35.5418Z" fill="#011C39"></path><path d="M154.441 35.057C105.611 35.0453 56.781 35.0336 7.94525 35.0277C8.82871 34.1452 9.95789 34.5076 10.9759 34.5017C57.7932 34.4842 104.605 34.4842 151.422 34.5017C152.44 34.5017 153.575 34.1393 154.441 35.057Z" fill="#011C39"></path><path d="M150.357 0.555059C151.492 0.77716 152.791 0.0816331 153.78 1.14538C106.196 1.14538 58.6123 1.14538 11.0286 1.13369C10.0047 1.13369 8.88721 1.48438 7.9745 0.666109C10.8589 0.613507 13.7433 0.560904 16.6335 0.508301C23.0283 0.508301 29.429 0.514146 35.8297 0.51999C48.2332 0.51999 60.6425 0.51999 73.046 0.51999C89.7088 0.51999 106.377 0.51999 123.04 0.51999C129.429 0.51999 135.824 0.525835 142.213 0.53168C144.928 0.543369 147.642 0.549214 150.357 0.560904V0.555059Z" fill="#011C39"></path><path d="M64.9486 7.23591C64.738 7.26514 64.5332 7.29436 64.3226 7.32358C66.5868 5.12595 69.2898 6.95536 71.7413 6.45271C69.5414 7.34112 67.1485 6.3592 64.9486 7.23591Z" fill="#011C39"></path><path d="M49.8538 6.47021H56.0204C53.9785 7.043 51.9191 6.92026 49.8538 6.47021Z" fill="#011C39"></path><path d="M66.8969 56.9862C64.6385 56.8284 66.5107 54.3853 66.1421 52.9826C65.7267 51.4045 66.3177 50.4226 68.2425 50.6739C70.3488 50.9486 72.4141 51.2291 72.3848 53.9937C72.3673 55.864 70.5068 57.0564 66.891 56.9862H66.8969Z" fill="#011C39"></path><path d="M121.788 60.3472C120.811 60.5284 119.495 61.0018 119.161 60.1251C118.775 59.1315 119.787 58.0677 120.419 57.0273C121.057 58.0969 121.624 59.1081 121.788 60.3472Z" fill="#011C39"></path><path d="M154.096 0.490944C153.604 0.572771 153.107 0.572771 152.615 0.572771C105.629 0.572771 58.6357 0.572771 11.6429 0.572771C10.5781 0.572771 9.51323 0.619529 8.44841 0.496789C7.92184 0.344825 7.38943 0.262998 6.84531 0.368204C2.64451 0.502634 -0.0585096 4.19652 0.0351016 8.13005C0.19307 14.7346 0.0526537 21.3451 0.0877578 27.9496C0.111161 32.0702 2.9546 35.2264 7.23731 35.9862C7.78143 35.9336 8.27288 35.694 8.77604 35.5069C10.11 35.1971 11.4732 35.314 12.8247 35.314C58.3315 35.3082 103.844 35.3082 149.351 35.314C150.609 35.314 151.872 35.2205 153.124 35.466C153.452 35.5771 153.768 35.7056 154.078 35.8576C157.752 35.9453 160.526 33.7184 161.514 29.9018C161.473 29.9018 161.432 29.9018 161.397 29.9018C160.461 29.0777 160.964 27.9847 160.836 27.0086C160.836 21.9471 160.836 16.8797 160.842 11.8181C160.842 11.7363 160.883 11.596 160.935 11.5785C161.087 11.5259 161.257 11.5259 161.421 11.5083C161.614 11.4849 161.801 11.4791 161.994 11.4908V8.04238C160.877 2.10994 158.905 0.222085 154.096 0.485099V0.490944ZM36.8477 28.2419C35.4026 28.1542 34.8292 26.7339 34.0569 25.6819C33.7059 25.2084 33.7819 23.946 32.5591 24.6415C28.1419 24.6649 23.7187 24.6941 19.3015 24.7116C18.5409 24.7116 17.7393 24.8227 17.2011 24.0804C15.3815 25.0156 15.206 27.2541 13.6848 28.4231C13.6848 28.6744 13.5853 28.7504 13.3688 28.6393C10.9174 30.2525 8.24363 28.7854 5.72198 29.3465L5.69273 28.6276H13.3513C11.0637 28.0958 8.74094 28.4757 6.44162 28.3354C5.99111 28.3062 5.44115 28.4289 5.20712 27.8503C4.97894 27.2833 5.4587 26.9969 5.73953 26.6346C10.1744 21.0119 14.5507 15.3542 18.5818 9.43928C19.477 8.1242 20.653 7.00201 22.6422 7.32347C23.9586 7.53388 25.3511 7.47544 26.6909 7.33516C28.5397 7.14228 29.5694 7.89626 30.6811 9.38083C35.3324 15.5938 40.4693 21.4503 45.1498 28.2828C42.1309 28.2828 39.4805 28.3997 36.8535 28.236L36.8477 28.2419ZM49.2629 29.1244V28.8906H56.588C56.588 28.9666 56.588 29.0485 56.5938 29.1244H49.2629ZM55.0668 28.388C52.9547 28.1893 50.825 28.2068 48.7071 28.1308C48.4847 28.1425 48.2624 28.1542 48.0459 28.1601C47.4316 27.6866 47.4609 27.0145 47.4609 26.3482C47.4609 20.6612 47.4609 14.9684 47.4609 9.28147C47.4609 8.61516 47.4375 7.94302 48.0518 7.47544L48.748 7.53973C54.4154 7.0098 57.2491 9.45291 57.2491 14.8691C57.2491 18.598 57.1789 22.3328 57.2783 26.0618C57.3251 27.7217 56.9683 28.5692 55.0668 28.3938V28.388ZM58.2964 27.4879C58.1969 27.447 58.1033 27.4061 58.0038 27.3593V8.25863C58.1033 8.25863 58.1969 8.25863 58.2964 8.25863V27.4937V27.4879ZM65.0949 29.1595C65.0773 29.066 65.0539 28.9725 65.0364 28.879H71.8056C71.8056 28.9725 71.8056 29.066 71.8056 29.1595H65.0949ZM73.4204 28.2068C72.4726 26.7047 73.7012 24.9104 72.537 23.5778C72.3809 26.8391 70.5575 28.4348 67.0666 28.3646C66.0076 28.3412 64.9545 28.1951 63.8955 28.1074C63.6497 28.125 63.404 28.1484 63.1583 28.1659C62.5498 27.6925 62.5732 27.0145 62.5732 26.354C62.5732 20.6671 62.5732 14.9801 62.5732 9.29316C62.5732 8.62685 62.544 7.95471 63.1583 7.48128C63.4157 7.50466 63.6731 7.53388 63.9306 7.55726C64.1295 7.59818 64.2582 7.52219 64.3167 7.33516C64.5039 7.17735 64.7146 7.14228 64.9428 7.24749C65.0364 7.27087 65.13 7.30594 65.2236 7.30594C67.5229 7.4053 70.4892 6.6747 71.9343 7.82028C73.4789 9.04768 72.1274 12.1279 72.5311 14.3723C73.672 12.4376 72.5955 10.2575 73.4146 7.58064V28.2185L73.4204 28.2068ZM105.886 27.5054C97.4609 29.7206 89.229 29.177 81.4476 24.963C79.47 23.8934 79.4057 21.6139 78.376 19.9423C76.9074 18.8493 77.9313 17.4115 77.8494 16.1315C77.8494 16.1082 78.0015 16.0439 78.0717 16.0497C78.1595 16.0555 78.2355 16.1257 78.3174 16.1666C79.5988 11.4616 83.3256 9.3516 87.585 8.18265C93.5351 6.54027 99.6081 6.62795 105.634 7.97224C107.922 8.48074 110.034 9.45097 111.655 11.1518C112.269 11.7947 113.568 12.4259 112.556 13.7176C111.661 14.6996 110.701 14.5651 109.706 13.893C107.325 14.343 105.342 14.2086 103.072 12.6422C98.9236 9.78412 94.1904 10.468 89.8141 12.5312C87.5147 13.6124 86.801 15.851 86.9823 18.335C87.1637 20.8366 88.3455 22.6601 90.6858 23.6537C92.1017 24.2558 93.6053 24.6181 95.1675 24.6415C96.1153 23.8875 97.0689 23.8934 98.0226 24.6357C99.6959 24.5714 101.679 24.4252 102.592 23.1862C105.664 19.0247 109.414 21.3626 113.258 21.4795C111.86 25.1266 109.01 26.6813 105.886 27.5054ZM157.887 17.9843C157.957 18.224 158.361 19.2468 157.238 18.8026C156.155 23.794 152.487 26.2839 147.947 27.4411C139.808 29.516 131.617 29.4517 123.754 26.2547C120.6 24.9688 118.459 22.4147 118.126 18.7909C117.792 15.1788 119.325 12.4552 122.321 10.5381C127.902 6.9611 134.197 6.83251 140.516 7.13644C142.821 7.24749 145.156 7.59818 147.391 8.17681C152.089 9.39836 155.898 11.7713 157.261 16.7978C158.577 16.5874 157.764 17.5869 157.881 17.9902L157.887 17.9843Z" fill="#011C39"></path><path d="M135.859 24.6415C133.794 24.5948 131.881 23.9694 130.049 23.0985C127.809 22.0289 126.785 20.0768 126.744 17.7798C126.703 15.5588 127.82 13.7761 129.833 12.6189C134.396 9.99456 141.762 10.4154 145.928 13.5599C149.497 16.2543 148.982 21.1522 144.857 23.2446C143.131 24.1214 141.271 24.6298 139.305 24.6415C138.158 24.2908 137.012 24.2908 135.865 24.6415H135.859Z" fill="#011C39"></path><path d="M21.1678 18.1419C23.5393 14.1441 25.9498 14.1461 28.3993 18.1478C28.5631 18.6972 28.3817 19.1122 27.7967 19.1589C25.8016 19.3167 23.8006 19.305 21.7997 19.1648C21.2088 19.1238 21.0684 18.668 21.1678 18.1419Z" fill="#011C39"></path><path d="M21.1678 18.1421C23.5783 19.4805 25.983 19.4689 28.3993 18.1479C29.1131 18.8435 29.3003 19.5565 28.0424 19.6208C25.7489 19.7377 23.4145 19.8721 21.1503 19.5974C19.1786 19.3636 21.004 18.6447 21.1737 18.1421H21.1678Z" fill="#011C39"></path></g><defs><clipPath id="clip0_15061_5789"><rect width="162" height="75" fill="white"></rect></clipPath></defs></svg>