<svg xmlns="http://www.w3.org/2000/svg" width="168" height="30" viewBox="0 0 168 30" fill="none"><path d="M29.8655 30H0V26.9287H0.655184L1.31037 26.8739L1.47416 26.5996L2.23854 25.5576L4.20409 22.9799L4.80468 22.2121H9.22717L9.44556 22.9799L9.66396 23.8574L9.71856 23.9671L9.33637 24.4058C8.74083 25.2898 8.06452 26.1161 7.31622 26.8739L8.35359 26.9287H9.39096L9.55476 26.5996C9.7706 26.1778 10.0465 25.7898 10.3737 25.4479C10.5507 25.9084 10.6788 26.3864 10.7559 26.8739L11.8479 26.9287H12.8853L12.9399 26.8739C13.0752 26.6406 13.2027 26.4028 13.3221 26.1609L13.9227 25.5027C14.0866 25.9637 14.1965 26.4422 14.2502 26.9287C15.1605 26.9275 16.0706 26.9092 16.9802 26.8739L16.8164 26.5996C16.4888 25.9963 16.5434 26.0512 15.8882 24.0768L15.6152 23.1444L15.9428 22.6508L16.325 22.2121H20.7475L21.0751 23.2541C21.4002 24.4566 21.7096 25.6633 22.0033 26.8739L23.4228 26.9287C23.8786 26.8803 24.3336 26.8255 24.7878 26.7642L24.1872 25.3382C23.1308 22.1594 22.2019 18.9392 21.4027 15.6856H19.1641L19.0549 15.8501L18.5635 16.7276L15.0692 21.3894L14.7416 20.2377C15.9438 18.7064 17.1633 17.189 18.3997 15.6856H16.1612L16.1066 15.7404V15.8501C16.052 16.1243 15.9974 16.2888 15.779 16.5631L14.0318 18.7569L13.9227 18.4826C13.7089 17.5857 13.4905 16.6899 13.2675 15.7952V15.6856H10.5375L10.5921 15.8501C11.1945 17.439 11.7408 19.0488 12.2301 20.6764L11.5203 21.6088C10.9652 19.7887 10.4373 17.9603 9.93695 16.1243L9.88235 15.7404V15.6856H7.53461L7.31622 16.1792L6.93403 16.8921C5.73496 18.616 4.47848 20.2989 3.16672 21.9378C2.15112 23.2893 1.11361 24.6241 0.0545986 25.9415H0V0H28.1183L18.9457 11.9561C18.2252 12.9171 17.5154 13.886 16.8164 14.8629H18.5089L20.9659 11.6819L22.713 9.37843L29.8655 0V30ZM12.2847 24.0219L12.0663 23.2541L12.7761 22.3218L12.8853 22.4863L13.2675 23.5832L13.3221 23.6929L13.2129 23.8574L12.5577 24.7349L12.2847 24.0219ZM5.89665 20.7861C6.43888 20.0884 6.98487 19.3937 7.53461 18.702C7.71311 18.4559 7.87718 18.1995 8.026 17.9342V18.1536L8.0806 18.5375C8.25739 19.2986 8.47612 20.0493 8.73578 20.7861C7.78963 20.8151 6.84281 20.8151 5.89665 20.7861ZM17.417 20.7861C18.3451 19.6344 19.1095 18.6472 19.3825 18.1536L19.4917 17.9342L19.5463 18.2084V18.5923C19.7355 19.3321 19.9541 20.0639 20.2015 20.7861H20.2561H17.3624H17.417Z" fill="#011C39"></path><path d="M18.5635 15.0274L16.325 14.9726L28.0637 0H29.8654L18.5635 15.0274Z" fill="#F8F8F8"></path><path d="M38.8743 25.8318L43.2968 12.6143H46.5181L50.886 25.8318H48.3198L47.2825 22.596H42.2048L41.1674 25.8318H38.8743ZM44.7709 14.6435L42.8054 20.7861H46.6819L44.7709 14.6435ZM51.3774 25.8318L55.636 19.0311L51.7049 12.6143H54.4349L57.274 17.3309L60.0585 12.6143H62.5701L58.6936 18.9762L62.8977 25.8318H60.1131L57.001 20.6764L53.8889 25.8318H51.3774ZM63.4437 25.8318L67.8661 12.6143H71.0875L75.4007 25.8318H72.8892L71.7972 22.596H66.7742L65.7368 25.8318H63.4437ZM69.2857 14.6435L67.3748 20.7861H71.2513L69.2857 14.6435ZM80.7514 25.8318V12.6143H84.0273L87.5216 21.6636L90.9068 12.6143H94.1281V25.8318H91.6711V15.8501L87.74 25.8318H86.9757L82.9354 15.8501V25.8318H80.7514ZM95.6022 25.8318L100.025 12.6143H103.246L107.614 25.8318H105.048L104.01 22.596H98.9328L97.8954 25.8318H95.6022ZM101.499 14.6435L99.5333 20.7861H103.41L101.499 14.6435ZM109.088 25.8318V12.6143H111.982L117.551 22.1572V12.6143H119.789V25.8318H117.278L111.327 15.6856V25.8318H109.088ZM126.778 26.0512C125.031 26.0512 123.775 25.6673 122.902 24.8995C122.466 24.4908 122.116 23.999 121.872 23.4528C121.629 22.9065 121.496 22.3169 121.482 21.7185H123.83C123.939 22.5411 124.212 23.1444 124.594 23.5283C125.031 23.9671 125.741 24.1865 126.778 24.1865C127.488 24.1865 128.088 24.022 128.58 23.638C129.017 23.2541 129.29 22.7605 129.29 22.1572C129.29 21.5539 129.071 21.0603 128.689 20.7861C128.307 20.5119 127.597 20.2925 126.505 20.128C124.867 19.9086 123.666 19.4698 122.956 18.9214C122.246 18.373 121.864 17.4406 121.864 16.234C121.864 15.1371 122.301 14.2596 123.12 13.5466C123.994 12.8336 125.086 12.4497 126.45 12.4497C127.87 12.4497 129.017 12.7788 129.836 13.4369C130.655 14.0951 131.146 15.0274 131.255 16.2889H129.017C128.907 15.5759 128.634 15.0823 128.198 14.8081C127.815 14.479 127.215 14.3145 126.45 14.3145C125.741 14.3145 125.195 14.479 124.758 14.8081C124.376 15.0823 124.212 15.521 124.212 16.0146C124.212 16.6179 124.376 17.0567 124.703 17.3309C125.086 17.6051 125.85 17.8245 126.942 17.989C128.58 18.2084 129.781 18.5923 130.491 19.1956C131.255 19.7441 131.637 20.6764 131.637 21.9379C131.637 23.0896 131.201 24.0768 130.272 24.8446C129.295 25.6641 128.051 26.0935 126.778 26.0512ZM131.965 25.8318L136.387 12.6143H139.609L143.977 25.8318H141.41L140.373 22.596H135.295L134.313 25.8318H131.965ZM137.862 14.6435L135.896 20.7861H139.773L137.862 14.6435ZM145.451 25.8318V12.6143H149.873C151.402 12.6143 152.603 12.9433 153.477 13.6015C154.35 14.2048 154.787 15.192 154.787 16.5082V16.5631C154.787 18.4278 153.804 19.6344 151.839 20.128L155.606 25.8318H152.931L149.436 20.5119H147.908V25.8318H145.451ZM147.908 18.7569H149.873C151.566 18.7569 152.385 18.0439 152.385 16.6179V16.5631C152.385 15.8501 152.166 15.3017 151.73 15.0274C151.293 14.6984 150.692 14.5338 149.873 14.5338H147.908V18.7569ZM159.428 23.9123H160.902C162.322 23.9123 163.414 23.5283 164.178 22.7057C164.888 21.9379 165.27 20.7861 165.27 19.2505V19.1408C165.27 16.0695 163.796 14.5338 160.848 14.5338H159.428V23.9123ZM156.971 25.8318V12.6143H161.011C163.25 12.6143 164.943 13.2176 166.089 14.3693C167.236 15.521 167.836 17.1115 167.836 19.0859V19.2505C167.836 21.2797 167.236 22.8702 166.089 24.0768C164.888 25.2285 163.195 25.8318 160.957 25.8318H156.971Z" fill="#011C39"></path><path d="M39.038 25.8318L43.4605 12.6143H46.6818L50.9951 25.8318H48.4835L47.3916 22.596H42.3685L41.3311 25.8318H39.038ZM44.88 14.6435L42.9691 20.7861H46.8456L44.88 14.6435ZM51.541 25.8318L55.7997 19.0311L51.814 12.6143H54.5986L57.4377 17.3309L60.2222 12.6143H62.7338L58.8573 18.9762L63.0614 25.8318H60.2768L57.1647 20.6764L54.0526 25.8318H51.541ZM63.6073 25.8318L67.9752 12.6143H71.1966L75.5644 25.8318H73.0529L71.9609 22.596H66.9379L65.9005 25.8318H63.6073ZM69.4494 14.6435L67.4839 20.7861H71.415L69.4494 14.6435ZM80.9151 25.8318V12.6143H84.191L87.6307 21.6636L91.0705 12.6143H94.2918V25.8318H91.8348V15.8501L87.9037 25.8318H87.1394L83.0991 15.8501V25.8318H80.9151ZM95.7659 25.8318L100.188 12.6143H103.41L107.778 25.8318H105.212L104.174 22.596H99.0965L98.0591 25.8318H95.7659ZM101.663 14.6435L99.697 20.7861H103.574L101.663 14.6435ZM109.197 25.8318V12.6143H112.146L117.715 22.1572V12.6143H119.953V25.8318H117.387L111.436 15.6856V25.8318H109.197ZM126.942 26.0512C125.195 26.0512 123.884 25.6673 123.065 24.8995C122.63 24.4908 122.28 23.999 122.036 23.4528C121.792 22.9065 121.66 22.3169 121.646 21.7185H123.993C124.103 22.5411 124.321 23.1444 124.758 23.5283C125.195 23.9671 125.904 24.1865 126.942 24.1865C127.652 24.1865 128.252 24.022 128.744 23.638C129.18 23.2541 129.399 22.7605 129.399 22.1572C129.399 21.5539 129.235 21.0603 128.853 20.7861C128.471 20.5119 127.761 20.2925 126.669 20.128C125.031 19.9086 123.83 19.4698 123.12 18.9214C122.355 18.373 122.028 17.4406 122.028 16.234C122.028 15.1371 122.465 14.2596 123.284 13.5466C124.157 12.8336 125.249 12.4497 126.614 12.4497C128.034 12.4497 129.18 12.7788 129.999 13.4369C130.818 14.0951 131.31 15.0274 131.419 16.2889H129.18C129.017 15.5759 128.798 15.0823 128.361 14.8081C127.979 14.479 127.379 14.3145 126.614 14.3145C125.904 14.3145 125.304 14.479 124.922 14.8081C124.539 15.0823 124.321 15.521 124.321 16.0146C124.321 16.6179 124.539 17.0567 124.867 17.3309C125.249 17.6051 125.959 17.8245 127.051 17.989C128.689 18.2084 129.89 18.5923 130.654 19.1956C131.419 19.7441 131.801 20.6764 131.801 21.9379C131.801 23.0896 131.364 24.0768 130.436 24.8446C129.458 25.6641 128.214 26.0935 126.942 26.0512ZM132.129 25.8318L136.551 12.6143H139.772L144.14 25.8318H141.574L140.537 22.596H135.459L134.422 25.8318H132.129ZM138.025 14.6435L136.06 20.7861H139.936L138.025 14.6435ZM145.614 25.8318V12.6143H150.037C151.566 12.6143 152.767 12.9433 153.64 13.6015C154.514 14.2048 154.951 15.192 154.951 16.5082V16.5631C154.951 18.4278 153.968 19.6344 152.003 20.128L155.715 25.8318H153.094L149.6 20.5119H148.071V25.8318H145.614ZM148.071 18.7569H150.037C151.675 18.7569 152.549 18.0439 152.549 16.6179V16.5631C152.549 15.8501 152.33 15.3017 151.893 15.0274C151.457 14.6984 150.856 14.5338 150.037 14.5338H148.071V18.7569ZM159.592 23.9123H161.066C162.485 23.9123 163.577 23.5283 164.342 22.7057C165.052 21.9379 165.434 20.7861 165.434 19.2505V19.1408C165.434 16.0695 163.96 14.5338 161.011 14.5338H159.592V23.9123ZM157.135 25.8318V12.6143H161.175C163.414 12.6143 165.106 13.2176 166.253 14.3693C167.399 15.521 168 17.1115 168 19.0859V19.2505C168 21.2797 167.399 22.8702 166.253 24.0768C165.052 25.2285 163.359 25.8318 161.12 25.8318H157.135Z" fill="#011C39"></path></svg>