<svg xmlns="http://www.w3.org/2000/svg" width="102" height="30" viewBox="0 0 102 30" fill="none"><path d="M37.8148 14.7993C37.8148 12.4153 37.8302 10.0313 37.8028 7.64739C37.7977 7.15697 37.943 7.03267 38.4116 7.06162C39.0461 7.10078 39.6891 7.10419 40.3236 7.06162C40.7973 7.02926 40.8742 7.21146 40.8691 7.63376C40.8452 9.36384 40.8554 11.0939 40.864 12.824C40.864 13.0181 40.7254 13.3008 41.1393 13.3229C43.3283 13.4404 45.3172 13.0232 46.8957 11.3578C47.9303 10.2663 48.4793 8.97559 48.599 7.50265C48.6297 7.13484 48.7546 7.0548 49.0932 7.06502C49.7944 7.08716 50.4972 7.09567 51.1967 7.06332C51.6208 7.04288 51.6824 7.20806 51.6533 7.58098C51.4241 10.4553 50.1774 12.7814 47.8516 14.5132C47.4857 14.7856 47.4959 14.8776 47.8533 15.1449C50.1569 16.8631 51.4036 19.1653 51.6482 22.0158C51.6858 22.4483 51.6122 22.6254 51.1317 22.5982C50.475 22.559 49.8132 22.5675 49.1548 22.5965C48.7649 22.6135 48.6332 22.5199 48.5887 22.0959C48.2809 19.0819 46.2253 16.8988 43.2377 16.4152C42.6134 16.3148 41.9636 16.3863 41.3308 16.3352C40.917 16.3028 40.8434 16.4612 40.8469 16.8358C40.8657 18.5438 40.8281 20.2534 40.8708 21.9613C40.8845 22.5148 40.7083 22.6391 40.197 22.5999C39.6258 22.5556 39.0478 22.5556 38.4766 22.5999C37.9618 22.6391 37.7925 22.496 37.8011 21.9545C37.8336 19.5706 37.8148 17.1866 37.8148 14.8027V14.7993Z" fill="#011C39"></path><path d="M26.5176 16.4289C26.35 16.1632 26.2388 16.2841 26.0986 16.4595C25.6112 17.0708 25.1306 17.6907 24.6125 18.2764C24.3816 18.537 24.3953 18.7209 24.5783 18.9882C25.1152 19.7749 25.5821 20.6042 25.9891 21.4641C26.533 22.6118 27.0238 23.7817 26.9451 25.0928C26.8887 26.0566 26.3072 26.6577 25.3376 26.7258C25.0212 26.748 24.6911 26.7582 24.385 26.6952C21.8677 26.1792 19.7693 24.8153 17.7 23.4002C17.3153 23.138 17.6915 23.0205 17.83 22.8979C19.942 21.0554 21.919 19.0836 23.7163 16.938C25.8574 14.3821 27.7523 11.6678 29.0075 8.5601C29.483 7.38004 29.8096 6.16593 29.8831 4.88881C30.0302 2.30903 28.7254 0.362702 25.919 0.00340565C25.5342 0.00340565 25.1512 0.00170283 24.7664 0C21.7599 0.378027 19.1571 1.72666 16.6534 3.3171C16.3815 3.48909 16.3542 3.59637 16.6295 3.80581C17.2195 4.25366 17.7975 4.71853 18.3533 5.20724C18.6646 5.48139 18.8989 5.46777 19.2392 5.243C20.3542 4.50397 21.5359 3.88074 22.7912 3.40906C23.547 3.12468 24.3183 2.8948 25.1426 2.91864C26.2816 2.94929 26.9126 3.56742 26.9502 4.68617C26.9776 5.47969 26.7912 6.23234 26.5141 6.96626C25.854 8.71676 24.8519 10.2783 23.8224 11.8295C23.5009 12.3148 23.3367 12.2825 22.9758 11.8738C20.2789 8.81723 17.3067 6.05695 13.9155 3.76154C11.2665 1.96676 8.48918 0.449546 5.24161 0.00340565C4.81578 0.00340565 4.38824 0.00340565 3.96241 0.00340565C3.38267 0.117495 2.80293 0.228179 2.26766 0.498928C0.80377 1.24647 0.206928 2.5304 0 4.06294C0.0034203 4.44267 0.00684059 4.8224 0.00855074 5.20383C0.0290725 5.28557 0.0581451 5.3656 0.0701161 5.44904C0.485682 8.26892 1.79908 10.7125 3.30401 13.0794C3.53659 13.4438 3.66143 13.4404 3.91453 13.0913C4.32326 12.5277 4.76789 11.9862 5.2399 11.4736C5.52378 11.1637 5.51523 10.9321 5.29804 10.5916C4.86708 9.91555 4.45323 9.2242 4.09239 8.51072C3.48357 7.30171 2.92093 6.06546 2.95001 4.67085C2.97224 3.59807 3.6392 2.94929 4.72001 2.92545C5.03639 2.91864 5.35961 2.93567 5.66743 3.00038C8.11637 3.51633 10.1514 4.85986 12.1763 6.22042C12.5559 6.47414 12.2772 6.62569 12.0873 6.78576C9.57854 8.9177 7.29891 11.2727 5.28094 13.8661C2.78583 17.0725 0.591711 20.439 0 24.5786V25.5935C0.0701161 25.9442 0.118 26.3018 0.218899 26.6441C0.868755 28.8646 2.9825 30.0072 5.58877 29.5951C8.4259 29.1456 10.8834 27.8395 13.2622 26.3376C13.5358 26.1656 13.5632 26.0515 13.2861 25.8438C12.6927 25.3993 12.1079 24.9413 11.5538 24.4509C11.2647 24.1954 11.0493 24.1716 10.7261 24.3896C9.75982 25.0452 8.72176 25.5815 7.64778 26.0413C6.68839 26.4517 5.70677 26.794 4.6345 26.7344C3.64433 26.6799 3.02012 26.0754 2.95343 25.0928C2.92948 24.7352 2.94659 24.3811 3.02525 24.0252C3.56224 21.5969 4.9201 19.5808 6.29164 17.5697C6.52251 17.2309 6.6559 17.4557 6.81323 17.6362C9.49132 20.7149 12.4721 23.4683 15.8462 25.7859C18.4115 27.5483 21.0964 29.0826 24.2431 29.5713C27.6651 30.1025 30.0884 28.2124 29.8746 24.7914C29.6779 21.6446 28.1405 19.0172 26.5141 16.4306L26.5176 16.4289ZM14.9706 19.608C12.3524 19.6302 10.1703 17.4284 10.1874 14.7822C10.2027 12.1905 12.3233 10.0705 14.9279 10.0433C17.5478 10.016 19.7762 12.2229 19.7693 14.835C19.7608 17.4267 17.5906 19.5859 14.9706 19.6063V19.608Z" fill="#011C39"></path><path d="M84.2042 17.5374C84.011 16.2773 83.3594 15.3084 82.3573 14.5251C82.4394 14.4349 82.5078 14.3599 82.5745 14.2816C83.7322 12.9466 84.0469 11.4328 83.3628 9.8083C82.6583 8.13442 81.326 7.23362 79.4893 7.21149C76.512 7.17743 73.5346 7.20468 70.5572 7.19787C70.2563 7.19787 70.0493 7.18424 70.051 7.60825C70.0664 12.4187 70.063 17.2309 70.0562 22.0414C70.0562 22.3138 70.087 22.4603 70.4273 22.4586C73.7022 22.4416 76.9788 22.5012 80.2521 22.4177C82.6839 22.3564 84.5702 19.9197 84.2042 17.5357V17.5374ZM73.037 10.5303C73.0301 10.2289 73.1208 10.1369 73.4303 10.1386C75.32 10.1523 77.2097 10.1318 79.1011 10.1523C80.0332 10.1625 80.7172 10.8828 80.7018 11.7665C80.6865 12.6248 80.0109 13.2923 79.0994 13.311C78.1657 13.3297 77.2302 13.3144 76.2965 13.3161C75.3405 13.3161 74.3846 13.3059 73.4303 13.3229C73.1225 13.328 73.0318 13.2361 73.0387 12.933C73.0575 12.1327 73.0575 11.3306 73.0387 10.5303H73.037ZM79.7117 19.4769C78.6736 19.5127 77.6321 19.4855 76.5924 19.4855V19.4889C75.5526 19.4889 74.5128 19.4769 73.473 19.4957C73.1447 19.5025 73.0267 19.4156 73.037 19.0751C73.0609 18.2747 73.0541 17.4744 73.0387 16.6741C73.0335 16.4084 73.1037 16.308 73.391 16.3097C75.5133 16.3216 77.6355 16.3029 79.7578 16.3301C80.63 16.342 81.2782 17.047 81.2816 17.8831C81.285 18.7294 80.6146 19.4463 79.7134 19.4769H79.7117Z" fill="#011C39"></path><path d="M93.4306 7.00714C89.0577 6.985 85.516 10.4843 85.516 14.8265C85.516 19.1449 89.0286 22.6459 93.3656 22.6493C97.7025 22.6527 101.249 19.1534 101.258 14.8606C101.268 10.549 97.759 7.02757 93.4323 7.00543L93.4306 7.00714ZM93.3365 19.6217C90.6789 19.5978 88.5498 17.4267 88.5789 14.7686C88.6079 12.1258 90.8055 9.99559 93.4579 10.0365C96.1052 10.0773 98.2292 12.2689 98.195 14.9202C98.1608 17.5051 95.9496 19.6438 93.3365 19.6217Z" fill="#011C39"></path><path d="M60.5015 7.00712C56.1321 7.01393 52.6041 10.5371 52.6229 14.8776C52.64 19.1721 56.2056 22.6765 60.534 22.651C64.8675 22.6254 68.3973 19.1006 68.3836 14.8129C68.3682 10.5149 64.8214 7.00201 60.5015 7.00712ZM60.4776 19.6216C57.8371 19.608 55.6789 17.4403 55.684 14.8095C55.6909 12.1837 57.873 10.0279 60.5169 10.0364C63.1437 10.045 65.3327 12.2382 65.3173 14.8486C65.3019 17.4693 63.1044 19.6353 60.4759 19.6216H60.4776Z" fill="#011C39"></path></svg>