<svg xmlns="http://www.w3.org/2000/svg" width="116" height="81" viewBox="0 0 116 81" fill="none"><path d="M68.7355 34.5034V48.2274H64.7053V46.2231C64.2938 46.9195 63.6966 47.4909 62.9788 47.875C62.236 48.261 61.4069 48.4566 60.5676 48.4438C58.8315 48.4438 57.534 47.9653 56.6752 47.0082C55.8163 46.0512 55.3878 44.6075 55.3896 42.6771V34.5034H59.5232V42.7588C59.5232 44.4188 60.2447 45.2489 61.6878 45.2489C62.5457 45.2489 63.2402 44.9604 63.7711 44.3835C64.302 43.8065 64.567 43.0486 64.5661 42.1097V34.5034H68.7355ZM84.5395 28.2441V48.2274H80.4555V46.1973C80.0324 46.9028 79.415 47.4752 78.6753 47.8478C77.8698 48.254 76.9755 48.4587 76.0712 48.4438C74.9422 48.4622 73.8336 48.1461 72.8883 47.5362C71.9348 46.9067 71.1799 46.0249 70.71 44.9917C70.1891 43.9031 69.9287 42.6535 69.9287 41.2429C69.9287 39.8324 70.1891 38.5918 70.71 37.5214C71.1792 36.5063 71.9296 35.6431 72.8746 35.0313C73.8298 34.4364 74.9407 34.1312 76.0698 34.1537C76.9545 34.1429 77.8288 34.3427 78.6188 34.7361C79.3547 35.0957 79.9724 35.6538 80.4004 36.3458V28.2441H84.5395ZM79.6398 44.2882C80.191 43.5942 80.4665 42.5964 80.4665 41.2947C80.4665 40.0129 80.1878 39.025 79.6302 38.331C79.0726 37.6371 78.2918 37.2896 77.2878 37.2887C76.2636 37.2887 75.4686 37.6316 74.9028 38.3174C74.3369 39.0032 74.054 39.9775 74.054 41.2402C74.054 42.5392 74.3369 43.5453 74.9028 44.2583C75.4686 44.9713 76.2636 45.3278 77.2878 45.3278C78.3047 45.3296 79.0887 44.9831 79.6398 44.2882ZM100.343 34.5034V48.2274H96.2581V46.1973C95.8349 46.9033 95.217 47.4758 94.4765 47.8478C93.6712 48.2529 92.7774 48.4566 91.8738 48.4411C90.7456 48.4712 89.6338 48.1695 88.6797 47.5742C87.7256 46.9789 86.9722 46.1169 86.5153 45.0978C85.9945 44.0247 85.7341 42.7842 85.7341 41.3763C85.7341 39.9684 85.9945 38.7139 86.5153 37.6126C86.9826 36.5744 87.7378 35.688 88.6937 35.0558C89.6388 34.4484 90.7463 34.1342 91.8738 34.1537C92.7809 34.1393 93.6768 34.3538 94.4765 34.7769C95.2148 35.1643 95.8311 35.7447 96.2581 36.4546V34.5034H100.343ZM95.4369 44.3004C95.9881 43.6147 96.2636 42.6222 96.2636 41.3232C96.2636 40.0242 95.9881 39.0264 95.4369 38.3297C94.8858 37.6339 94.0999 37.2865 93.0794 37.2874C92.0589 37.2883 91.2638 37.6498 90.6943 38.3719C90.1285 39.0976 89.8451 40.0995 89.8442 41.3777C89.8433 42.6558 90.1221 43.6346 90.6806 44.3141C91.2381 44.9899 92.0377 45.3282 93.0794 45.3291C94.1018 45.33 94.8876 44.9876 95.4369 44.3018V44.3004ZM54.5478 48.4207H49.4125L43.8873 42.1982V48.4207H39.6959V28.2441H43.8873V40.4973L49.1617 34.5496H54.1868L48.2179 41.2171L54.5478 48.4207ZM28.2129 48.4275L20.169 39.2835L24.5616 48.4275H21.5165L17.0357 39.1053L18.8986 48.4275H17.0275L15.1632 39.0917V48.4275H14.4288V28.2441H15.1632V38.3134L17.0536 28.2441H18.9193L17.0206 38.3569L21.5882 28.2441H24.6001L20.0505 38.3202L28.3121 28.2441H33.0326L24.4872 38.6685L33.0726 48.4275H28.2129Z" fill="#011C39"></path><path d="M103.814 48.2057C105.068 48.2057 106.084 47.2023 106.084 45.9646C106.084 44.7269 105.068 43.7235 103.814 43.7235C102.561 43.7235 101.545 44.7269 101.545 45.9646C101.545 47.2023 102.561 48.2057 103.814 48.2057Z" fill="#011C39"></path></svg>