<svg xmlns="http://www.w3.org/2000/svg" width="180" height="40" viewBox="0 0 180 40" fill="none"><path fill-rule="evenodd" clip-rule="evenodd" d="M62.5309 12.6705V14.9009H57.2814V29.3124H54.8053V14.9009H49.5822V12.6705H62.5309Z" fill="#011C39"></path><path fill-rule="evenodd" clip-rule="evenodd" d="M64.6588 17.4819V19.6629C64.8051 19.0089 65.1684 18.4254 65.688 18.0095C66.2073 17.5905 66.9951 17.3816 68.0512 17.3829H68.4275V19.7886H67.3118C66.2732 19.7886 65.572 20.0641 65.2082 20.6153C64.8445 21.1664 64.6626 22.0438 64.6626 23.2476V29.3124H62.2335V17.4819H64.6588ZM73.0034 29.6134C71.7654 29.6134 70.7832 29.2959 70.0569 28.661C69.3427 28.0538 68.9415 27.1496 68.9675 26.2057C68.9449 25.6377 69.064 25.073 69.3137 24.5638C69.543 24.1399 69.8703 23.7785 70.2677 23.5105C70.714 23.2149 71.2027 22.9907 71.7164 22.8457C72.2771 22.6794 72.8792 22.5207 73.5227 22.3695C74.5137 22.1524 75.3064 21.9772 75.901 21.8438C76.4937 21.7105 76.8417 21.4838 76.964 21.1676V20.9924C76.9676 20.5141 76.7531 20.0608 76.3827 19.7638C75.9951 19.4286 75.3553 19.2616 74.4635 19.2629C73.6055 19.2629 72.9413 19.4534 72.4709 19.8343C71.9977 20.2159 71.7131 20.7879 71.692 21.4V21.5505H69.2404C69.2717 20.2311 69.7735 19.1911 70.7456 18.4305C71.7177 17.6699 72.9677 17.2889 74.4955 17.2876C75.9819 17.2876 77.1497 17.6387 77.9989 18.341C78.8481 19.0432 79.2733 20.1461 79.2746 21.6495V27.4895L79.299 29.3181H76.9471V27.5391C76.5748 28.2186 76.0045 28.7654 75.3139 29.1048C74.5928 29.4523 73.802 29.6264 73.0034 29.6134ZM73.4493 27.7334C74.2761 27.7378 75.0841 27.4844 75.7636 27.0076C76.4648 26.5226 76.8649 25.7035 76.964 24.5505V23.0972C76.5362 23.372 76.0625 23.5657 75.5661 23.6686L73.8727 24.0686C73.2744 24.2109 72.6992 24.4386 72.1643 24.7448C71.6895 25.0208 71.4108 25.5459 71.4455 26.0991C71.4307 26.5514 71.6222 26.9855 71.9648 27.2762C72.3123 27.581 72.8071 27.7334 73.4493 27.7334ZM86.2739 29.5638C85.5635 29.5687 84.8595 29.4281 84.2042 29.1505C83.5664 28.8779 82.9954 28.4669 82.5315 27.9467C82.0411 27.3843 81.6669 26.7282 81.4308 26.0172C80.902 24.3505 80.902 22.5581 81.4308 20.8914C81.6691 20.1699 82.0428 19.5018 82.5315 18.9238C82.9933 18.3889 83.5639 17.9613 84.2042 17.6705C84.8667 17.3748 85.5838 17.2255 86.3077 17.2324C87.0691 17.2199 87.8203 17.4097 88.4866 17.7829C89.1224 18.143 89.6652 18.6501 90.0708 19.2629V12.4191H92.4397V29.3124H90.0614V27.5829C89.6568 28.1942 89.1085 28.6943 88.4659 29.0381C87.7895 29.3944 87.0363 29.575 86.2739 29.5638ZM86.8929 27.4591C87.8214 27.4879 88.7082 27.0687 89.2824 26.3295C89.8845 25.5791 90.1856 24.6184 90.1856 23.4476V23.2572C90.1856 22.1041 89.8927 21.1638 89.3069 20.4362C88.7211 19.7086 87.9165 19.3454 86.8929 19.3467C85.9745 19.3143 85.0912 19.706 84.4921 20.4114C83.8812 21.1226 83.5758 22.113 83.5758 23.3829V23.5581C83.5758 24.8114 83.8812 25.7765 84.4921 26.4534C85.1082 27.1284 85.9857 27.4961 86.8929 27.4591ZM100.139 29.5238C98.3552 29.5238 96.9397 28.9683 95.8923 27.8572C94.8449 26.7461 94.3212 25.2857 94.3212 23.4762C94.3126 22.6209 94.4593 21.7712 94.7539 20.9695C95.0187 20.2414 95.4221 19.5729 95.9412 19.0019C96.4494 18.4563 97.0655 18.0254 97.7493 17.7372C98.4746 17.4314 99.2536 17.2778 100.039 17.2857C101.756 17.2857 103.102 17.833 104.075 18.9276C105.048 20.0222 105.536 21.4965 105.537 23.3505V24.2534H96.7465C96.8117 25.2578 97.146 26.0514 97.7493 26.6343C98.3527 27.2172 99.1492 27.5099 100.139 27.5124C101.129 27.5124 101.871 27.2991 102.367 26.8724C102.842 26.4757 103.208 25.9622 103.432 25.381L105.586 26.2343C105.162 27.164 104.502 27.9628 103.672 28.5486C102.803 29.1987 101.625 29.5238 100.139 29.5238ZM99.9902 19.2972C99.1718 19.2754 98.377 19.5766 97.7738 20.1372C97.153 20.7338 96.7701 21.5404 96.6976 22.4038H103.036C102.986 21.4019 102.693 20.6337 102.156 20.0991C101.619 19.5645 100.897 19.294 99.9902 19.2876V19.2972ZM107.492 29.3124V12.6705H113.187C115.844 12.6705 117.882 13.3848 119.302 14.8134C120.722 16.2419 121.432 18.3181 121.432 21.0419C121.432 23.7162 120.702 25.7632 119.24 27.1829C117.779 28.6026 115.678 29.3124 112.939 29.3124H107.492ZM109.968 14.8762V27.1067H113.014C114.945 27.1067 116.397 26.6057 117.372 25.6038C118.346 24.6019 118.833 23.0978 118.832 21.0914V20.941C118.832 18.8699 118.37 17.341 117.445 16.3543C116.521 15.3676 115.101 14.8749 113.187 14.8762H109.968ZM128.509 29.5238C126.725 29.5238 125.309 28.9683 124.262 27.8572C123.215 26.7461 122.691 25.2857 122.691 23.4762C122.682 22.6209 122.829 21.7712 123.124 20.9695C123.389 20.2414 123.792 19.5729 124.311 19.0019C124.819 18.4563 125.435 18.0254 126.119 17.7372C126.844 17.4314 127.623 17.2778 128.409 17.2857C130.126 17.2857 131.471 17.833 132.445 18.9276C133.418 20.0222 133.906 21.4965 133.907 23.3505V24.2534H125.122C125.188 25.2578 125.523 26.0514 126.125 26.6343C126.727 27.2172 127.523 27.5099 128.514 27.5124C129.504 27.5124 130.247 27.2991 130.742 26.8724C131.217 26.4757 131.584 25.9622 131.807 25.381L133.965 26.2305C133.544 27.1607 132.886 27.9608 132.059 28.5486C131.181 29.1987 129.998 29.5238 128.509 29.5238ZM128.36 19.2972C127.542 19.2754 126.747 19.5766 126.144 20.1372C125.523 20.7338 125.14 21.5404 125.067 22.4038H131.406C131.356 21.4019 131.063 20.6337 130.526 20.0991C129.989 19.5645 129.268 19.294 128.364 19.2876L128.36 19.2972ZM142.005 29.5638C141.251 29.5769 140.506 29.396 139.839 29.0381C139.211 28.6928 138.673 28.2028 138.266 27.6076V33.9753H135.865V17.4819H138.242V19.2381C139.088 17.9635 140.514 17.2093 142.031 17.2343C142.743 17.2297 143.447 17.3743 144.101 17.6591C144.738 17.9345 145.31 18.3428 145.781 18.8572C146.274 19.4141 146.649 20.0667 146.884 20.7753C147.156 21.5942 147.29 22.454 147.279 23.3181V23.3429C147.291 24.2201 147.157 25.0932 146.884 25.9257C146.647 26.6444 146.272 27.3086 145.781 27.88C145.318 28.4097 144.748 28.8331 144.11 29.1219C143.448 29.4191 142.73 29.5698 142.005 29.5638ZM141.412 27.4591C142.331 27.4904 143.214 27.0981 143.813 26.3924C144.423 25.6864 144.728 24.6984 144.729 23.4286V23.2534C144.729 22 144.424 21.0349 143.813 20.3581C143.198 19.6799 142.321 19.3088 141.412 19.3429C140.479 19.3074 139.586 19.7267 139.009 20.4705C138.415 21.2235 138.118 22.1841 138.118 23.3524V23.5543C138.118 24.7073 138.411 25.647 138.998 26.3734C139.585 27.0997 140.39 27.4616 141.412 27.4591ZM154.335 29.5238C152.619 29.5238 151.223 28.9524 150.146 27.8095C149.07 26.6667 148.529 25.2064 148.524 23.4286C148.516 22.5832 148.662 21.7435 148.957 20.9524C149.229 20.2291 149.642 19.5685 150.171 19.0095C150.696 18.4588 151.328 18.0242 152.028 17.7334C153.548 17.1314 155.236 17.1314 156.756 17.7334C157.452 18.0187 158.081 18.4497 158.602 18.9981C159.124 19.5597 159.532 20.2199 159.802 20.941C160.097 21.732 160.244 22.5717 160.235 23.4172C160.243 24.2563 160.096 25.0896 159.802 25.8743C159.53 26.5972 159.115 27.2558 158.581 27.8095C158.05 28.3526 157.414 28.7792 156.713 29.0629C155.958 29.3727 155.149 29.5293 154.335 29.5238ZM154.335 27.4419C155.374 27.4419 156.209 27.087 156.837 26.3772C157.465 25.6673 157.779 24.7105 157.778 23.5067V23.4076C157.778 22.1708 157.473 21.1892 156.863 20.4629C156.254 19.7365 155.428 19.3727 154.387 19.3714C153.347 19.3714 152.518 19.7353 151.898 20.4629C151.278 21.1905 150.969 22.1721 150.97 23.4076V23.5067C150.97 24.7105 151.271 25.6673 151.874 26.3772C152.476 27.087 153.296 27.4375 154.335 27.4286V27.4419ZM167.268 29.3124H165.18C164.124 29.2629 163.414 28.9918 163.05 28.4991C162.686 28.0064 162.498 27.2921 162.485 26.3562V19.5886H160.628V17.4819H162.485V15.1772L164.837 13.6972V17.4819H167.362V19.5886H164.834V26.0553C164.812 26.3522 164.9 26.6468 165.08 26.8819C165.293 27.0838 165.581 27.1842 165.872 27.1581H167.268V29.3124ZM175.707 13.9581H176.734C177.024 13.9349 177.313 14.0092 177.556 14.1695C177.729 14.3066 177.827 14.5189 177.82 14.741C177.835 15.1504 177.53 15.5 177.127 15.5372C177.342 15.5942 177.526 15.7345 177.639 15.9276C177.77 16.174 177.849 16.4451 177.871 16.7238L177.884 16.8324H177.429V16.741C177.407 16.4754 177.317 16.22 177.169 16C177.009 15.8012 176.762 15.6967 176.51 15.7219H176.134V16.8305H175.711L175.707 13.9581ZM176.13 14.3257V15.3657H176.676C176.79 15.3679 176.903 15.3498 177.011 15.3124C177.093 15.2846 177.169 15.2391 177.233 15.1791C177.287 15.1259 177.329 15.0607 177.355 14.9886C177.38 14.9224 177.393 14.8519 177.393 14.781C177.402 14.6456 177.343 14.5148 177.235 14.4343C177.081 14.3477 176.906 14.3086 176.73 14.3219L176.13 14.3257Z" fill="#011C39"></path><path fill-rule="evenodd" clip-rule="evenodd" d="M176.796 18.3962C175.597 18.397 174.515 17.6661 174.055 16.5444C173.596 15.4227 173.849 14.1312 174.697 13.2723C175.545 12.4134 176.821 12.1562 177.929 12.6207C179.037 13.0852 179.76 14.18 179.76 15.3943C179.758 17.0506 178.432 18.393 176.796 18.3962ZM176.796 12.8133C175.764 12.8126 174.833 13.4416 174.438 14.4069C174.042 15.3722 174.26 16.4836 174.99 17.2225C175.72 17.9615 176.818 18.1823 177.772 17.7821C178.725 17.3818 179.347 16.4393 179.346 15.3943C179.344 13.9697 178.204 12.8154 176.796 12.8133ZM30.8044 13.5695C31.4241 13.5703 31.9831 13.193 32.2208 12.6137C32.4584 12.0344 32.3279 11.3672 31.89 10.9234C31.4521 10.4795 30.7932 10.3465 30.2207 10.5864C29.6481 10.8263 29.2748 11.3918 29.2748 12.019C29.2743 12.4301 29.4352 12.8245 29.7221 13.1153C30.0091 13.4061 30.3984 13.5695 30.8044 13.5695ZM26.4487 14.7581C26.4479 15.2399 26.7342 15.6747 27.1738 15.8595C27.6134 16.0442 28.1196 15.9425 28.4562 15.6018C28.7927 15.2611 28.8932 14.7486 28.7107 14.3035C28.5282 13.8585 28.0987 13.5688 27.6228 13.5695C27.3112 13.569 27.0123 13.6941 26.792 13.9171C26.5717 14.1401 26.4482 14.4427 26.4487 14.7581ZM27.7451 10.8267C28.5886 10.8256 29.2717 10.1327 29.271 9.27873C29.2703 8.42478 28.5861 7.73298 27.7426 7.73333C26.899 7.73368 26.2154 8.42604 26.2154 9.28C26.2154 9.69053 26.3766 10.0842 26.6635 10.3743C26.9505 10.6644 27.3395 10.8272 27.7451 10.8267ZM24.4486 8.32762C25.228 8.32656 25.8589 7.68612 25.8579 6.89714C25.8569 6.10816 25.2242 5.46942 24.4449 5.47047C23.6655 5.47153 23.0346 6.11197 23.0356 6.90095C23.0361 7.27983 23.1852 7.64299 23.4502 7.91054C23.7152 8.1781 24.0744 8.32812 24.4486 8.32762ZM20.8022 6.31239C21.3271 6.31392 21.801 5.99494 22.0028 5.50443C22.2045 5.01391 22.0942 4.44866 21.7233 4.07268C21.3525 3.6967 20.7943 3.58419 20.3094 3.7877C19.8246 3.99121 19.5088 4.47057 19.5096 5.0019C19.5096 5.72491 20.088 6.31133 20.8022 6.31239ZM17.2725 4.76191C17.7501 4.76344 18.1816 4.47324 18.3652 4.02685C18.5489 3.58047 18.4486 3.06601 18.1111 2.72381C17.7736 2.38161 17.2656 2.2792 16.8243 2.46443C16.3831 2.64965 16.0957 3.08596 16.0965 3.56952C16.096 3.88558 16.2197 4.18888 16.4403 4.41255C16.6609 4.63622 16.9602 4.76191 17.2725 4.76191ZM13.2159 3.92571C13.8329 3.92466 14.3323 3.41764 14.3316 2.79301C14.3309 2.16839 13.8304 1.66251 13.2134 1.66286C12.5964 1.66321 12.0964 2.16966 12.0964 2.79428C12.0974 3.41946 12.5983 3.92571 13.2159 3.92571ZM9.15364 4.16191C9.7369 4.15875 10.2075 3.67809 10.2054 3.08764C10.2033 2.49718 9.72939 2.01992 9.14613 2.02096C8.56287 2.02201 8.09058 2.50096 8.09058 3.09142C8.09107 3.37617 8.20342 3.64902 8.40283 3.84983C8.60225 4.05064 8.87237 4.16291 9.15364 4.16191ZM5.50347 3.56762C4.9839 3.56762 4.5627 3.99401 4.5627 4.52C4.5627 5.04598 4.9839 5.47238 5.50347 5.47238C6.02304 5.47238 6.44423 5.04598 6.44423 4.52C6.44423 4.26741 6.34512 4.02517 6.16869 3.84656C5.99226 3.66796 5.75297 3.56762 5.50347 3.56762ZM3.62193 7.37714C3.62193 6.99194 3.39272 6.64467 3.04118 6.49725C2.68964 6.34984 2.285 6.43133 2.01595 6.7037C1.74689 6.97608 1.6664 7.38572 1.81201 7.7416C1.95763 8.09748 2.30066 8.32952 2.68117 8.32952C3.19927 8.32742 3.61818 7.90164 3.61817 7.37714H3.62193ZM1.09127 10.3562C0.669383 10.3572 0.328217 10.7043 0.329252 11.1314C0.330296 11.5585 0.673147 11.9039 1.09504 11.9029C1.51693 11.9018 1.85809 11.5547 1.85706 11.1276C1.85706 10.9224 1.77626 10.7256 1.63254 10.5808C1.48882 10.436 1.29402 10.3552 1.09127 10.3562ZM1.39044 15.1771C1.39116 14.9101 1.23224 14.6693 0.988349 14.5676C0.744457 14.466 0.464079 14.5239 0.278959 14.7141C0.0938378 14.9042 0.0407769 15.1889 0.144708 15.4343C0.248638 15.6797 0.488898 15.837 0.752597 15.8324C1.10638 15.8272 1.39047 15.5353 1.39044 15.1771ZM1.26814 18.4438C0.945405 18.4449 0.684066 18.7095 0.683052 19.0362C0.682051 19.3629 0.941753 19.6292 1.26447 19.6323C1.58719 19.6355 1.85188 19.3743 1.85706 19.0476C1.85958 18.888 1.79859 18.7341 1.68782 18.6205C1.57705 18.507 1.4258 18.4433 1.26814 18.4438ZM2.79782 22.3752C2.47386 22.3763 2.21198 22.6428 2.21267 22.9708C2.21336 23.2988 2.47636 23.5642 2.80033 23.5638C3.1243 23.5635 3.38674 23.2975 3.38674 22.9695C3.38674 22.8116 3.32464 22.6601 3.21414 22.5486C3.10364 22.4371 2.95384 22.3747 2.79782 22.3752ZM5.03685 22.9695C4.79924 22.9695 4.58507 23.1145 4.49432 23.3368C4.40357 23.5591 4.45414 23.8149 4.62242 23.9847C4.7907 24.1545 5.0435 24.2049 5.2628 24.1123C5.4821 24.0197 5.62465 23.8024 5.62389 23.5619C5.62285 23.2344 5.36033 22.9695 5.03685 22.9695ZM4.03399 19.8762C3.74303 19.8762 3.50716 20.115 3.50716 20.4095C3.50716 20.7041 3.74303 20.9429 4.03399 20.9429C4.32495 20.9429 4.56082 20.7041 4.56082 20.4095C4.56082 20.2681 4.50531 20.1324 4.40651 20.0324C4.30771 19.9324 4.17371 19.8762 4.03399 19.8762ZM2.79782 17.3181C2.79553 17.5366 2.92381 17.7349 3.12259 17.8202C3.32137 17.9054 3.55131 17.8607 3.70477 17.707C3.85823 17.5533 3.90483 17.321 3.82276 17.1189C3.74068 16.9167 3.54617 16.7848 3.3303 16.7848C3.18975 16.7837 3.05459 16.8394 2.95467 16.9395C2.85476 17.0396 2.79832 17.1758 2.79782 17.3181ZM3.03113 13.9238C3.02731 14.1673 3.16927 14.389 3.39041 14.4849C3.61155 14.5808 3.868 14.5318 4.03947 14.361C4.21093 14.1902 4.26338 13.9314 4.17223 13.706C4.08107 13.4806 3.86438 13.3334 3.62382 13.3333C3.29971 13.3323 3.03526 13.5957 3.03113 13.9238ZM4.85998 10.2324C4.43809 10.2324 4.09608 10.5786 4.09608 11.0057C4.09608 11.4328 4.43809 11.779 4.85998 11.779C5.28188 11.779 5.62389 11.4328 5.62389 11.0057C5.62285 10.579 5.28145 10.2334 4.85998 10.2324ZM8.09058 8.68762C8.09058 8.30241 7.86137 7.95514 7.50982 7.80773C7.15828 7.66032 6.75364 7.7418 6.48459 8.01418C6.21553 8.28656 6.13504 8.6962 6.28065 9.05208C6.42627 9.40796 6.7693 9.64 7.14981 9.64C7.66938 9.64 8.09058 9.2136 8.09058 8.68762ZM9.26465 7.49904C9.26465 8.02503 9.68585 8.45143 10.2054 8.45143C10.725 8.45143 11.1462 8.02503 11.1462 7.49904C11.1462 6.97306 10.725 6.54666 10.2054 6.54666C9.68805 6.54981 9.27029 6.97528 9.2703 7.49904H9.26465ZM13.4435 6.31238C12.8941 6.31343 12.4494 6.76502 12.4501 7.32126C12.4508 7.87751 12.8966 8.32796 13.446 8.32761C13.9955 8.32726 14.4408 7.87624 14.4408 7.32C14.4397 6.76542 13.997 6.31552 13.4492 6.31238H13.4435ZM16.5575 6.90476C16.0379 6.90476 15.6167 7.33115 15.6167 7.85714C15.6167 8.38313 16.0379 8.80952 16.5575 8.80952C17.077 8.80952 17.4982 8.38313 17.4982 7.85714C17.4982 7.33115 17.077 6.90476 16.5575 6.90476ZM19.6827 10.2324C20.2984 10.2261 20.7932 9.71677 20.789 9.09341C20.7849 8.47005 20.2835 7.96751 19.6677 7.96957C19.0519 7.97166 18.5538 8.47757 18.5538 9.10095C18.5543 9.40386 18.6745 9.69397 18.8877 9.90654C19.1008 10.1191 19.3892 10.2365 19.6883 10.2324H19.6827ZM21.3892 10.6476C21.3872 11.2701 21.8838 11.7766 22.4987 11.779C23.1136 11.7815 23.6142 11.279 23.617 10.6565C23.6197 10.034 23.1237 9.52696 22.5088 9.52381C21.8955 9.52485 21.398 10.0268 21.3949 10.6476H21.3892ZM23.9707 12.5524C23.9677 13.0587 24.2663 13.517 24.7273 13.7134C25.1883 13.9098 25.7207 13.8057 26.0763 13.4496C26.4318 13.0935 26.5404 12.5556 26.3513 12.0868C26.1622 11.6181 25.7127 11.3109 25.2125 11.3086C24.5313 11.3086 23.9784 11.8665 23.9764 12.5562L23.9707 12.5524ZM10.9524 11.0476C10.5315 10.3061 9.59655 10.0503 8.86403 10.4763C8.13151 10.9023 7.87882 11.8489 8.29962 12.5904C8.72042 13.332 9.65537 13.5879 10.3879 13.1619C10.7398 12.9573 10.9969 12.6196 11.1027 12.2231C11.2086 11.8266 11.1545 11.4038 10.9524 11.0476ZM12.9713 12.2057C12.409 12.5345 12.2163 13.2624 12.5409 13.8318C12.8656 14.4011 13.5846 14.5963 14.1471 14.2678C14.7095 13.9392 14.9025 13.2114 14.5781 12.6419C14.4223 12.3682 14.1652 12.1686 13.8637 12.0871C13.5622 12.0056 13.2411 12.049 12.9713 12.2076V12.2057ZM8.0473 14.5314C7.31738 14.9582 7.06684 15.9029 7.48741 16.6424C7.90798 17.382 8.84074 17.6369 9.57186 17.2122C10.303 16.7875 10.5562 15.8436 10.1377 15.1029C9.93631 14.7454 9.60238 14.484 9.20995 14.3768C8.81752 14.2695 8.39903 14.3252 8.0473 14.5314ZM9.1273 21.1829C9.80179 20.7878 10.0323 19.9141 9.64223 19.2312C9.25214 18.5483 8.38911 18.3147 7.71446 18.7095C7.0398 19.1042 6.80892 19.9779 7.19873 20.6609C7.38567 20.9895 7.69413 21.2293 8.05599 21.3272C8.41785 21.4251 8.80334 21.3732 9.1273 21.1829ZM9.26089 25.2267C9.87791 24.8641 10.0881 24.0641 9.73061 23.4391C9.37307 22.8141 8.58298 22.6005 7.96529 22.9619C7.34759 23.3233 7.13588 24.1229 7.49225 24.7486C7.66346 25.0502 7.94638 25.2702 8.27836 25.3599C8.61034 25.4497 8.96396 25.4017 9.26089 25.2267ZM10.1734 27.3048C9.93605 26.8873 9.47358 26.6558 9.0018 26.7183C8.53003 26.7807 8.14191 27.1248 8.01855 27.59C7.89518 28.0552 8.06088 28.5498 8.43832 28.8431C8.81577 29.1364 9.33058 29.1705 9.74256 28.9295C10.3034 28.6003 10.496 27.8741 10.1734 27.3048ZM9.97211 30.8571C9.43806 31.1701 9.25566 31.8621 9.56466 32.4028C9.87365 32.9436 10.5571 33.1285 11.0914 32.8159C11.6256 32.5033 11.8085 31.8115 11.4999 31.2705C11.3516 31.0104 11.1072 30.8208 10.8206 30.7432C10.5341 30.6657 10.2288 30.7067 9.97211 30.8571ZM12.2845 34.3162C11.9134 34.5331 11.708 34.9549 11.7639 35.3849C11.8198 35.815 12.1261 36.1685 12.54 36.2808C12.9539 36.393 13.3938 36.2418 13.6546 35.8976C13.9154 35.5535 13.9457 35.0842 13.7314 34.7086C13.5903 34.4603 13.3568 34.2796 13.0831 34.207C12.8094 34.1343 12.5184 34.1757 12.2751 34.3219L12.2845 34.3162ZM15.3909 36.901C15.0614 37.0936 14.8789 37.4681 14.9286 37.8501C14.9782 38.232 15.2503 38.546 15.6178 38.6457C15.9854 38.7454 16.376 38.6111 16.6077 38.3055C16.8393 37.9999 16.8663 37.5831 16.676 37.2495C16.5503 37.0292 16.3427 36.8689 16.0995 36.8045C15.8563 36.7401 15.5977 36.7769 15.3815 36.9067L15.3909 36.901ZM19.2481 37.9467C18.9185 38.1393 18.7361 38.5139 18.7857 38.8958C18.8354 39.2777 19.1074 39.5917 19.475 39.6914C19.8425 39.7911 20.2332 39.6568 20.4648 39.3512C20.6964 39.0456 20.7234 38.6288 20.5332 38.2952C20.4074 38.0749 20.1998 37.9146 19.9566 37.8502C19.7134 37.7858 19.4549 37.8226 19.2387 37.9524L19.2481 37.9467ZM23.331 37.6248C22.9658 37.8384 22.8408 38.3111 23.0515 38.6809C23.2623 39.0507 23.7292 39.1776 24.0946 38.9644C24.46 38.7512 24.5856 38.2786 24.3752 37.9086C24.2744 37.7302 24.1075 37.6 23.9115 37.5467C23.7154 37.4934 23.5065 37.5215 23.331 37.6248ZM27.0301 36.0152C26.7206 36.1962 26.6145 36.5969 26.7932 36.9102C26.9719 37.2236 27.3677 37.331 27.6773 37.1502C27.9869 36.9693 28.093 36.5687 27.9144 36.2552C27.8286 36.1047 27.6872 35.9948 27.5214 35.9498C27.3555 35.9048 27.1788 35.9283 27.0301 36.0152ZM30.1045 33.6705C29.898 33.791 29.7836 34.0256 29.8148 34.2649C29.8459 34.5041 30.0164 34.7008 30.2467 34.763C30.477 34.8252 30.7217 34.7408 30.8665 34.5491C31.0112 34.3574 31.0276 34.0963 30.9079 33.8876C30.83 33.7508 30.7015 33.651 30.5507 33.6102C30.4 33.5695 30.2394 33.5911 30.1045 33.6705ZM32.7029 30.3676C32.4964 30.4881 32.382 30.7228 32.4132 30.962C32.4443 31.2013 32.6148 31.3979 32.8451 31.4601C33.0754 31.5224 33.3201 31.438 33.4649 31.2463C33.6096 31.0546 33.626 30.7934 33.5063 30.5848C33.3441 30.3009 32.9854 30.2037 32.7048 30.3676H32.7029ZM32.8911 28.3295C32.7724 28.1213 32.5414 28.006 32.306 28.0373C32.0705 28.0687 31.8769 28.2407 31.8155 28.4729C31.7541 28.7052 31.837 28.952 32.0255 29.0982C32.214 29.2445 32.471 29.2613 32.6766 29.1409C32.8128 29.0637 32.9131 28.9346 32.9551 28.7823C32.9971 28.6301 32.9775 28.4671 32.9005 28.3295H32.8911ZM30.4451 31.5429C30.6966 31.3929 30.7805 31.065 30.6325 30.8103C30.4846 30.5556 30.1607 30.4705 29.9091 30.6201C29.6574 30.7697 29.5731 31.0975 29.7207 31.3524C29.7921 31.4777 29.9104 31.5686 30.0489 31.6045C30.1874 31.6404 30.3343 31.6181 30.4564 31.5429H30.4451ZM27.6228 32.779C27.4381 32.8884 27.3367 33.0997 27.3659 33.3143C27.3952 33.5289 27.5494 33.7044 27.7564 33.759C27.9635 33.8136 28.1827 33.7365 28.3116 33.5636C28.4406 33.3907 28.4538 33.1562 28.3453 32.9695C28.1977 32.7199 27.8801 32.6353 27.6303 32.779H27.6228ZM24.5408 34.1657C24.3343 34.2862 24.2199 34.5209 24.2511 34.7601C24.2822 34.9994 24.4527 35.196 24.683 35.2582C24.9133 35.3205 25.158 35.2361 25.3028 35.0444C25.4476 34.8527 25.4639 34.5915 25.3442 34.3829C25.1822 34.1024 24.8277 34.0057 24.5483 34.1657H24.5408ZM21.3422 34.3867C20.9789 34.6025 20.8568 35.0753 21.0692 35.4436C21.2815 35.8118 21.7483 35.9365 22.1126 35.7223C22.4768 35.5081 22.601 35.0359 22.3902 34.6667C22.1782 34.2974 21.7107 34.1721 21.346 34.3867H21.3422ZM19.4061 33.7295C19.2159 33.3959 18.8458 33.2112 18.4686 33.2615C18.0913 33.3118 17.7811 33.5871 17.6827 33.9592C17.5842 34.3313 17.7168 34.7268 18.0187 34.9613C18.3206 35.1958 18.7323 35.2231 19.0618 35.0305C19.2785 34.9048 19.437 34.6971 19.5023 34.4531C19.5676 34.209 19.5343 33.9487 19.4099 33.7295H19.4061ZM15.5753 31.2971C15.1261 31.5608 14.9728 32.143 15.2328 32.598C15.4928 33.053 16.0677 33.2087 16.5174 32.9459C16.9671 32.6831 17.1215 32.1012 16.8623 31.6457C16.7375 31.4265 16.5317 31.2665 16.2902 31.2011C16.0488 31.1357 15.7916 31.1702 15.5753 31.2971ZM15.1426 28.8705C14.9428 28.5139 14.5505 28.3143 14.1487 28.3647C13.7468 28.4151 13.4146 28.7057 13.3069 29.1009C13.1992 29.496 13.3373 29.9179 13.6568 30.1698C13.9763 30.4217 14.4142 30.4539 14.7663 30.2514C15.2458 29.9744 15.414 29.3572 15.1426 28.8705ZM12.6966 25.5524C12.25 25.8175 12.0988 26.398 12.3584 26.8515C12.618 27.305 13.1908 27.4609 13.64 27.2004C14.0892 26.9399 14.2461 26.3608 13.9911 25.9048C13.8669 25.6854 13.6617 25.525 13.4207 25.4589C13.1796 25.3928 12.9225 25.4264 12.706 25.5524H12.6966ZM13.2479 24C13.7819 23.687 13.9643 22.995 13.6553 22.4543C13.3463 21.9135 12.6629 21.7286 12.1286 22.0413C11.5943 22.3539 11.4114 23.0457 11.7201 23.5867C11.8684 23.8467 12.1128 24.0364 12.3993 24.1139C12.6859 24.1914 12.9912 24.1505 13.2479 24ZM13.1594 20.7619C13.6924 20.4494 13.8744 19.7588 13.566 19.2191C13.2577 18.6793 12.5757 18.4946 12.0423 18.8063C11.5089 19.1181 11.3259 19.8084 11.6335 20.3486C11.7811 20.6089 12.0252 20.7988 12.3116 20.8764C12.598 20.954 12.9031 20.9128 13.1594 20.7619ZM13.4962 17.5429C14.0837 17.1954 14.2825 16.4321 13.9409 15.8365C13.5992 15.2409 12.8458 15.0375 12.2565 15.3818C11.6672 15.7261 11.4643 16.4882 11.8028 17.0857C11.9678 17.3735 12.2394 17.5826 12.5574 17.6667C12.8754 17.7507 13.2134 17.7027 13.4962 17.5333V17.5429ZM20.4767 28.8286C19.7914 28.3334 18.8395 28.4937 18.3495 29.1868C17.8594 29.8798 18.0164 30.8437 18.7003 31.3408C19.3842 31.8378 20.3366 31.6802 20.8286 30.9886C21.0692 30.6547 21.1674 30.2371 21.1013 29.8292C21.0351 29.4214 20.8101 29.0575 20.4767 28.819V28.8286ZM18.2847 25.1733C18.0061 25.564 17.9876 26.0861 18.2378 26.496C18.488 26.9059 18.9576 27.1227 19.4274 27.0452C19.8971 26.9676 20.2744 26.6111 20.383 26.142C20.4917 25.6729 20.3103 25.1837 19.9235 24.9029C19.397 24.5205 18.6641 24.6415 18.2847 25.1733ZM24.8042 30.0648C25.1665 29.5565 25.1904 28.8773 24.8648 28.3442C24.5392 27.8111 23.9283 27.5293 23.3173 27.6303C22.7062 27.7313 22.2156 28.1952 22.0744 28.8054C21.9332 29.4157 22.1693 30.0519 22.6725 30.4171C23.3576 30.9144 24.3109 30.7568 24.8042 30.0648ZM28.2098 26.6876C27.5773 26.2296 26.6978 26.3769 26.2446 27.0167C25.7915 27.6566 25.936 28.5471 26.5675 29.0065C27.1991 29.466 28.0789 29.3207 28.5334 28.6819C28.7524 28.3742 28.8413 27.9909 28.7806 27.6167C28.7199 27.2425 28.5145 26.9082 28.2098 26.6876ZM32.0876 26.7295C32.3937 26.3001 32.4139 25.7263 32.1389 25.2759C31.8639 24.8255 31.3478 24.5873 30.8316 24.6724C30.3154 24.7575 29.9007 25.1491 29.781 25.6646C29.6614 26.1801 29.8604 26.7177 30.2851 27.0267C30.8644 27.4467 31.67 27.3139 32.0876 26.7295ZM34.9212 22.9352C34.3944 22.5533 33.6615 22.6756 33.2837 23.2086C32.9059 23.7416 33.0261 24.4837 33.5523 24.8666C34.0784 25.2495 34.8116 25.1285 35.1903 24.5962C35.3731 24.3401 35.4475 24.0208 35.397 23.7091C35.3465 23.3973 35.1753 23.1188 34.9212 22.9352ZM37.8677 20.1029C37.3666 19.7402 36.67 19.8572 36.3115 20.3643C35.953 20.8714 36.0683 21.5767 36.569 21.9399C37.0698 22.3031 37.7665 22.1867 38.1255 21.68C38.2991 21.4367 38.3696 21.1332 38.3212 20.8371C38.2727 20.5409 38.1095 20.2766 37.8677 20.1029ZM39.9562 16.6438C39.4817 16.2997 38.8214 16.4099 38.4812 16.8901C38.141 17.3703 38.2495 18.0388 38.7236 18.3835C39.1978 18.7282 39.8581 18.6188 40.1989 18.139C40.3629 17.9083 40.4294 17.621 40.3839 17.3405C40.3383 17.06 40.1845 16.8093 39.9562 16.6438ZM40.8631 12.9124C40.4407 12.6075 39.8542 12.7064 39.5522 13.1333C39.2501 13.5603 39.3465 14.1543 39.7676 14.461C40.1887 14.7677 40.7756 14.6714 41.0795 14.2457C41.2263 14.0401 41.2859 13.7838 41.2453 13.5335C41.2047 13.2832 41.0671 13.0596 40.8631 12.9124ZM39.1189 10.4762C39.5414 10.7811 40.1278 10.6822 40.4299 10.2552C40.732 9.82824 40.6356 9.23431 40.2145 8.9276C39.7933 8.62089 39.2064 8.71719 38.9026 9.14285C38.7558 9.34844 38.6961 9.6048 38.7367 9.85509C38.7774 10.1054 38.9149 10.3289 39.1189 10.4762ZM37.1377 6.83809C37.4804 7.08691 37.9575 7.00746 38.2034 6.66061C38.4494 6.31376 38.3711 5.83076 38.0286 5.58162C37.6861 5.33248 37.209 5.41148 36.9627 5.75809C36.7187 6.10448 36.7969 6.58536 37.1377 6.83428V6.83809ZM34.1667 4.08381C34.4566 4.29301 34.859 4.22516 35.0662 3.93217C35.2734 3.63917 35.2071 3.23166 34.9181 3.02135C34.6291 2.81103 34.2264 2.87732 34.0181 3.16952C33.9176 3.31055 33.8767 3.48634 33.9046 3.65795C33.9325 3.82957 34.0269 3.98283 34.1667 4.08381ZM30.78 2.21143C31.0436 2.40205 31.41 2.34042 31.5985 2.07372C31.7871 1.80702 31.7266 1.43609 31.4633 1.24492C31.2001 1.05376 30.8336 1.11464 30.6445 1.38095C30.5544 1.51035 30.519 1.6708 30.5462 1.82671C30.5734 1.98262 30.661 2.1211 30.7894 2.21143H30.78ZM26.7497 1.17333C27.0134 1.36396 27.3797 1.30233 27.5683 1.03562C27.7569 0.768924 27.6964 0.397995 27.4331 0.206828C27.1698 0.0156619 26.8034 0.0765403 26.6143 0.342854C26.5227 0.470917 26.4855 0.630714 26.511 0.786686C26.5364 0.942658 26.6224 1.08187 26.7497 1.17333ZM24.9717 2.66666C25.2355 2.85518 25.6003 2.79253 25.7879 2.52646C25.9756 2.26039 25.9157 1.89083 25.6539 1.69938C25.3921 1.50794 25.0268 1.56651 24.8362 1.83047C24.7429 1.95892 24.7046 2.12006 24.7301 2.27744C24.7556 2.43481 24.8427 2.57513 24.9717 2.66666ZM28.1176 3.64C28.3552 3.81135 28.6849 3.75559 28.8545 3.51539C29.0242 3.2752 28.9696 2.9413 28.7326 2.76919C28.4956 2.59708 28.1657 2.65177 27.9953 2.89142C27.828 3.13111 27.8826 3.46249 28.1176 3.63428V3.64ZM31.6267 4C31.4531 3.87347 31.2213 3.86527 31.0394 3.97924C30.8576 4.09321 30.7615 4.30688 30.7959 4.52059C30.8304 4.73429 30.9886 4.90592 31.1969 4.95541C31.4051 5.00491 31.6223 4.92251 31.7471 4.74666C31.8294 4.63163 31.8629 4.48813 31.8403 4.34797C31.8177 4.20781 31.7408 4.08257 31.6267 4ZM33.5251 7.13904C33.7883 7.3304 34.1549 7.26967 34.3441 7.00338C34.5333 6.73708 34.4736 6.36594 34.2107 6.17418C33.9478 5.98241 33.5812 6.04257 33.3916 6.30857C33.2066 6.57376 33.2661 6.94011 33.5251 7.13143V7.13904ZM34.8686 8.9219C34.6875 9.1756 34.6754 9.51475 34.8378 9.78104C35.0003 10.0473 35.3052 10.1883 35.6104 10.138C35.9155 10.0878 36.1607 9.85638 36.2314 9.55172C36.3022 9.24706 36.1846 8.92926 35.9335 8.74666C35.5934 8.49631 35.1175 8.57123 34.8686 8.91428V8.9219ZM35.2449 12.0571C34.943 12.4843 35.0397 13.0783 35.4611 13.3847C35.8825 13.6912 36.4694 13.5944 36.773 13.1685C37.0765 12.7425 36.9821 12.1481 36.5619 11.84C36.1427 11.5337 35.5579 11.6273 35.2524 12.0495L35.2449 12.0571ZM35.7491 15.0476C35.3267 14.7427 34.7402 14.8416 34.4381 15.2686C34.1361 15.6956 34.2325 16.2895 34.6536 16.5962C35.0747 16.9029 35.6616 16.8066 35.9655 16.3809C36.1123 16.1754 36.1719 15.919 36.1313 15.6687C36.0907 15.4184 35.9531 15.1949 35.7491 15.0476ZM32.8704 19.3924C33.3187 19.7179 33.9429 19.6139 34.2645 19.16C34.5861 18.7061 34.4833 18.0742 34.035 17.7486C33.5866 17.423 32.9624 17.5271 32.6408 17.9809C32.4859 18.1988 32.423 18.4701 32.4661 18.7349C32.5091 18.9998 32.6546 19.2364 32.8704 19.3924ZM30.4451 20.2629C30.1432 20.69 30.24 21.284 30.6613 21.5904C31.0827 21.8969 31.6696 21.8001 31.9732 21.3742C32.2767 20.9482 32.1823 20.3539 31.7621 20.0457C31.5593 19.8969 31.3062 19.8362 31.059 19.877C30.8118 19.9177 30.5908 20.0566 30.4451 20.2629ZM29.0433 21.7314C28.5422 21.3688 27.8456 21.4858 27.4871 21.9929C27.1286 22.5 27.2439 23.2053 27.7446 23.5685C28.2454 23.9317 28.9421 23.8153 29.3011 23.3086C29.4742 23.0651 29.5444 22.7618 29.496 22.4658C29.4476 22.1698 29.2847 21.9055 29.0433 21.7314ZM26.4092 24.7238C26.6744 24.3526 26.6922 23.8561 26.4544 23.4663C26.2166 23.0765 25.7701 22.8704 25.3235 22.9442C24.8768 23.018 24.5182 23.3572 24.4152 23.8033C24.3122 24.2494 24.4851 24.7144 24.8532 24.981C25.094 25.1574 25.3943 25.2295 25.6877 25.1812C25.9811 25.133 26.2435 24.9684 26.4167 24.7238H26.4092ZM23.1203 24.1524C22.5673 23.7511 21.7978 23.8794 21.4011 24.4389C21.0044 24.9984 21.1305 25.7775 21.6829 26.1794C22.2354 26.5814 23.0051 26.4542 23.4025 25.8952C23.7971 25.3386 23.6745 24.5639 23.1278 24.16L23.1203 24.1524Z" fill="#011C39"></path><path fill-rule="evenodd" clip-rule="evenodd" d="M19.7109 39.8248C19.3888 39.8257 19.0845 39.6748 18.888 39.4164C18.6914 39.1581 18.6249 38.8217 18.708 38.5067C18.7781 38.2374 18.9524 38.008 19.1916 37.8705C19.6858 37.5812 20.318 37.7516 20.6046 38.2514C20.7893 38.5752 20.7895 38.974 20.6053 39.298C20.421 39.6219 20.0802 39.822 19.7109 39.8229V39.8248ZM19.7109 37.92C19.563 37.9204 19.4178 37.9598 19.2894 38.0343C18.8846 38.271 18.746 38.7951 18.9796 39.205C19.2133 39.6149 19.731 39.7554 20.1359 39.519C20.5409 39.2826 20.68 38.7586 20.4466 38.3486C20.2937 38.082 20.0116 37.9186 19.7071 37.92H19.7109ZM23.7186 39.1638C23.4089 39.1661 23.1218 39.0004 22.966 38.7295C22.7304 38.3134 22.8717 37.7827 23.2821 37.5429C23.5942 37.3606 23.9857 37.3952 24.2619 37.6296C24.5381 37.8639 24.6402 38.248 24.5174 38.591C24.3947 38.9341 24.0733 39.1629 23.7129 39.1638H23.7186ZM23.7186 37.6171C23.3715 37.6182 23.0827 37.8875 23.0532 38.2376C23.0237 38.5877 23.2633 38.9026 23.6052 38.9632C23.947 39.0238 24.278 38.8099 24.3677 38.4705C24.4149 38.2968 24.3904 38.1113 24.3 37.9562C24.1781 37.7424 23.9511 37.6125 23.7073 37.6171H23.7186ZM15.8613 38.7771C15.3572 38.7835 14.922 38.4213 14.8307 37.9194C14.7393 37.4175 15.0185 36.9221 15.4917 36.7462C15.9649 36.5703 16.4944 36.7652 16.7456 37.2076C16.9305 37.5311 16.9309 37.9299 16.7465 38.2537C16.5621 38.5775 16.2211 38.777 15.8519 38.7771H15.8613ZM15.8613 36.8724C15.5591 36.8721 15.2798 37.0352 15.1288 37.3001C14.9777 37.5651 14.978 37.8915 15.1294 38.1562C15.3342 38.5175 15.7659 38.6774 16.1527 38.5352C16.5395 38.393 16.7693 37.9899 16.6974 37.5798C16.6255 37.1697 16.2728 36.8712 15.8613 36.8724ZM27.3669 37.3295C27.1003 37.3289 26.8546 37.1834 26.7234 36.9486C26.5202 36.5903 26.6413 36.133 26.9943 35.9257C27.35 35.7256 27.7984 35.8479 28.0066 36.2019C28.1378 36.4336 28.1376 36.7185 28.0058 36.95C27.8741 37.1814 27.6307 37.3245 27.3669 37.3257V37.3295ZM27.0884 36.0952C26.8254 36.2495 26.7346 36.5898 26.8852 36.8571C27.0415 37.1182 27.3729 37.2088 27.6378 37.0629C27.9008 36.9086 27.9916 36.5683 27.841 36.301C27.6886 36.0347 27.3525 35.9428 27.0884 36.0952ZM12.8188 36.4133C12.4063 36.4139 12.0248 36.1918 11.8179 35.8305C11.4985 35.276 11.6828 34.5644 12.2299 34.24C12.5863 34.0295 13.0268 34.0281 13.3845 34.2364C13.7422 34.4447 13.9624 34.8309 13.9618 35.2486C13.9612 35.6664 13.7397 36.0518 13.3814 36.2591C13.2073 36.3621 13.0092 36.416 12.8076 36.4153L12.8188 36.4133ZM12.8188 34.2724C12.3826 34.2712 12.0002 34.5676 11.8875 34.9943C11.7742 35.4214 11.9584 35.8722 12.3365 36.0936C12.7146 36.3149 13.1925 36.2516 13.5016 35.9392C13.8108 35.6268 13.8741 35.1432 13.6561 34.76C13.4798 34.4539 13.1538 34.2681 12.8038 34.2743L12.8188 34.2724ZM21.7448 35.9219C21.4348 35.9258 21.1469 35.7597 20.9922 35.4876C20.8776 35.2884 20.8471 35.0508 20.9076 34.8286C20.9658 34.6059 21.1094 34.416 21.3064 34.301C21.7177 34.0631 22.2416 34.205 22.4805 34.6191C22.7166 35.0353 22.5762 35.5664 22.1663 35.8076C22.0336 35.8849 21.8829 35.925 21.7298 35.9238L21.7448 35.9219ZM21.7448 34.3752C21.4417 34.3758 21.1766 34.5818 21.0976 34.8781C21.0504 35.0517 21.0749 35.2373 21.1653 35.3924C21.3279 35.6774 21.6692 35.8031 21.9747 35.6905C22.2802 35.5778 22.4616 35.2593 22.405 34.9352C22.3484 34.6111 22.07 34.375 21.7448 34.3752ZM24.8362 35.3714C24.6239 35.3723 24.4233 35.2728 24.2938 35.1025C24.1643 34.9322 24.1206 34.7104 24.1758 34.5029C24.2216 34.3255 24.3363 34.1744 24.4938 34.0838C24.7324 33.9428 25.0316 33.9617 25.251 34.1316C25.4705 34.3016 25.5668 34.589 25.4947 34.8591C25.4142 35.1605 25.1446 35.3702 24.8362 35.3714ZM24.8362 34.181C24.7498 34.1817 24.665 34.2046 24.5897 34.2476C24.4758 34.3137 24.393 34.4236 24.3602 34.5524C24.3076 34.748 24.3771 34.9563 24.536 35.0796C24.6949 35.2028 24.9117 35.2166 25.0846 35.1143C25.1985 35.0482 25.2813 34.9383 25.3141 34.8095C25.354 34.6593 25.3224 34.4989 25.2287 34.3756C25.135 34.2524 24.9898 34.1804 24.8362 34.181ZM18.5914 35.2533C18.2692 35.2543 17.965 35.1034 17.7684 34.845C17.5719 34.5866 17.5054 34.2503 17.5885 33.9352C17.6585 33.6659 17.8329 33.4366 18.0721 33.2991C18.5664 33.0109 19.1978 33.1811 19.4851 33.68C19.6698 34.0038 19.67 34.4026 19.4857 34.7265C19.3015 35.0505 18.9607 35.2505 18.5914 35.2514V35.2533ZM18.5914 33.3486C18.2891 33.3491 18.0101 33.5126 17.8591 33.7777C17.7082 34.0428 17.7083 34.3693 17.8595 34.6343C18.0107 34.8997 18.2903 35.0632 18.593 35.0633C18.8957 35.0634 19.1754 34.9001 19.3268 34.6348C19.4782 34.3695 19.4783 34.0425 19.3271 33.7771C19.1752 33.5124 18.8958 33.3492 18.5933 33.3486H18.5914ZM30.3999 34.8724C30.1562 34.8727 29.9309 34.7413 29.8091 34.5276C29.7173 34.3696 29.6922 34.1808 29.7395 34.0038C29.8191 33.7012 30.0897 33.4906 30.399 33.4905C30.7083 33.4903 30.9791 33.7005 31.0592 34.003C31.1392 34.3055 31.0084 34.6246 30.7404 34.781C30.6377 34.8418 30.5208 34.874 30.4018 34.8743L30.3999 34.8724ZM30.3999 33.6838C30.193 33.6848 30.0087 33.8164 29.9384 34.0135C29.8682 34.2105 29.927 34.431 30.0856 34.5655C30.2443 34.7 30.469 34.7198 30.6483 34.6152C30.7621 34.5499 30.8449 34.4406 30.8778 34.3124C30.9177 34.1622 30.8861 34.0017 30.7924 33.8785C30.6987 33.7552 30.5535 33.6832 30.3999 33.6838ZM27.8956 33.8743C27.6131 33.8752 27.3653 33.6836 27.292 33.4074C27.2187 33.1312 27.3383 32.8396 27.5832 32.6972C27.881 32.5232 28.2616 32.6264 28.4337 32.9276C28.5175 33.0726 28.5399 33.2457 28.4958 33.4076C28.4233 33.6829 28.177 33.8744 27.8956 33.8743ZM27.6773 32.8629C27.5772 32.9207 27.5041 33.0166 27.4741 33.1292C27.444 33.2418 27.4596 33.3619 27.5174 33.4629C27.6049 33.6173 27.7757 33.7032 27.9501 33.6804C28.1246 33.6576 28.2682 33.5306 28.3141 33.3587C28.3599 33.1867 28.2988 33.0038 28.1594 32.8952C28.02 32.7867 27.8297 32.7739 27.6773 32.8629ZM16.0476 33.1676C15.6773 33.1685 15.3349 32.9686 15.1501 32.6438C14.8643 32.1435 15.0327 31.5035 15.5264 31.2133C16.0213 30.925 16.6533 31.0951 16.9413 31.5943C17.1264 31.9181 17.1265 32.3173 16.9417 32.6412C16.7569 32.9651 16.4152 33.1644 16.0457 33.1638L16.0476 33.1676ZM16.0476 31.2629C15.6646 31.262 15.3293 31.5225 15.231 31.8971C15.1708 32.1161 15.2007 32.3503 15.3138 32.5467C15.5488 32.9565 16.0668 33.097 16.4728 32.861C16.6672 32.7478 16.8089 32.5605 16.866 32.341C16.9265 32.1218 16.8959 31.8872 16.7814 31.6914C16.6289 31.4265 16.3485 31.2639 16.0457 31.2648L16.0476 31.2629ZM10.5253 33.0667C10.0916 33.0672 9.69065 32.8333 9.47348 32.4533C9.31276 32.1718 9.26926 31.8371 9.35255 31.523C9.43585 31.2089 9.63911 30.9413 9.91752 30.7791C10.4995 30.4441 11.2396 30.6495 11.5714 31.2381C11.7877 31.6174 11.7879 32.0847 11.5717 32.4642C11.3556 32.8436 10.956 33.0776 10.5234 33.0781L10.5253 33.0667ZM10.5253 30.8057C10.3464 30.8056 10.1706 30.8529 10.0154 30.9429C9.52623 31.2291 9.35795 31.862 9.63906 32.3581C9.88684 32.7947 10.4088 32.9878 10.8763 32.8157C11.3437 32.6437 11.6214 32.1563 11.5343 31.6606C11.4473 31.1648 11.0208 30.8042 10.5234 30.8057H10.5253ZM19.5924 31.7162C18.8885 31.7201 18.2624 31.2645 18.0416 30.588C17.8209 29.9114 18.0558 29.1679 18.6235 28.7466C19.1911 28.3254 19.9622 28.3223 20.5331 28.7391C21.2551 29.2685 21.4228 30.2869 20.9094 31.0248C20.6592 31.3784 20.28 31.6163 19.8558 31.6857C19.7672 31.7043 19.6772 31.7151 19.5867 31.7181L19.5924 31.7162ZM19.5924 28.6209C19.5142 28.6207 19.4362 28.627 19.3591 28.64C18.5991 28.7658 18.0725 29.4763 18.1657 30.2501C18.2588 31.024 18.9385 31.5856 19.7061 31.5229C20.4737 31.4603 21.0557 30.7956 21.0252 30.0167C20.9947 29.2377 20.3625 28.6218 19.5924 28.6209ZM30.1986 31.7067C29.887 31.7063 29.6239 31.4722 29.5836 31.1594C29.5433 30.8466 29.7382 30.552 30.0393 30.4708C30.3404 30.3895 30.6543 30.5467 30.7732 30.8383C30.8921 31.1299 30.7791 31.4655 30.509 31.6229C30.4132 31.6796 30.304 31.7092 30.1929 31.7086L30.1986 31.7067ZM30.1986 30.6362C30.001 30.6363 29.8282 30.7707 29.7771 30.9638C29.7335 31.1358 29.7959 31.3176 29.9354 31.4252C30.075 31.5328 30.2646 31.5454 30.4168 31.4571C30.5171 31.399 30.5902 31.3026 30.6199 31.1896C30.6496 31.0765 30.6334 30.9561 30.5749 30.8552C30.4955 30.7176 30.3485 30.6344 30.191 30.6381L30.1986 30.6362ZM33.0077 31.5695C32.764 31.5699 32.5387 31.4384 32.4169 31.2248C32.3251 31.0667 32.3 30.8779 32.3473 30.701C32.4269 30.3984 32.6975 30.1878 33.0068 30.1876C33.3161 30.1874 33.587 30.3977 33.667 30.7001C33.747 31.0026 33.6163 31.3218 33.3483 31.4781C33.2427 31.5406 33.1224 31.5729 33.0002 31.5714L33.0077 31.5695ZM33.0077 30.381C32.8008 30.3819 32.6165 30.5136 32.5462 30.7106C32.476 30.9076 32.5348 31.1281 32.6934 31.2626C32.8521 31.3971 33.0768 31.417 33.2561 31.3124C33.3707 31.2475 33.455 31.1391 33.4903 31.0111C33.5256 30.8831 33.509 30.7461 33.4442 30.6305C33.3524 30.4707 33.1808 30.3754 32.9983 30.3829L33.0077 30.381ZM23.5718 30.8019C22.8227 30.8019 22.171 30.2826 21.9952 29.5454C21.8194 28.8083 22.1651 28.0451 22.8316 27.699C23.4982 27.353 24.3121 27.514 24.8009 28.0888C25.2896 28.6635 25.326 29.5023 24.8889 30.1181C24.6402 30.4728 24.2613 30.7116 23.8371 30.781C23.7462 30.7957 23.6544 30.8033 23.5624 30.8038L23.5718 30.8019ZM23.5718 27.7086C23.4936 27.7083 23.4156 27.7147 23.3385 27.7276C22.9633 27.7886 22.6278 27.9992 22.4071 28.3124C22.0655 28.79 22.0429 29.4293 22.3498 29.9305C22.6568 30.4317 23.2325 30.6955 23.807 30.5981C24.1815 30.5367 24.5162 30.3261 24.7365 30.0133C25.0492 29.5709 25.0917 28.9886 24.8464 28.5044C24.6011 28.0203 24.1093 27.7154 23.5718 27.7143V27.7086ZM14.2789 30.4762C13.9384 30.478 13.6165 30.3187 13.4087 30.0456C13.2009 29.7724 13.1309 29.4167 13.2196 29.0838C13.3482 28.6005 13.7813 28.2647 14.2758 28.265C14.7702 28.2653 15.2029 28.6015 15.331 29.085C15.4591 29.5685 15.2506 30.0788 14.8227 30.3295C14.6571 30.4255 14.4697 30.4761 14.2789 30.4762ZM14.2789 28.4533C13.9555 28.4535 13.6567 28.6284 13.4953 28.9121C13.3338 29.1958 13.3341 29.5452 13.4962 29.8286C13.7461 30.2673 14.3 30.4178 14.7333 30.1648C15.1666 29.9118 15.3153 29.3511 15.0654 28.9124C14.9011 28.629 14.5997 28.4561 14.2752 28.4591L14.2789 28.4533ZM27.3913 29.3657C27.077 29.3657 26.7708 29.265 26.5164 29.0781C25.8412 28.5878 25.6862 27.6362 26.1702 26.9524C26.6556 26.2713 27.5939 26.1162 28.2681 26.6057C28.9434 27.0961 29.0983 28.0476 28.6143 28.7314C28.3828 29.0597 28.0311 29.2805 27.6378 29.3448C27.5552 29.3605 27.4715 29.3694 27.3876 29.3714L27.3913 29.3657ZM27.3913 26.5086C27.3189 26.5086 27.2465 26.5143 27.1749 26.5257C26.8306 26.5817 26.5229 26.7752 26.3207 27.0629C26.0083 27.5012 25.9883 28.0871 26.2699 28.5463C26.5515 29.0055 27.0792 29.2472 27.6058 29.1581C27.9497 29.1021 28.2572 28.9095 28.46 28.6229C28.6637 28.3354 28.7462 27.9779 28.6894 27.6289C28.6326 27.2798 28.4411 26.968 28.1571 26.7619C27.9334 26.5995 27.6647 26.5129 27.3894 26.5143L27.3913 26.5086ZM32.3943 29.3105C32.1498 29.3141 31.9221 29.1847 31.7979 28.9714C31.7067 28.8132 31.6816 28.6247 31.7282 28.4477C31.7748 28.2707 31.8893 28.1198 32.0462 28.0286C32.204 27.9349 32.3921 27.909 32.5688 27.9566C32.7455 28.0042 32.8961 28.1213 32.987 28.2819C33.1088 28.4954 33.1087 28.7584 32.9868 28.9718C32.8649 29.1852 32.6397 29.3165 32.3962 29.3162L32.3943 29.3105ZM32.3943 28.12C32.3077 28.1207 32.2227 28.1443 32.1478 28.1886C31.9557 28.3023 31.8626 28.5322 31.9207 28.7497C31.9788 28.9672 32.1736 29.1183 32.3961 29.1185C32.6187 29.1187 32.8138 28.9679 32.8722 28.7505C32.9081 28.6221 32.8904 28.4844 32.8233 28.3695C32.7325 28.2158 32.5675 28.1228 32.3906 28.1257L32.3943 28.12ZM9.15738 29.1848C8.54071 29.1856 8.01258 28.7378 7.90516 28.123C7.79773 27.5083 8.14205 26.9042 8.72157 26.6908C9.30109 26.4774 9.94832 26.7162 10.2562 27.2571C10.4825 27.6547 10.4823 28.1443 10.2558 28.5417C10.0292 28.9391 9.61064 29.1842 9.15738 29.1848ZM9.15738 26.8057C8.66908 26.8082 8.24318 27.1421 8.11859 27.6201C7.99399 28.098 8.20169 28.6012 8.62519 28.8473C9.04869 29.0934 9.58261 29.0212 9.92747 28.6712C10.2723 28.3212 10.3423 27.7805 10.0982 27.3524C9.9033 27.0115 9.54266 26.8028 9.15362 26.8057H9.15738ZM13.1707 27.4286C12.7019 27.4307 12.2905 27.113 12.1686 26.6548C12.0467 26.1965 12.2449 25.7126 12.6514 25.4762C12.9721 25.2747 13.3758 25.266 13.7047 25.4535C14.0336 25.641 14.2356 25.995 14.2318 26.3771C14.2279 26.7592 14.0189 27.1089 13.6862 27.2895C13.5296 27.3812 13.3517 27.4292 13.1707 27.4286ZM12.7455 25.64C12.3407 25.8767 12.202 26.4008 12.4357 26.8107C12.6694 27.2206 13.187 27.3612 13.592 27.1247C13.9969 26.8883 14.136 26.3644 13.9026 25.9543C13.7915 25.756 13.6065 25.6111 13.389 25.552C13.1715 25.493 12.9397 25.5246 12.7455 25.64ZM31.0453 27.3695C30.7553 27.3697 30.4728 27.2771 30.2381 27.1048C29.6185 26.652 29.4783 25.7766 29.9249 25.1488C30.3715 24.521 31.236 24.3782 31.8566 24.8296C32.4772 25.2809 32.6194 26.156 32.1742 26.7848C31.9614 27.0897 31.6368 27.2955 31.2729 27.3562C31.1976 27.3674 31.1214 27.3718 31.0453 27.3695ZM31.0453 24.7505C30.9822 24.7509 30.9193 24.7567 30.8571 24.7676C30.5433 24.8177 30.2626 24.9935 30.0782 25.2552C29.6944 25.8012 29.818 26.5584 30.3547 26.9505C30.8916 27.3404 31.639 27.2169 32.0255 26.6743C32.2877 26.3044 32.3238 25.8172 32.1189 25.412C31.9139 25.0067 31.5025 24.7514 31.0528 24.7505H31.0453ZM19.2462 27.1543C18.9804 27.1541 18.7216 27.0687 18.5067 26.9105C17.9388 26.4961 17.8085 25.695 18.2151 25.1181C18.4114 24.8414 18.7082 24.6551 19.0403 24.6C19.3724 24.545 19.7124 24.6259 19.9856 24.8248C20.4329 25.1504 20.6218 25.7309 20.4532 26.2619C20.2847 26.7929 19.7971 27.1534 19.2462 27.1543ZM19.2462 24.7733C19.187 24.7731 19.1278 24.7775 19.0693 24.7867C18.4857 24.879 18.0782 25.4211 18.1457 26.0151C18.2133 26.6091 18.7319 27.0432 19.3209 26.9988C19.91 26.9544 20.3593 26.4473 20.3393 25.8497C20.3192 25.2521 19.8368 24.7771 19.2462 24.7733ZM22.4147 26.5181C22.1376 26.5179 21.8677 26.4293 21.6432 26.2648C21.2581 25.9851 21.0495 25.5186 21.0962 25.0411C21.1429 24.5635 21.4377 24.1475 21.8695 23.9497C22.3014 23.7518 22.8047 23.8022 23.1899 24.0819C23.6262 24.3999 23.8302 24.9528 23.7066 25.4825C23.583 26.0122 23.1562 26.4143 22.6254 26.501C22.5532 26.5123 22.4802 26.5181 22.4071 26.5181H22.4147ZM22.4147 24.019C22.3517 24.0195 22.2888 24.0246 22.2265 24.0343C21.6887 24.1233 21.288 24.5845 21.2694 25.1359C21.2508 25.6872 21.6195 26.175 22.15 26.301C22.6806 26.4269 23.2251 26.1559 23.4506 25.6537C23.676 25.1515 23.5196 24.558 23.077 24.2362C22.8827 24.0938 22.6488 24.0178 22.409 24.019H22.4147ZM8.62115 25.4972C7.94793 25.4977 7.37161 25.0086 7.25455 24.3374C7.13749 23.6663 7.51351 23.007 8.1462 22.7741C8.77888 22.5411 9.48541 22.8019 9.82157 23.3924C10.07 23.8264 10.0704 24.3618 9.82264 24.7962C9.57487 25.2307 9.11668 25.498 8.62115 25.4972ZM8.62115 22.88C8.41121 22.8805 8.20501 22.9363 8.02282 23.0419C7.62101 23.242 7.36259 23.6518 7.3525 24.105C7.34241 24.5582 7.58232 24.9794 7.97482 25.1976C8.36732 25.4158 8.84715 25.3947 9.21948 25.1429C9.79223 24.8077 9.98914 24.0665 9.65975 23.4857C9.44334 23.1078 9.04322 22.8766 8.61174 22.88H8.62115ZM25.5192 25.2895C25.2659 25.29 25.0189 25.2093 24.8136 25.0591C24.2692 24.6635 24.1445 23.896 24.5352 23.3448C24.7211 23.0799 25.0046 22.9021 25.3216 22.8514C25.8047 22.7714 26.288 22.9934 26.5464 23.4143C26.8049 23.8351 26.7879 24.3721 26.5032 24.7752C26.3169 25.04 26.0337 25.2184 25.7168 25.2705C25.6483 25.282 25.5791 25.2884 25.5098 25.2895H25.5192ZM25.5192 23.0286C25.0351 23.0285 24.6171 23.3718 24.5174 23.8513C24.4177 24.3309 24.6635 24.8156 25.1065 25.0131C25.5496 25.2106 26.0687 25.0669 26.3508 24.6686C26.6787 24.2028 26.5727 23.5564 26.1138 23.2229C25.9381 23.0944 25.7264 23.0264 25.5098 23.0286H25.5192ZM34.2439 25.1867C33.5637 25.1864 33.0048 24.643 32.9772 23.955C32.9495 23.267 33.463 22.6795 34.1409 22.6233C34.8188 22.5672 35.4197 23.0624 35.5029 23.7458C35.5861 24.4292 35.1219 25.0574 34.4508 25.1695C34.3824 25.1808 34.3132 25.1866 34.2439 25.1867ZM34.2439 22.8057C34.1846 22.8061 34.1255 22.8112 34.067 22.821C33.7845 22.8672 33.5319 23.0255 33.3652 23.261C33.1132 23.621 33.0993 24.099 33.3299 24.4734C33.5605 24.8479 33.9905 25.0457 34.4207 24.9752C34.8527 24.9045 35.1996 24.5764 35.2987 24.1448C35.3977 23.7133 35.2292 23.264 34.8723 23.0076C34.6893 22.8746 34.4692 22.8039 34.2439 22.8057ZM5.03683 24.2514C4.66066 24.2514 4.35571 23.9427 4.35571 23.5619C4.35571 23.1811 4.66066 22.8724 5.03683 22.8724C5.413 22.8724 5.71794 23.1811 5.71794 23.5619C5.71794 23.9427 5.413 24.2514 5.03683 24.2514ZM5.03683 23.0648C4.83727 23.0648 4.6574 23.1866 4.58121 23.3733C4.50502 23.56 4.54754 23.7748 4.68892 23.9174C4.8303 24.0599 5.04264 24.1022 5.22678 24.0243C5.41093 23.9465 5.53055 23.7639 5.5298 23.5619C5.5298 23.4297 5.47779 23.303 5.38529 23.2097C5.29279 23.1164 5.1674 23.0643 5.03683 23.0648ZM12.6909 24.2457C12.1736 24.245 11.7141 23.911 11.5483 23.4149C11.3824 22.9188 11.547 22.3709 11.9576 22.0523C12.3682 21.7337 12.9336 21.7152 13.3637 22.0062C13.7938 22.2972 13.9931 22.8332 13.8593 23.3391C13.7769 23.6531 13.5736 23.9207 13.2949 24.0819C13.1116 24.1902 12.9031 24.2467 12.6909 24.2457ZM12.6909 21.9867C12.3254 21.986 11.9873 22.183 11.8044 22.5034C11.6215 22.8238 11.6216 23.2188 11.8047 23.5391C12.0875 24.0342 12.7126 24.2046 13.2027 23.92C13.6051 23.6863 13.8015 23.2075 13.6809 22.754C13.5602 22.3005 13.1529 21.9861 12.689 21.9886L12.6909 21.9867ZM28.3961 23.8762C28.1432 23.8757 27.8969 23.7944 27.6924 23.6438C27.3306 23.3931 27.1311 22.9638 27.171 22.5218C27.2109 22.0798 27.4839 21.6942 27.8845 21.5139C28.2852 21.3337 28.7509 21.387 29.1016 21.6533C29.5004 21.9408 29.6888 22.4433 29.5788 22.9262C29.4688 23.4092 29.0821 23.7774 28.5993 23.8591C28.5309 23.8709 28.4616 23.8766 28.3923 23.8762H28.3961ZM28.3961 21.6133C28.34 21.6139 28.2841 21.6184 28.2286 21.6267C27.82 21.6941 27.4919 22.0045 27.3979 22.4127C27.3039 22.8209 27.4625 23.2461 27.7996 23.4895C28.0956 23.7165 28.4899 23.763 28.8295 23.6111C29.1691 23.4592 29.4005 23.1327 29.434 22.7583C29.4675 22.384 29.2977 22.0207 28.9906 21.8095C28.8175 21.6815 28.6086 21.6128 28.3942 21.6133H28.3961ZM2.80721 23.6571C2.43104 23.6561 2.12694 23.3465 2.12798 22.9657C2.12902 22.5849 2.43481 22.2771 2.81098 22.2781C3.18714 22.2792 3.49124 22.5887 3.49021 22.9695C3.48973 23.1541 3.4162 23.3307 3.28607 23.4599C3.15594 23.5892 2.98007 23.6602 2.7978 23.6571H2.80721ZM2.80721 22.4705C2.5352 22.4715 2.31544 22.6954 2.31613 22.9708C2.31682 23.2462 2.53771 23.4689 2.80972 23.4686C3.08173 23.4682 3.30205 23.2449 3.30205 22.9695C3.30058 22.8362 3.24643 22.7089 3.1517 22.6163C3.05696 22.5236 2.92952 22.4731 2.7978 22.4762L2.80721 22.4705ZM37.2261 22.2457C36.9734 22.2459 36.7271 22.1652 36.5224 22.0152C35.9779 21.6197 35.8533 20.8522 36.2439 20.301C36.4294 20.0356 36.7131 19.8576 37.0304 19.8076C37.3469 19.7539 37.6715 19.8307 37.9317 20.021C38.1935 20.2106 38.3701 20.498 38.4223 20.8196C38.4746 21.1412 38.3982 21.4707 38.2101 21.7352C38.0246 21.9999 37.742 22.1783 37.4255 22.2305C37.3564 22.2407 37.2866 22.2458 37.2167 22.2457H37.2261ZM37.2261 19.9848C37.17 19.9844 37.114 19.9889 37.0586 19.9981C36.5158 20.1059 36.1558 20.631 36.2458 21.1835C36.3359 21.7361 36.8433 22.1163 37.3917 22.0419C37.6595 21.9991 37.899 21.8487 38.0559 21.6248C38.3841 21.1595 38.2789 20.5132 37.8207 20.1791C37.6454 20.0513 37.4345 19.9832 37.2186 19.9848H37.2261ZM31.2165 21.8667C31.0009 21.8693 30.7901 21.8026 30.6144 21.6762C30.1508 21.3388 30.0447 20.685 30.3773 20.2152C30.7112 19.7465 31.3569 19.64 31.8204 19.9771C32.2831 20.3151 32.3891 20.968 32.0575 21.4381C31.864 21.7134 31.5502 21.8761 31.2165 21.8743V21.8667ZM31.2165 19.9619C30.8485 19.9612 30.5224 20.2016 30.4102 20.5563C30.298 20.9111 30.4255 21.2985 30.7254 21.5143C31.1031 21.7914 31.6313 21.7062 31.9051 21.3238C32.178 20.9405 32.0939 20.4061 31.717 20.1276C31.5701 20.0175 31.3917 19.9593 31.209 19.9619H31.2165ZM8.43111 21.4705C7.88853 21.4754 7.38532 21.1843 7.11404 20.7086C6.77406 20.1124 6.87116 19.3595 7.35094 18.8716C7.83072 18.3838 8.57402 18.2822 9.16444 18.6237C9.75486 18.9652 10.0457 19.6651 9.87416 20.3313C9.70256 20.9974 9.1111 21.4643 8.43111 21.4705ZM8.43111 18.6133C7.87251 18.6057 7.36991 18.9557 7.17715 19.4865C6.98439 20.0173 7.14339 20.6135 7.57387 20.974C8.00435 21.3344 8.61263 21.3808 9.09153 21.0895C9.72108 20.7212 9.93669 19.9061 9.5732 19.2686C9.33232 18.8571 8.89221 18.6078 8.41982 18.6152L8.43111 18.6133ZM4.03397 21.0362C3.78267 21.0362 3.55614 20.8828 3.46015 20.6477C3.36416 20.4126 3.41762 20.1421 3.59559 19.9625C3.77356 19.7829 4.04093 19.7296 4.27289 19.8274C4.50484 19.9253 4.65564 20.1551 4.65488 20.4095C4.65488 20.5761 4.5894 20.7357 4.4729 20.8533C4.35641 20.9709 4.19847 21.0367 4.03397 21.0362ZM4.03397 19.9714C3.79497 19.9714 3.60122 20.1676 3.60122 20.4095C3.60122 20.6515 3.79497 20.8476 4.03397 20.8476C4.27297 20.8476 4.46672 20.6515 4.46672 20.4095C4.46672 20.1676 4.27297 19.9714 4.03397 19.9714ZM12.6062 21C11.9968 21.0017 11.4806 20.5455 11.3999 19.9339C11.3193 19.3224 11.6993 18.7451 12.2879 18.585C12.8765 18.4248 13.4911 18.7315 13.7242 19.3016C13.9573 19.8717 13.7365 20.5284 13.2083 20.8362C13.0251 20.9429 12.8176 20.9994 12.6062 21ZM12.6062 18.739C12.427 18.7383 12.2509 18.7863 12.0963 18.8781C11.8612 19.0149 11.6893 19.2407 11.6187 19.5058C11.5482 19.7709 11.5846 20.0535 11.72 20.2914C11.9677 20.7278 12.4893 20.921 12.9567 20.7493C13.424 20.5776 13.7019 20.0908 13.6155 19.5952C13.5291 19.0995 13.1034 18.7384 12.6062 18.739ZM1.26812 19.7257C0.991785 19.7249 0.743322 19.5552 0.639189 19.296C0.535056 19.0369 0.595892 18.7398 0.793182 18.5439C0.990472 18.348 1.28511 18.2922 1.539 18.4027C1.79288 18.5131 1.95569 18.7679 1.95111 19.0476C1.94494 19.4247 1.64065 19.7268 1.26812 19.7257ZM1.26812 18.539C0.997344 18.5401 0.778131 18.7621 0.777122 19.0363C0.776128 19.3104 0.993713 19.534 1.26447 19.5371C1.53523 19.5402 1.75779 19.3217 1.76296 19.0476C1.76549 18.9133 1.71442 18.7836 1.62128 18.6879C1.52815 18.5922 1.40083 18.5385 1.26812 18.539ZM33.4423 19.6819C33.2139 19.6814 32.9914 19.6081 32.8064 19.4724C32.3167 19.1152 32.2048 18.4244 32.5561 17.9276C32.7249 17.6891 32.9805 17.5285 33.2665 17.4813C33.5526 17.4342 33.8454 17.5043 34.0802 17.6762C34.4407 17.9359 34.6106 18.3902 34.5104 18.8265C34.4101 19.2628 34.0596 19.5946 33.623 19.6667C33.5663 19.6754 33.5091 19.6798 33.4517 19.68L33.4423 19.6819ZM32.9268 19.3162C33.1212 19.4582 33.3635 19.5159 33.6001 19.4766C33.8367 19.4373 34.048 19.3042 34.1874 19.1067C34.4012 18.8053 34.4144 18.4031 34.2206 18.088C34.0269 17.773 33.6646 17.6074 33.3031 17.6686C33.0665 17.7062 32.8549 17.8387 32.7161 18.0362C32.425 18.4481 32.5185 19.0209 32.9249 19.3162H32.9268ZM39.3391 18.68C39.0984 18.6811 38.8637 18.6044 38.6692 18.461C38.1539 18.0841 38.0354 17.3568 38.4039 16.8324C38.7773 16.3125 39.4955 16.1959 40.0108 16.5714C40.5259 16.9476 40.6444 17.6742 40.2761 18.1981C40.0989 18.452 39.8271 18.6219 39.5234 18.6686C39.4624 18.6777 39.4007 18.6815 39.3391 18.68ZM39.3391 16.5371C39.2861 16.5378 39.2333 16.5423 39.181 16.5505C38.928 16.5929 38.703 16.7381 38.5582 16.9524C38.2483 17.3902 38.3467 17.9993 38.7784 18.3143C39.2111 18.627 39.812 18.5274 40.1237 18.0914C40.333 17.7937 40.361 17.4027 40.1964 17.0774C40.0318 16.7521 39.7019 16.5468 39.3409 16.5448L39.3391 16.5371ZM3.33028 17.9448C3.07897 17.9448 2.85245 17.7914 2.75646 17.5563C2.66046 17.3212 2.71393 17.0507 2.8919 16.8711C3.06987 16.6914 3.33724 16.6381 3.56919 16.736C3.80115 16.8339 3.95194 17.0637 3.95119 17.3181C3.9481 17.6636 3.67161 17.9427 3.33028 17.9448ZM3.33028 16.88C3.09127 16.88 2.89752 17.0761 2.89752 17.3181C2.89752 17.5601 3.09127 17.7562 3.33028 17.7562C3.56928 17.7562 3.76303 17.5601 3.76303 17.3181C3.76098 17.077 3.56843 16.8821 3.33028 16.88ZM12.8809 17.7962C12.2362 17.7966 11.6843 17.3282 11.5721 16.6855C11.4599 16.0427 11.8198 15.4112 12.4256 15.1879C13.0314 14.9645 13.7082 15.2138 14.0306 15.7791C14.2678 16.195 14.2678 16.7075 14.0308 17.1235C13.7937 17.5395 13.3554 17.7959 12.8809 17.7962ZM12.8809 15.2971C12.4727 15.2951 12.0946 15.5146 11.8902 15.8723C11.6857 16.2301 11.6861 16.6712 11.8913 17.0286C12.2074 17.5803 12.9048 17.7694 13.451 17.4514C13.8974 17.1909 14.1158 16.6597 13.9837 16.1555C13.8516 15.6513 13.4018 15.2994 12.8866 15.2971H12.8809ZM8.81495 17.5124C8.02815 17.5123 7.35487 16.9406 7.21794 16.1562C7.081 15.3719 7.51991 14.6012 8.25903 14.3281C8.99814 14.055 9.82426 14.3584 10.2186 15.0476C10.5085 15.5552 10.5087 16.1809 10.2191 16.6886C9.92947 17.1964 9.39413 17.509 8.81495 17.5086V17.5124ZM8.81495 14.419C8.56363 14.4178 8.31642 14.4835 8.09808 14.6095C7.47088 14.9709 7.20556 15.747 7.47795 16.4236C7.75035 17.1001 8.47602 17.4673 9.17405 17.2818C9.87207 17.0964 10.3261 16.4157 10.2352 15.691C10.1442 14.9662 9.53661 14.422 8.81495 14.419ZM35.1846 16.8591C34.9698 16.861 34.7597 16.7944 34.5844 16.6686C34.1202 16.3318 34.0132 15.6779 34.3455 15.2076C34.6793 14.7389 35.325 14.6324 35.7886 14.9695C36.162 15.2318 36.3222 15.7103 36.1833 16.1483C36.0444 16.5863 35.639 16.881 35.1846 16.8743V16.8591ZM35.1846 14.9543C35.138 14.9543 35.0914 14.9581 35.0454 14.9657C34.7074 15.0215 34.4361 15.2785 34.3585 15.6162C34.281 15.954 34.4126 16.3057 34.6917 16.5067C35.0694 16.7838 35.5976 16.6985 35.8714 16.3162C36.1443 15.9329 36.0602 15.3985 35.6832 15.12C35.5391 15.0117 35.3641 14.9536 35.1846 14.9543ZM27.6152 16.04C26.9148 16.039 26.3479 15.4633 26.349 14.7543C26.35 14.0453 26.9186 13.4713 27.619 13.4724C28.3194 13.4734 28.8863 14.0491 28.8853 14.7581C28.8842 15.4642 28.3202 16.0369 27.6227 16.04H27.6152ZM27.6152 13.6648C27.019 13.6658 26.5364 14.1558 26.5371 14.7594C26.5378 15.363 27.0215 15.8518 27.6177 15.8514C28.214 15.8511 28.6971 15.3617 28.6971 14.7581C28.6961 14.1569 28.2166 13.6689 27.6227 13.6648H27.6152ZM0.752576 15.9276C0.452739 15.9276 0.182425 15.7448 0.0676821 15.4643C-0.0470608 15.1839 0.0163637 14.8611 0.228381 14.6465C0.440398 14.4318 0.759255 14.3676 1.03627 14.4838C1.31328 14.6 1.4939 14.8736 1.4939 15.1771C1.4939 15.5916 1.162 15.9276 0.752576 15.9276ZM0.752576 14.6171C0.447068 14.6171 0.199405 14.8679 0.199405 15.1771C0.199405 15.4864 0.447068 15.7371 0.752576 15.7371C1.05808 15.7371 1.30575 15.4864 1.30575 15.1771C1.30471 14.8683 1.05766 14.6182 0.752576 14.6171ZM40.325 14.7333C39.8481 14.7325 39.4338 14.4014 39.3223 13.932C39.2109 13.4627 39.4313 12.977 39.8557 12.7569C40.2801 12.5368 40.7982 12.6394 41.1094 13.0052C41.4206 13.371 41.444 13.9049 41.166 14.2971C40.9696 14.569 40.6577 14.7308 40.325 14.7333ZM40.325 12.8286C40.279 12.8286 40.233 12.8324 40.1876 12.84C39.9662 12.8756 39.7682 12.9999 39.6382 13.1848C39.4364 13.4653 39.4215 13.8413 39.6006 14.1372C39.7797 14.4332 40.1174 14.5905 40.4559 14.5359C40.7945 14.4812 41.067 14.2253 41.1463 13.8877C41.2256 13.55 41.096 13.1973 40.8179 12.9943C40.6727 12.8854 40.4963 12.8272 40.3156 12.8286H40.325ZM3.63509 14.6171C3.35715 14.6171 3.10661 14.4476 3.00042 14.1875C2.89424 13.9275 2.95334 13.6283 3.15014 13.4296C3.34694 13.2309 3.64264 13.1719 3.8992 13.2801C4.15577 13.3884 4.32261 13.6424 4.32185 13.9238C4.32137 14.1099 4.24724 14.288 4.11605 14.4183C3.98486 14.5486 3.80756 14.6202 3.6238 14.6171H3.63509ZM3.63509 13.4191C3.43342 13.4191 3.25161 13.542 3.17443 13.7307C3.09726 13.9193 3.13992 14.1364 3.28252 14.2807C3.42512 14.4251 3.63958 14.4683 3.82589 14.3902C4.01221 14.312 4.13369 14.128 4.13369 13.9238C4.13373 13.7879 4.07965 13.6578 3.98368 13.5628C3.88772 13.4678 3.75798 13.416 3.6238 13.4191H3.63509ZM13.5733 14.5238C12.9564 14.5255 12.4275 14.0782 12.3195 13.4633C12.2114 12.8485 12.5554 12.2439 13.1351 12.0301C13.7147 11.8163 14.3623 12.0551 14.6703 12.5962C14.841 12.8905 14.8871 13.2422 14.7982 13.5714C14.6494 14.1326 14.1473 14.523 13.5733 14.5238ZM13.5733 12.1429C13.0841 12.1444 12.6567 12.4781 12.531 12.9568C12.4054 13.4355 12.6127 13.9399 13.0366 14.1872C13.4606 14.4344 13.9957 14.3628 14.3416 14.0125C14.6876 13.6623 14.7583 13.1206 14.5141 12.6914C14.3186 12.3453 13.952 12.1349 13.5583 12.1429H13.5733ZM25.2125 13.9048C24.4791 13.9037 23.8853 13.3012 23.886 12.5587C23.8867 11.8163 24.4816 11.2149 25.215 11.2152C25.9484 11.2156 26.5427 11.8176 26.5427 12.56C26.5417 13.303 25.9464 13.9048 25.2125 13.9048ZM25.2125 11.4076C24.5828 11.4087 24.0731 11.9263 24.0742 12.5638C24.0752 13.2013 24.5866 13.7172 25.2163 13.7162C25.846 13.7151 26.3556 13.1975 26.3546 12.56C26.3546 11.9215 25.8433 11.4038 25.2125 11.4038V11.4076ZM30.8044 13.6686C30.1467 13.6693 29.5534 13.2689 29.3012 12.654C29.049 12.0391 29.1876 11.3309 29.6524 10.8598C30.1172 10.3888 30.8165 10.2476 31.4242 10.5022C32.0319 10.7569 32.4282 11.3571 32.4282 12.0229C32.4261 12.9295 31.7 13.6637 30.8044 13.6648V13.6686ZM30.8044 10.5676C30.2228 10.5669 29.6981 10.9209 29.475 11.4646C29.2519 12.0084 29.3744 12.6346 29.7854 13.0512C30.1964 13.4678 30.8148 13.5926 31.3522 13.3675C31.8896 13.1424 32.24 12.6116 32.24 12.0229C32.241 11.6366 32.0903 11.2657 31.821 10.9921C31.5517 10.7184 31.186 10.5643 30.8044 10.5638V10.5676ZM36.0163 13.6571C35.8008 13.6594 35.5901 13.5927 35.4142 13.4667C34.9517 13.129 34.8469 12.4758 35.1802 12.0074C35.5134 11.5389 36.1586 11.4325 36.6215 11.7696C37.0845 12.1066 37.19 12.7597 36.8573 13.2286C36.6609 13.5005 36.349 13.6622 36.0163 13.6648V13.6571ZM36.0163 11.7524C35.9696 11.7525 35.9231 11.7563 35.877 11.7638C35.6562 11.7995 35.4588 11.9238 35.3295 12.1086C35.1309 12.3907 35.1191 12.766 35.2997 13.0603C35.4802 13.3546 35.8176 13.5103 36.1555 13.4552C36.5907 13.3826 36.8979 12.9838 36.8615 12.5388C36.8251 12.0938 36.4574 11.7516 36.0163 11.7524ZM9.62965 13.4667C8.84244 13.4671 8.16856 12.8953 8.03155 12.1105C7.89455 11.3258 8.33398 10.5547 9.07366 10.282C9.81335 10.0093 10.6397 10.3137 11.0333 11.0038C11.3229 11.5117 11.323 12.1374 11.0335 12.6453C10.744 13.1532 10.2089 13.4663 9.62965 13.4667ZM9.62965 10.3733C9.1174 10.3733 8.64403 10.6499 8.38788 11.099C8.13173 11.5481 8.13171 12.1014 8.38784 12.5505C8.78508 13.2444 9.6625 13.4814 10.3484 13.08C10.6785 12.8882 10.9196 12.5713 11.0184 12.1993C11.1173 11.8272 11.0657 11.4307 10.8752 11.0971C10.6172 10.6462 10.1406 10.3694 9.62589 10.3714L9.62965 10.3733ZM1.09125 12C0.61765 11.999 0.234463 11.6096 0.235154 11.1302C0.235848 10.6507 0.620156 10.2625 1.09376 10.2629C1.56736 10.2632 1.95111 10.652 1.95111 11.1314C1.95111 11.3621 1.86046 11.5833 1.69915 11.7463C1.53784 11.9092 1.31913 12.0005 1.09125 12ZM1.09125 10.4552C0.72132 10.4563 0.422274 10.7607 0.423308 11.1352C0.424353 11.5097 0.725085 11.8125 1.09502 11.8114C1.46495 11.8104 1.764 11.5059 1.76296 11.1314C1.76346 10.9509 1.69285 10.7777 1.56677 10.65C1.4407 10.5224 1.26955 10.4509 1.09125 10.4514V10.4552ZM22.5087 11.8781C22.0183 11.8796 21.5753 11.5818 21.3866 11.1235C21.1979 10.6653 21.3006 10.137 21.6468 9.78541C21.9931 9.43379 22.5146 9.32814 22.9678 9.51778C23.4211 9.70742 23.7167 10.1549 23.7167 10.6514C23.7146 11.3259 23.175 11.8722 22.5087 11.8743V11.8781ZM22.5087 9.61524C22.0944 9.6137 21.72 9.86518 21.5604 10.2523C21.4008 10.6393 21.4874 11.0856 21.7799 11.3828C22.0723 11.6799 22.5129 11.7693 22.8958 11.6091C23.2787 11.449 23.5285 11.0709 23.5285 10.6514C23.5295 10.3766 23.4227 10.1127 23.2314 9.91762C23.0402 9.72258 22.7802 9.61244 22.5087 9.61143V9.61524ZM4.85996 11.8743C4.38611 11.8743 4.00198 11.4854 4.00198 11.0057C4.00198 10.526 4.38611 10.1371 4.85996 10.1371C5.33381 10.1371 5.71794 10.526 5.71794 11.0057C5.71691 11.485 5.33338 11.8732 4.85996 11.8743ZM4.85996 10.3276C4.49003 10.3276 4.19014 10.6312 4.19014 11.0057C4.19014 11.3802 4.49003 11.6838 4.85996 11.6838C5.2299 11.6838 5.52979 11.3802 5.52979 11.0057C5.52876 10.6317 5.22947 10.3287 4.85996 10.3276ZM27.745 10.9219C26.8496 10.9209 26.1244 10.1853 26.125 9.27874C26.1257 8.37219 26.8521 7.63775 27.7476 7.6381C28.6431 7.63845 29.3688 8.37346 29.3688 9.28001C29.3667 10.1867 28.6407 10.9209 27.745 10.9219ZM27.745 7.83048C26.9532 7.83154 26.3122 8.48221 26.3132 9.28382C26.3142 10.0854 26.957 10.7344 27.7488 10.7333C28.5406 10.7323 29.1817 10.0816 29.1807 9.28001C29.1802 8.89506 29.0286 8.52609 28.7594 8.25425C28.4902 7.98241 28.1253 7.82998 27.745 7.83048ZM39.6664 10.7467C39.1166 10.7437 38.667 10.3024 38.6471 9.74613C38.6272 9.1899 39.0442 8.71678 39.5924 8.67362C40.1405 8.63046 40.6247 9.03262 40.69 9.58527C40.7554 10.1379 40.3785 10.6444 39.8358 10.7333C39.7797 10.7416 39.7231 10.746 39.6664 10.7467ZM39.6664 8.84191C39.2985 8.84115 38.9724 9.08157 38.8602 9.43631C38.7479 9.79105 38.8754 10.1785 39.1754 10.3943C39.3569 10.5282 39.5841 10.5824 39.8057 10.5448C40.1437 10.4889 40.415 10.232 40.4925 9.89427C40.5701 9.55653 40.4385 9.20482 40.1594 9.00382C40.0163 8.89819 39.8436 8.84148 39.6664 8.84191ZM19.6883 10.3276C19.0194 10.3266 18.4778 9.77691 18.4785 9.09969C18.4792 8.42247 19.0219 7.87394 19.6908 7.87429C20.3598 7.87464 20.9019 8.42374 20.9019 9.10096C20.9009 9.77874 20.3578 10.3276 19.6883 10.3276ZM19.6883 8.06477C19.1233 8.06582 18.666 8.5302 18.6667 9.10223C18.6673 9.67425 19.1258 10.1375 19.6908 10.1371C20.2559 10.1368 20.7138 9.67298 20.7138 9.10096C20.7127 8.52838 20.2539 8.06477 19.6883 8.06477ZM35.4932 10.2343C35.3141 10.2343 35.1396 10.177 34.9946 10.0705C34.6126 9.78857 34.5287 9.24662 34.807 8.85986C35.0853 8.47309 35.6207 8.38788 36.0028 8.66952C36.385 8.95115 36.4693 9.49304 36.1913 9.88001C36.0572 10.0685 35.8537 10.1942 35.6268 10.2286C35.5806 10.2342 35.534 10.2361 35.4876 10.2343H35.4932ZM35.4932 8.68763C35.4563 8.6848 35.4191 8.6848 35.3822 8.68763C35.2073 8.71629 35.0509 8.81431 34.9476 8.96001C34.7336 9.26421 34.8029 9.68627 35.1025 9.90408C35.4021 10.1219 35.8193 10.0535 36.0357 9.75104C36.2521 9.4486 36.1862 9.02599 35.8883 8.80572C35.7713 8.72417 35.6315 8.68278 35.4894 8.68763H35.4932ZM7.14979 9.73334C6.57826 9.73229 6.11579 9.2624 6.11683 8.68382C6.11787 8.10524 6.58203 7.63705 7.15355 7.6381C7.72508 7.63916 8.18755 8.10904 8.18652 8.68763C8.18602 8.96547 8.07651 9.23174 7.88209 9.42785C7.68766 9.62396 7.42425 9.73385 7.14979 9.73334ZM7.14979 7.82858C6.68242 7.82963 6.30429 8.21385 6.30498 8.68699C6.30567 9.16013 6.68493 9.54321 7.1523 9.54286C7.61966 9.54251 7.99836 9.15886 7.99836 8.68572C7.99629 8.21277 7.61698 7.83048 7.14979 7.83048V7.82858ZM16.5575 8.90286C15.9862 8.90181 15.5238 8.43231 15.5245 7.85398C15.5252 7.27564 15.9887 6.80728 16.56 6.80763C17.1312 6.80798 17.5942 7.27691 17.5942 7.85525C17.5942 8.43488 17.13 8.90477 16.5575 8.90477V8.90286ZM16.5575 6.9981C16.0901 6.99915 15.712 7.38337 15.7126 7.85651C15.7133 8.32965 16.0926 8.71274 16.56 8.71239C17.0273 8.71204 17.406 8.32838 17.406 7.85525C17.404 7.38229 17.0246 7 16.5575 7.00001V6.9981ZM10.2129 8.54667C9.6414 8.54667 9.17808 8.07764 9.17808 7.49905C9.17808 6.92047 9.6414 6.45144 10.2129 6.45144C10.7845 6.45144 11.2478 6.92047 11.2478 7.49905C11.2467 8.0772 10.784 8.54563 10.2129 8.54667ZM10.2129 6.64191C9.74531 6.64191 9.36623 7.02567 9.36623 7.49905C9.36623 7.97244 9.74531 8.3562 10.2129 8.3562C10.6805 8.3562 11.0596 7.97244 11.0596 7.49905C11.0586 7.0261 10.6801 6.64296 10.2129 6.64191ZM24.4486 8.42286C23.6173 8.42286 22.9434 7.74063 22.9434 6.89906C22.9434 6.05748 23.6173 5.37525 24.4486 5.37525C25.2799 5.37525 25.9538 6.05748 25.9538 6.89906C25.9538 7.74063 25.2799 8.42286 24.4486 8.42286ZM24.4486 5.56572C23.7212 5.56572 23.1315 6.16268 23.1315 6.89906C23.1315 7.63543 23.7212 8.23239 24.4486 8.23239C25.176 8.23239 25.7657 7.63543 25.7657 6.89906C25.7646 6.16342 25.1753 5.56763 24.4486 5.56763V5.56572ZM13.4492 8.42286C12.8477 8.42181 12.3609 7.92758 12.3616 7.31874C12.3623 6.7099 12.8503 6.2168 13.4517 6.21715C14.0531 6.2175 14.5405 6.71116 14.5405 7.32001C14.5384 7.92897 14.0507 8.42182 13.4492 8.42286ZM13.4492 6.40763C12.9517 6.40868 12.5491 6.81763 12.5498 7.32127C12.5505 7.82492 12.9542 8.23274 13.4517 8.23239C13.9492 8.23204 14.3523 7.82365 14.3523 7.32001C14.3502 6.81624 13.9468 6.40867 13.4492 6.40763ZM2.68115 8.42288C2.26225 8.42441 1.88376 8.17014 1.7224 7.7788C1.56104 7.38745 1.64864 6.93623 1.94431 6.63582C2.23997 6.33542 2.68537 6.24509 3.07253 6.40701C3.45968 6.56894 3.71223 6.95118 3.71223 7.37525C3.71273 7.65259 3.60438 7.91877 3.41101 8.11524C3.21765 8.3117 2.95511 8.42236 2.68115 8.42288ZM2.68115 6.51809C2.33818 6.51656 2.02818 6.72462 1.89605 7.04502C1.76392 7.36543 1.83578 7.73487 2.07802 7.98065C2.32026 8.22643 2.68504 8.3 3.00183 8.16695C3.31862 8.03391 3.52483 7.72054 3.52408 7.37334C3.52304 6.90249 3.14625 6.52105 2.68115 6.52001V6.51809ZM33.8676 7.33906C33.7251 7.3391 33.5862 7.29379 33.4706 7.20953C33.2458 7.04727 33.1401 6.76376 33.2027 6.49163C33.2654 6.2195 33.4841 6.01256 33.7565 5.96763C33.9352 5.93681 34.1186 5.98081 34.2646 6.08953C34.5714 6.30778 34.6462 6.73605 34.432 7.04763C34.3275 7.19672 34.1682 7.29696 33.9899 7.32572C33.9497 7.33466 33.9087 7.33913 33.8676 7.33906ZM33.5816 7.04763C33.8033 7.2067 34.1103 7.15417 34.268 6.93017C34.4258 6.70618 34.3747 6.39521 34.1539 6.23491C33.933 6.07462 33.6257 6.12546 33.4668 6.34858C33.3088 6.57394 33.3601 6.88612 33.5816 7.04763ZM37.5836 7.06667C37.4038 7.06711 37.2286 7.00975 37.0831 6.90286C36.8018 6.69812 36.6697 6.3422 36.7483 6.0006C36.8269 5.65901 37.1008 5.39879 37.4425 5.34096C37.6673 5.30204 37.8981 5.35702 38.0822 5.49334C38.3635 5.69808 38.4956 6.05401 38.417 6.3956C38.3384 6.7372 38.0645 6.99741 37.7228 7.05525C37.677 7.06532 37.6304 7.07168 37.5836 7.07429V7.06667ZM37.5836 5.52001C37.547 5.51939 37.5104 5.52258 37.4745 5.52953C37.2993 5.55738 37.1426 5.65558 37.0398 5.80191C36.9344 5.94853 36.8914 6.13179 36.9204 6.31074C36.9493 6.4897 37.0479 6.64945 37.1941 6.75429C37.3387 6.86122 37.5196 6.90509 37.6963 6.8761C37.8731 6.84711 38.031 6.74768 38.1349 6.60001C38.2398 6.45322 38.2825 6.27011 38.2536 6.0913C38.2246 5.9125 38.1263 5.7528 37.9806 5.64763C37.8647 5.56445 37.7256 5.52105 37.5836 5.52382V5.52001ZM20.8022 6.40001C20.2391 6.40232 19.7303 6.06063 19.5134 5.53459C19.2965 5.00855 19.4144 4.40203 19.812 3.99841C20.2096 3.5948 20.8084 3.47379 21.3286 3.69193C21.8489 3.91006 22.1878 4.42427 22.187 4.99429C22.1885 5.36762 22.0434 5.72625 21.7837 5.99131C21.524 6.25636 21.171 6.40611 20.8022 6.40763V6.40001ZM20.8022 3.77712C20.3154 3.77484 19.8753 4.06991 19.6874 4.52454C19.4995 4.97917 19.601 5.50362 19.9444 5.8529C20.2878 6.20219 20.8054 6.30737 21.2553 6.11932C21.7053 5.93127 21.9988 5.4871 21.9988 4.99429C21.9947 4.32728 21.4611 3.78789 20.8022 3.78477V3.77712ZM5.50345 5.56763C4.93192 5.56763 4.4686 5.09859 4.4686 4.52001C4.4686 3.94142 4.93192 3.47239 5.50345 3.47239C6.07498 3.47239 6.53829 3.94142 6.53829 4.52001C6.53726 5.09816 6.07455 5.56658 5.50345 5.56763ZM5.50345 3.66286C5.03583 3.66286 4.65676 4.04662 4.65676 4.52001C4.65676 4.99339 5.03583 5.37715 5.50345 5.37715C5.97106 5.37715 6.35014 4.99339 6.35014 4.52001C6.3491 4.04705 5.97063 3.66391 5.50345 3.66286ZM31.3181 5.05715C31.1878 5.05746 31.0607 5.01613 30.9549 4.93905C30.7741 4.80772 30.6762 4.5887 30.6982 4.3645C30.7201 4.1403 30.8586 3.94498 31.0613 3.85212C31.2641 3.75925 31.5004 3.78296 31.6812 3.91429C31.9599 4.11788 32.0238 4.51107 31.8242 4.79429C31.7085 4.96086 31.5192 5.05914 31.3181 5.05715ZM31.3181 3.98667C31.2943 3.98478 31.2704 3.98478 31.2466 3.98667C31.1329 4.00518 31.0313 4.06897 30.9644 4.16382C30.8251 4.36222 30.8705 4.6373 31.066 4.77905C31.2609 4.92027 31.5319 4.87511 31.6718 4.6781C31.8104 4.47994 31.766 4.2058 31.5721 4.06286C31.4971 4.01178 31.4085 3.98519 31.3181 3.98667ZM17.2724 4.86098C16.7566 4.86327 16.2902 4.55036 16.0914 4.06845C15.8926 3.58654 16.0005 3.03081 16.3647 2.66097C16.729 2.29113 17.2776 2.18022 17.7542 2.38008C18.2309 2.57994 18.5413 3.05108 18.5406 3.57334C18.5406 4.28299 17.9734 4.85886 17.2724 4.86098ZM17.2724 2.47617C16.8328 2.47388 16.4352 2.74019 16.2654 3.15068C16.0956 3.56118 16.1871 4.03483 16.4971 4.35035C16.8072 4.66586 17.2746 4.76094 17.6809 4.59117C18.0873 4.4214 18.3524 4.02029 18.3524 3.57525C18.3524 2.97048 17.8698 2.47934 17.2724 2.47617ZM34.5411 4.30477C34.2633 4.30413 34.0092 4.14631 33.8828 3.8959C33.7563 3.6455 33.7788 3.34454 33.9409 3.1162C34.1369 2.84079 34.4911 2.73282 34.8047 2.85286C35.1183 2.97291 35.3132 3.29109 35.2802 3.62885C35.2471 3.9666 34.9942 4.23985 34.6634 4.29525C34.6229 4.30062 34.582 4.30317 34.5411 4.30286V4.30477ZM34.5411 2.99429C34.5111 2.99241 34.4809 2.99241 34.4508 2.99429C34.2315 3.03274 34.0564 3.20049 34.0063 3.42001C33.9562 3.63953 34.0409 3.86807 34.2213 4.00001C34.341 4.08524 34.4887 4.12007 34.6333 4.09715C34.8538 4.06037 35.0305 3.89252 35.0808 3.67212C35.1312 3.45173 35.0451 3.2224 34.8629 3.09144C34.7695 3.02462 34.6574 2.9899 34.543 2.99239L34.5411 2.99429ZM9.15362 4.25715C8.51791 4.2561 8.00331 3.73373 8.004 3.09017C8.0047 2.44661 8.52042 1.92537 9.15613 1.92572C9.79184 1.92607 10.307 2.44788 10.307 3.09144C10.306 3.73555 9.78988 4.25715 9.15362 4.25715ZM9.15362 2.1162C8.62183 2.11725 8.19147 2.55434 8.19216 3.0927C8.19285 3.63106 8.62433 4.06702 9.15613 4.06667C9.68792 4.06632 10.1188 3.6298 10.1188 3.09144C10.1178 2.55252 9.68597 2.1162 9.15362 2.1162ZM13.2159 4.02096C12.5469 4.01991 12.0053 3.47025 12.006 2.79303C12.0067 2.1158 12.5494 1.56728 13.2184 1.56763C13.8873 1.56798 14.4294 2.11707 14.4294 2.79429C14.4284 3.47207 13.8854 4.02096 13.2159 4.02096ZM13.2159 1.7581C12.6508 1.75915 12.1935 2.22354 12.1942 2.79556C12.1949 3.36758 12.6533 3.83083 13.2184 3.83048C13.7834 3.83013 14.2413 3.36632 14.2413 2.79429C14.2402 2.22171 13.7815 1.7581 13.2159 1.7581ZM28.4243 3.83048C28.2944 3.82984 28.168 3.78786 28.063 3.71048C27.9283 3.61333 27.8375 3.4658 27.8107 3.3006C27.7838 3.13541 27.8232 2.96619 27.92 2.83048C28.0163 2.69499 28.1618 2.60379 28.3245 2.57699C28.4872 2.55019 28.6537 2.59 28.7874 2.68763C28.9221 2.78478 29.0129 2.93231 29.0398 3.09751C29.0666 3.2627 29.0273 3.43192 28.9304 3.56763C28.8356 3.70377 28.6903 3.79518 28.5278 3.82096C28.4936 3.82688 28.459 3.83007 28.4243 3.83048ZM28.1722 3.5562C28.2658 3.62408 28.382 3.65211 28.4958 3.63429C28.6095 3.61579 28.7111 3.552 28.778 3.45715C28.9177 3.25924 28.8731 2.98426 28.6783 2.84191C28.5851 2.77339 28.4687 2.74532 28.355 2.76391C28.2413 2.7825 28.1396 2.84622 28.0724 2.94096C27.9328 3.13887 27.9773 3.41385 28.1722 3.5562ZM25.3122 2.86858C25.1703 2.86887 25.0319 2.82352 24.9171 2.73905C24.6905 2.57835 24.5824 2.2948 24.6436 2.02162C24.7049 1.74844 24.9233 1.53993 25.1963 1.49406C25.4693 1.44819 25.7425 1.57406 25.8877 1.81255C26.0329 2.05104 26.0211 2.35474 25.8579 2.58096C25.7557 2.72767 25.5999 2.82707 25.4251 2.85715C25.3878 2.86383 25.3501 2.86765 25.3122 2.86858ZM25.0244 2.58477C25.1674 2.69211 25.3565 2.71302 25.5191 2.63946C25.6816 2.56591 25.7924 2.40932 25.8088 2.22983C25.8252 2.05034 25.7447 1.87584 25.5982 1.77334C25.4928 1.69489 25.3603 1.66325 25.2313 1.68572C25.034 1.71817 24.8756 1.86799 24.8303 2.06504C24.7849 2.26209 24.8616 2.46737 25.0244 2.58477ZM31.1299 2.41905C30.9875 2.41884 30.8487 2.37356 30.7329 2.28953C30.4329 2.06667 30.3636 1.64209 30.5768 1.33334C30.6817 1.18381 30.8418 1.08353 31.0208 1.05525C31.3923 0.993179 31.7431 1.24774 31.8045 1.62382C31.8658 1.9999 31.6143 2.35508 31.2428 2.41715C31.2059 2.42055 31.1688 2.42119 31.1318 2.41905H31.1299ZM30.8421 2.13334C31.0631 2.29387 31.3707 2.24368 31.5307 2.02096C31.6899 1.79708 31.6412 1.48519 31.4216 1.32191C31.313 1.24237 31.177 1.21139 31.0453 1.2362C30.9177 1.25369 30.8025 1.32232 30.7254 1.42667C30.6489 1.53423 30.6178 1.66817 30.639 1.79895C30.6602 1.92973 30.7319 2.04661 30.8383 2.12382L30.8421 2.13334ZM27.094 1.38096C26.9516 1.38101 26.8127 1.33569 26.697 1.25144C26.3886 1.03167 26.3137 0.600762 26.5296 0.287626C26.7489 -0.0215368 27.1742 -0.0923015 27.4798 0.129531C27.786 0.351682 27.8567 0.78293 27.6378 1.09334C27.5329 1.24287 27.3728 1.34315 27.1938 1.37144C27.1608 1.37696 27.1275 1.38014 27.094 1.38096ZM27.094 0.190484C27.0671 0.187747 27.04 0.187747 27.0131 0.190484C26.8857 0.208383 26.7706 0.276929 26.6933 0.38096C26.5353 0.606319 26.5866 0.918499 26.808 1.08001C26.9142 1.15699 27.0462 1.18785 27.1749 1.16572C27.3025 1.14823 27.4177 1.0796 27.4948 0.975245C27.5718 0.867858 27.6032 0.733777 27.582 0.602843C27.5608 0.471909 27.4887 0.354988 27.3819 0.278103C27.2976 0.218676 27.1968 0.187987 27.094 0.190484Z" fill="#011C39"></path></svg>